G04 #@! TF.GenerationSoftware,KiCad,Pcbnew,(5.1.12)-1*
G04 #@! TF.CreationDate,2022-06-29T22:30:09+05:00*
G04 #@! TF.ProjectId,YNXT-WM01,594e5854-2d57-44d3-9031-2e6b69636164,rev?*
G04 #@! TF.SameCoordinates,Original*
G04 #@! TF.FileFunction,Legend,Top*
G04 #@! TF.FilePolarity,Positive*
%FSLAX46Y46*%
G04 Gerber Fmt 4.6, Leading zero omitted, Abs format (unit mm)*
G04 Created by KiCad (PCBNEW (5.1.12)-1) date 2022-06-29 22:30:09*
%MOMM*%
%LPD*%
G01*
G04 APERTURE LIST*
%ADD10C,0.300000*%
%ADD11C,0.050000*%
%ADD12C,0.120000*%
%ADD13C,0.150000*%
%ADD14C,2.390000*%
%ADD15R,1.500000X2.200000*%
%ADD16R,1.700000X1.700000*%
%ADD17O,1.700000X1.700000*%
%ADD18R,2.200000X1.200000*%
%ADD19R,6.400000X5.800000*%
%ADD20C,2.100000*%
%ADD21R,2.100000X2.100000*%
%ADD22R,0.800000X0.900000*%
%ADD23R,1.220000X0.650000*%
%ADD24R,0.700000X2.000000*%
%ADD25R,2.000000X0.700000*%
%ADD26R,1.060000X0.650000*%
%ADD27R,0.800000X1.200000*%
%ADD28O,1.000000X1.600000*%
%ADD29C,0.650000*%
%ADD30O,1.000000X2.100000*%
%ADD31C,2.500000*%
G04 APERTURE END LIST*
D10*
X141986071Y-95357142D02*
X143128928Y-95357142D01*
X142557500Y-95928571D02*
X142557500Y-94785714D01*
X131572071Y-95357142D02*
X132714928Y-95357142D01*
X132143500Y-95928571D02*
X132143500Y-94785714D01*
X121856571Y-95357142D02*
X122999428Y-95357142D01*
X122428000Y-95928571D02*
X122428000Y-94785714D01*
X112268071Y-95357142D02*
X113410928Y-95357142D01*
X112839500Y-95928571D02*
X112839500Y-94785714D01*
D11*
X95097600Y-107962700D02*
X96189800Y-107962700D01*
X95656400Y-108542466D02*
X95656400Y-107382934D01*
X96236166Y-107962700D02*
G75*
G03*
X96236166Y-107962700I-579766J0D01*
G01*
D12*
X99313999Y-107708701D02*
X101727000Y-107708700D01*
X99332864Y-112890806D02*
X101727000Y-112890300D01*
X101727000Y-112890300D02*
X101727000Y-107708700D01*
X96438546Y-105869535D02*
G75*
G02*
X99313999Y-107708701I-807546J-4429965D01*
G01*
X99332864Y-112890806D02*
G75*
G02*
X96443799Y-114744499I-3701864J2591306D01*
G01*
X94818199Y-114744499D02*
G75*
G02*
X94818201Y-105854501I812801J4444999D01*
G01*
X114240000Y-126933000D02*
X114240000Y-125603000D01*
X115570000Y-126933000D02*
X114240000Y-126933000D01*
X116840000Y-126933000D02*
X116840000Y-124273000D01*
X116840000Y-124273000D02*
X127060000Y-124273000D01*
X116840000Y-126933000D02*
X127060000Y-126933000D01*
X127060000Y-126933000D02*
X127060000Y-124273000D01*
X139262000Y-108399500D02*
X138162000Y-108399500D01*
X139262000Y-108669500D02*
X139262000Y-108399500D01*
X140762000Y-108669500D02*
X139262000Y-108669500D01*
X139262000Y-102039500D02*
X136432000Y-102039500D01*
X139262000Y-101769500D02*
X139262000Y-102039500D01*
X140762000Y-101769500D02*
X139262000Y-101769500D01*
X166002580Y-105920000D02*
X165721420Y-105920000D01*
X166002580Y-104900000D02*
X165721420Y-104900000D01*
X165102000Y-111900580D02*
X165102000Y-111619420D01*
X164082000Y-111900580D02*
X164082000Y-111619420D01*
X109793500Y-125426080D02*
X109793500Y-125144920D01*
X108773500Y-125426080D02*
X108773500Y-125144920D01*
X160145000Y-108190420D02*
X160145000Y-108471580D01*
X161165000Y-108190420D02*
X161165000Y-108471580D01*
X152005420Y-103380000D02*
X152286580Y-103380000D01*
X152005420Y-102360000D02*
X152286580Y-102360000D01*
X116726580Y-121156000D02*
X116445420Y-121156000D01*
X116726580Y-122176000D02*
X116445420Y-122176000D01*
X98686500Y-117981000D02*
X98686500Y-116521000D01*
X101846500Y-117981000D02*
X101846500Y-115821000D01*
X101846500Y-117981000D02*
X100916500Y-117981000D01*
X98686500Y-117981000D02*
X99616500Y-117981000D01*
X166099258Y-104408500D02*
X165624742Y-104408500D01*
X166099258Y-103363500D02*
X165624742Y-103363500D01*
X157973500Y-111522742D02*
X157973500Y-111997258D01*
X159018500Y-111522742D02*
X159018500Y-111997258D01*
X162701500Y-108568258D02*
X162701500Y-108093742D01*
X161656500Y-108568258D02*
X161656500Y-108093742D01*
X110412000Y-125048242D02*
X110412000Y-125522758D01*
X111457000Y-125048242D02*
X111457000Y-125522758D01*
X119521500Y-102091258D02*
X119521500Y-101616742D01*
X118476500Y-102091258D02*
X118476500Y-101616742D01*
X116952500Y-101616742D02*
X116952500Y-102091258D01*
X117997500Y-101616742D02*
X117997500Y-102091258D01*
X119871258Y-121143500D02*
X119396742Y-121143500D01*
X119871258Y-122188500D02*
X119396742Y-122188500D01*
X151908742Y-106440500D02*
X152383258Y-106440500D01*
X151908742Y-105395500D02*
X152383258Y-105395500D01*
X152383258Y-104916500D02*
X151908742Y-104916500D01*
X152383258Y-103871500D02*
X151908742Y-103871500D01*
X102474500Y-116983742D02*
X102474500Y-117458258D01*
X103519500Y-116983742D02*
X103519500Y-117458258D01*
X161172000Y-106208000D02*
X162932000Y-106208000D01*
X162932000Y-103138000D02*
X160502000Y-103138000D01*
X128968000Y-119438000D02*
X127398000Y-119438000D01*
X128968000Y-119438000D02*
X128968000Y-117548000D01*
X128968000Y-106988000D02*
X128968000Y-105098000D01*
X128968000Y-105098000D02*
X127398000Y-105098000D01*
X116888000Y-105098000D02*
X105728000Y-105098000D01*
X105728000Y-105098000D02*
X105728000Y-119438000D01*
X105728000Y-119438000D02*
X116888000Y-119438000D01*
X116888000Y-119438000D02*
X116888000Y-120038000D01*
X156580000Y-106258000D02*
X159030000Y-106258000D01*
X158380000Y-103038000D02*
X156580000Y-103038000D01*
X161544000Y-116926000D02*
X165144000Y-116926000D01*
X161544000Y-116926000D02*
X159344000Y-116926000D01*
X161544000Y-113706000D02*
X163744000Y-113706000D01*
X161544000Y-113706000D02*
X159344000Y-113706000D01*
X162424000Y-110250000D02*
X159994000Y-110250000D01*
X160664000Y-113320000D02*
X162424000Y-113320000D01*
X97447000Y-116631500D02*
X95287000Y-116631500D01*
X95287000Y-116631500D02*
X95287000Y-118191500D01*
X95287000Y-118191500D02*
X97447000Y-118191500D01*
X133036000Y-126933000D02*
X133036000Y-125603000D01*
X134366000Y-126933000D02*
X133036000Y-126933000D01*
X135636000Y-126933000D02*
X135636000Y-124273000D01*
X135636000Y-124273000D02*
X156016000Y-124273000D01*
X135636000Y-126933000D02*
X156016000Y-126933000D01*
X156016000Y-126933000D02*
X156016000Y-124273000D01*
D13*
X99830047Y-113847571D02*
X99972904Y-113895190D01*
X100020523Y-113942809D01*
X100068142Y-114038047D01*
X100068142Y-114180904D01*
X100020523Y-114276142D01*
X99972904Y-114323761D01*
X99877666Y-114371380D01*
X99496714Y-114371380D01*
X99496714Y-113371380D01*
X99830047Y-113371380D01*
X99925285Y-113419000D01*
X99972904Y-113466619D01*
X100020523Y-113561857D01*
X100020523Y-113657095D01*
X99972904Y-113752333D01*
X99925285Y-113799952D01*
X99830047Y-113847571D01*
X99496714Y-113847571D01*
X100401476Y-113371380D02*
X101068142Y-113371380D01*
X100401476Y-114371380D01*
X101068142Y-114371380D01*
X101972904Y-114371380D02*
X101401476Y-114371380D01*
X101687190Y-114371380D02*
X101687190Y-113371380D01*
X101591952Y-113514238D01*
X101496714Y-113609476D01*
X101401476Y-113657095D01*
X113609380Y-126864904D02*
X112609380Y-126864904D01*
X112609380Y-126626809D01*
X112657000Y-126483952D01*
X112752238Y-126388714D01*
X112847476Y-126341095D01*
X113037952Y-126293476D01*
X113180809Y-126293476D01*
X113371285Y-126341095D01*
X113466523Y-126388714D01*
X113561761Y-126483952D01*
X113609380Y-126626809D01*
X113609380Y-126864904D01*
X113085571Y-125531571D02*
X113133190Y-125388714D01*
X113180809Y-125341095D01*
X113276047Y-125293476D01*
X113418904Y-125293476D01*
X113514142Y-125341095D01*
X113561761Y-125388714D01*
X113609380Y-125483952D01*
X113609380Y-125864904D01*
X112609380Y-125864904D01*
X112609380Y-125531571D01*
X112657000Y-125436333D01*
X112704619Y-125388714D01*
X112799857Y-125341095D01*
X112895095Y-125341095D01*
X112990333Y-125388714D01*
X113037952Y-125436333D01*
X113085571Y-125531571D01*
X113085571Y-125864904D01*
X112657000Y-124341095D02*
X112609380Y-124436333D01*
X112609380Y-124579190D01*
X112657000Y-124722047D01*
X112752238Y-124817285D01*
X112847476Y-124864904D01*
X113037952Y-124912523D01*
X113180809Y-124912523D01*
X113371285Y-124864904D01*
X113466523Y-124817285D01*
X113561761Y-124722047D01*
X113609380Y-124579190D01*
X113609380Y-124483952D01*
X113561761Y-124341095D01*
X113514142Y-124293476D01*
X113180809Y-124293476D01*
X113180809Y-124483952D01*
X141636761Y-101267119D02*
X141541523Y-101219500D01*
X141446285Y-101124261D01*
X141303428Y-100981404D01*
X141208190Y-100933785D01*
X141112952Y-100933785D01*
X141160571Y-101171880D02*
X141065333Y-101124261D01*
X140970095Y-101029023D01*
X140922476Y-100838547D01*
X140922476Y-100505214D01*
X140970095Y-100314738D01*
X141065333Y-100219500D01*
X141160571Y-100171880D01*
X141351047Y-100171880D01*
X141446285Y-100219500D01*
X141541523Y-100314738D01*
X141589142Y-100505214D01*
X141589142Y-100838547D01*
X141541523Y-101029023D01*
X141446285Y-101124261D01*
X141351047Y-101171880D01*
X141160571Y-101171880D01*
X142541523Y-101171880D02*
X141970095Y-101171880D01*
X142255809Y-101171880D02*
X142255809Y-100171880D01*
X142160571Y-100314738D01*
X142065333Y-100409976D01*
X141970095Y-100457595D01*
X143740380Y-94416571D02*
X144073714Y-94416571D01*
X144216571Y-94940380D02*
X143740380Y-94940380D01*
X143740380Y-93940380D01*
X144216571Y-93940380D01*
X144549904Y-93940380D02*
X145216571Y-94940380D01*
X145216571Y-93940380D02*
X144549904Y-94940380D01*
X145454666Y-93940380D02*
X146026095Y-93940380D01*
X145740380Y-94940380D02*
X145740380Y-93940380D01*
X146883238Y-94940380D02*
X146311809Y-94940380D01*
X146597523Y-94940380D02*
X146597523Y-93940380D01*
X146502285Y-94083238D01*
X146407047Y-94178476D01*
X146311809Y-94226095D01*
X168235333Y-105767142D02*
X168187714Y-105814761D01*
X168044857Y-105862380D01*
X167949619Y-105862380D01*
X167806761Y-105814761D01*
X167711523Y-105719523D01*
X167663904Y-105624285D01*
X167616285Y-105433809D01*
X167616285Y-105290952D01*
X167663904Y-105100476D01*
X167711523Y-105005238D01*
X167806761Y-104910000D01*
X167949619Y-104862380D01*
X168044857Y-104862380D01*
X168187714Y-104910000D01*
X168235333Y-104957619D01*
X169187714Y-105862380D02*
X168616285Y-105862380D01*
X168902000Y-105862380D02*
X168902000Y-104862380D01*
X168806761Y-105005238D01*
X168711523Y-105100476D01*
X168616285Y-105148095D01*
X166473142Y-111926666D02*
X166520761Y-111974285D01*
X166568380Y-112117142D01*
X166568380Y-112212380D01*
X166520761Y-112355238D01*
X166425523Y-112450476D01*
X166330285Y-112498095D01*
X166139809Y-112545714D01*
X165996952Y-112545714D01*
X165806476Y-112498095D01*
X165711238Y-112450476D01*
X165616000Y-112355238D01*
X165568380Y-112212380D01*
X165568380Y-112117142D01*
X165616000Y-111974285D01*
X165663619Y-111926666D01*
X165901714Y-111069523D02*
X166568380Y-111069523D01*
X165520761Y-111307619D02*
X166235047Y-111545714D01*
X166235047Y-110926666D01*
X109640642Y-123039166D02*
X109688261Y-123086785D01*
X109735880Y-123229642D01*
X109735880Y-123324880D01*
X109688261Y-123467738D01*
X109593023Y-123562976D01*
X109497785Y-123610595D01*
X109307309Y-123658214D01*
X109164452Y-123658214D01*
X108973976Y-123610595D01*
X108878738Y-123562976D01*
X108783500Y-123467738D01*
X108735880Y-123324880D01*
X108735880Y-123229642D01*
X108783500Y-123086785D01*
X108831119Y-123039166D01*
X108735880Y-122705833D02*
X108735880Y-122086785D01*
X109116833Y-122420119D01*
X109116833Y-122277261D01*
X109164452Y-122182023D01*
X109212071Y-122134404D01*
X109307309Y-122086785D01*
X109545404Y-122086785D01*
X109640642Y-122134404D01*
X109688261Y-122182023D01*
X109735880Y-122277261D01*
X109735880Y-122562976D01*
X109688261Y-122658214D01*
X109640642Y-122705833D01*
X159615142Y-108497666D02*
X159662761Y-108545285D01*
X159710380Y-108688142D01*
X159710380Y-108783380D01*
X159662761Y-108926238D01*
X159567523Y-109021476D01*
X159472285Y-109069095D01*
X159281809Y-109116714D01*
X159138952Y-109116714D01*
X158948476Y-109069095D01*
X158853238Y-109021476D01*
X158758000Y-108926238D01*
X158710380Y-108783380D01*
X158710380Y-108688142D01*
X158758000Y-108545285D01*
X158805619Y-108497666D01*
X158710380Y-107592904D02*
X158710380Y-108069095D01*
X159186571Y-108116714D01*
X159138952Y-108069095D01*
X159091333Y-107973857D01*
X159091333Y-107735761D01*
X159138952Y-107640523D01*
X159186571Y-107592904D01*
X159281809Y-107545285D01*
X159519904Y-107545285D01*
X159615142Y-107592904D01*
X159662761Y-107640523D01*
X159710380Y-107735761D01*
X159710380Y-107973857D01*
X159662761Y-108069095D01*
X159615142Y-108116714D01*
X149439333Y-103227142D02*
X149391714Y-103274761D01*
X149248857Y-103322380D01*
X149153619Y-103322380D01*
X149010761Y-103274761D01*
X148915523Y-103179523D01*
X148867904Y-103084285D01*
X148820285Y-102893809D01*
X148820285Y-102750952D01*
X148867904Y-102560476D01*
X148915523Y-102465238D01*
X149010761Y-102370000D01*
X149153619Y-102322380D01*
X149248857Y-102322380D01*
X149391714Y-102370000D01*
X149439333Y-102417619D01*
X150296476Y-102322380D02*
X150106000Y-102322380D01*
X150010761Y-102370000D01*
X149963142Y-102417619D01*
X149867904Y-102560476D01*
X149820285Y-102750952D01*
X149820285Y-103131904D01*
X149867904Y-103227142D01*
X149915523Y-103274761D01*
X150010761Y-103322380D01*
X150201238Y-103322380D01*
X150296476Y-103274761D01*
X150344095Y-103227142D01*
X150391714Y-103131904D01*
X150391714Y-102893809D01*
X150344095Y-102798571D01*
X150296476Y-102750952D01*
X150201238Y-102703333D01*
X150010761Y-102703333D01*
X149915523Y-102750952D01*
X149867904Y-102798571D01*
X149820285Y-102893809D01*
X113879333Y-122035842D02*
X113831714Y-122083461D01*
X113688857Y-122131080D01*
X113593619Y-122131080D01*
X113450761Y-122083461D01*
X113355523Y-121988223D01*
X113307904Y-121892985D01*
X113260285Y-121702509D01*
X113260285Y-121559652D01*
X113307904Y-121369176D01*
X113355523Y-121273938D01*
X113450761Y-121178700D01*
X113593619Y-121131080D01*
X113688857Y-121131080D01*
X113831714Y-121178700D01*
X113879333Y-121226319D01*
X114212666Y-121131080D02*
X114879333Y-121131080D01*
X114450761Y-122131080D01*
X115363809Y-93813380D02*
X115601904Y-94813380D01*
X115792380Y-94099095D01*
X115982857Y-94813380D01*
X116220952Y-93813380D01*
X116601904Y-94813380D02*
X116601904Y-93813380D01*
X116935238Y-94527666D01*
X117268571Y-93813380D01*
X117268571Y-94813380D01*
X118268571Y-94813380D02*
X117697142Y-94813380D01*
X117982857Y-94813380D02*
X117982857Y-93813380D01*
X117887619Y-93956238D01*
X117792380Y-94051476D01*
X117697142Y-94099095D01*
X125015809Y-93940380D02*
X125253904Y-94940380D01*
X125444380Y-94226095D01*
X125634857Y-94940380D01*
X125872952Y-93940380D01*
X126253904Y-94940380D02*
X126253904Y-93940380D01*
X126587238Y-94654666D01*
X126920571Y-93940380D01*
X126920571Y-94940380D01*
X127349142Y-94035619D02*
X127396761Y-93988000D01*
X127492000Y-93940380D01*
X127730095Y-93940380D01*
X127825333Y-93988000D01*
X127872952Y-94035619D01*
X127920571Y-94130857D01*
X127920571Y-94226095D01*
X127872952Y-94368952D01*
X127301523Y-94940380D01*
X127920571Y-94940380D01*
X134667809Y-94194380D02*
X134905904Y-95194380D01*
X135096380Y-94480095D01*
X135286857Y-95194380D01*
X135524952Y-94194380D01*
X135905904Y-95194380D02*
X135905904Y-94194380D01*
X136239238Y-94908666D01*
X136572571Y-94194380D01*
X136572571Y-95194380D01*
X136953523Y-94194380D02*
X137572571Y-94194380D01*
X137239238Y-94575333D01*
X137382095Y-94575333D01*
X137477333Y-94622952D01*
X137524952Y-94670571D01*
X137572571Y-94765809D01*
X137572571Y-95003904D01*
X137524952Y-95099142D01*
X137477333Y-95146761D01*
X137382095Y-95194380D01*
X137096380Y-95194380D01*
X137001142Y-95146761D01*
X136953523Y-95099142D01*
X100234761Y-120562619D02*
X100139523Y-120515000D01*
X100044285Y-120419761D01*
X99901428Y-120276904D01*
X99806190Y-120229285D01*
X99710952Y-120229285D01*
X99758571Y-120467380D02*
X99663333Y-120419761D01*
X99568095Y-120324523D01*
X99520476Y-120134047D01*
X99520476Y-119800714D01*
X99568095Y-119610238D01*
X99663333Y-119515000D01*
X99758571Y-119467380D01*
X99949047Y-119467380D01*
X100044285Y-119515000D01*
X100139523Y-119610238D01*
X100187142Y-119800714D01*
X100187142Y-120134047D01*
X100139523Y-120324523D01*
X100044285Y-120419761D01*
X99949047Y-120467380D01*
X99758571Y-120467380D01*
X100568095Y-119562619D02*
X100615714Y-119515000D01*
X100710952Y-119467380D01*
X100949047Y-119467380D01*
X101044285Y-119515000D01*
X101091904Y-119562619D01*
X101139523Y-119657857D01*
X101139523Y-119753095D01*
X101091904Y-119895952D01*
X100520476Y-120467380D01*
X101139523Y-120467380D01*
X168235333Y-104338380D02*
X167902000Y-103862190D01*
X167663904Y-104338380D02*
X167663904Y-103338380D01*
X168044857Y-103338380D01*
X168140095Y-103386000D01*
X168187714Y-103433619D01*
X168235333Y-103528857D01*
X168235333Y-103671714D01*
X168187714Y-103766952D01*
X168140095Y-103814571D01*
X168044857Y-103862190D01*
X167663904Y-103862190D01*
X168616285Y-103433619D02*
X168663904Y-103386000D01*
X168759142Y-103338380D01*
X168997238Y-103338380D01*
X169092476Y-103386000D01*
X169140095Y-103433619D01*
X169187714Y-103528857D01*
X169187714Y-103624095D01*
X169140095Y-103766952D01*
X168568666Y-104338380D01*
X169187714Y-104338380D01*
X157551380Y-111926666D02*
X157075190Y-112260000D01*
X157551380Y-112498095D02*
X156551380Y-112498095D01*
X156551380Y-112117142D01*
X156599000Y-112021904D01*
X156646619Y-111974285D01*
X156741857Y-111926666D01*
X156884714Y-111926666D01*
X156979952Y-111974285D01*
X157027571Y-112021904D01*
X157075190Y-112117142D01*
X157075190Y-112498095D01*
X156551380Y-111021904D02*
X156551380Y-111498095D01*
X157027571Y-111545714D01*
X156979952Y-111498095D01*
X156932333Y-111402857D01*
X156932333Y-111164761D01*
X156979952Y-111069523D01*
X157027571Y-111021904D01*
X157122809Y-110974285D01*
X157360904Y-110974285D01*
X157456142Y-111021904D01*
X157503761Y-111069523D01*
X157551380Y-111164761D01*
X157551380Y-111402857D01*
X157503761Y-111498095D01*
X157456142Y-111545714D01*
X164155380Y-108497666D02*
X163679190Y-108831000D01*
X164155380Y-109069095D02*
X163155380Y-109069095D01*
X163155380Y-108688142D01*
X163203000Y-108592904D01*
X163250619Y-108545285D01*
X163345857Y-108497666D01*
X163488714Y-108497666D01*
X163583952Y-108545285D01*
X163631571Y-108592904D01*
X163679190Y-108688142D01*
X163679190Y-109069095D01*
X163155380Y-108164333D02*
X163155380Y-107497666D01*
X164155380Y-107926238D01*
X111323380Y-123039166D02*
X110847190Y-123372500D01*
X111323380Y-123610595D02*
X110323380Y-123610595D01*
X110323380Y-123229642D01*
X110371000Y-123134404D01*
X110418619Y-123086785D01*
X110513857Y-123039166D01*
X110656714Y-123039166D01*
X110751952Y-123086785D01*
X110799571Y-123134404D01*
X110847190Y-123229642D01*
X110847190Y-123610595D01*
X110323380Y-122182023D02*
X110323380Y-122372500D01*
X110371000Y-122467738D01*
X110418619Y-122515357D01*
X110561476Y-122610595D01*
X110751952Y-122658214D01*
X111132904Y-122658214D01*
X111228142Y-122610595D01*
X111275761Y-122562976D01*
X111323380Y-122467738D01*
X111323380Y-122277261D01*
X111275761Y-122182023D01*
X111228142Y-122134404D01*
X111132904Y-122086785D01*
X110894809Y-122086785D01*
X110799571Y-122134404D01*
X110751952Y-122182023D01*
X110704333Y-122277261D01*
X110704333Y-122467738D01*
X110751952Y-122562976D01*
X110799571Y-122610595D01*
X110894809Y-122658214D01*
X116466880Y-102020666D02*
X115990690Y-102354000D01*
X116466880Y-102592095D02*
X115466880Y-102592095D01*
X115466880Y-102211142D01*
X115514500Y-102115904D01*
X115562119Y-102068285D01*
X115657357Y-102020666D01*
X115800214Y-102020666D01*
X115895452Y-102068285D01*
X115943071Y-102115904D01*
X115990690Y-102211142D01*
X115990690Y-102592095D01*
X115895452Y-101449238D02*
X115847833Y-101544476D01*
X115800214Y-101592095D01*
X115704976Y-101639714D01*
X115657357Y-101639714D01*
X115562119Y-101592095D01*
X115514500Y-101544476D01*
X115466880Y-101449238D01*
X115466880Y-101258761D01*
X115514500Y-101163523D01*
X115562119Y-101115904D01*
X115657357Y-101068285D01*
X115704976Y-101068285D01*
X115800214Y-101115904D01*
X115847833Y-101163523D01*
X115895452Y-101258761D01*
X115895452Y-101449238D01*
X115943071Y-101544476D01*
X115990690Y-101592095D01*
X116085928Y-101639714D01*
X116276404Y-101639714D01*
X116371642Y-101592095D01*
X116419261Y-101544476D01*
X116466880Y-101449238D01*
X116466880Y-101258761D01*
X116419261Y-101163523D01*
X116371642Y-101115904D01*
X116276404Y-101068285D01*
X116085928Y-101068285D01*
X115990690Y-101115904D01*
X115943071Y-101163523D01*
X115895452Y-101258761D01*
X115260380Y-102020666D02*
X114784190Y-102354000D01*
X115260380Y-102592095D02*
X114260380Y-102592095D01*
X114260380Y-102211142D01*
X114308000Y-102115904D01*
X114355619Y-102068285D01*
X114450857Y-102020666D01*
X114593714Y-102020666D01*
X114688952Y-102068285D01*
X114736571Y-102115904D01*
X114784190Y-102211142D01*
X114784190Y-102592095D01*
X115260380Y-101544476D02*
X115260380Y-101354000D01*
X115212761Y-101258761D01*
X115165142Y-101211142D01*
X115022285Y-101115904D01*
X114831809Y-101068285D01*
X114450857Y-101068285D01*
X114355619Y-101115904D01*
X114308000Y-101163523D01*
X114260380Y-101258761D01*
X114260380Y-101449238D01*
X114308000Y-101544476D01*
X114355619Y-101592095D01*
X114450857Y-101639714D01*
X114688952Y-101639714D01*
X114784190Y-101592095D01*
X114831809Y-101544476D01*
X114879428Y-101449238D01*
X114879428Y-101258761D01*
X114831809Y-101163523D01*
X114784190Y-101115904D01*
X114688952Y-101068285D01*
X121912142Y-122118380D02*
X121578809Y-121642190D01*
X121340714Y-122118380D02*
X121340714Y-121118380D01*
X121721666Y-121118380D01*
X121816904Y-121166000D01*
X121864523Y-121213619D01*
X121912142Y-121308857D01*
X121912142Y-121451714D01*
X121864523Y-121546952D01*
X121816904Y-121594571D01*
X121721666Y-121642190D01*
X121340714Y-121642190D01*
X122864523Y-122118380D02*
X122293095Y-122118380D01*
X122578809Y-122118380D02*
X122578809Y-121118380D01*
X122483571Y-121261238D01*
X122388333Y-121356476D01*
X122293095Y-121404095D01*
X123483571Y-121118380D02*
X123578809Y-121118380D01*
X123674047Y-121166000D01*
X123721666Y-121213619D01*
X123769285Y-121308857D01*
X123816904Y-121499333D01*
X123816904Y-121737428D01*
X123769285Y-121927904D01*
X123721666Y-122023142D01*
X123674047Y-122070761D01*
X123578809Y-122118380D01*
X123483571Y-122118380D01*
X123388333Y-122070761D01*
X123340714Y-122023142D01*
X123293095Y-121927904D01*
X123245476Y-121737428D01*
X123245476Y-121499333D01*
X123293095Y-121308857D01*
X123340714Y-121213619D01*
X123388333Y-121166000D01*
X123483571Y-121118380D01*
X148455142Y-106370380D02*
X148121809Y-105894190D01*
X147883714Y-106370380D02*
X147883714Y-105370380D01*
X148264666Y-105370380D01*
X148359904Y-105418000D01*
X148407523Y-105465619D01*
X148455142Y-105560857D01*
X148455142Y-105703714D01*
X148407523Y-105798952D01*
X148359904Y-105846571D01*
X148264666Y-105894190D01*
X147883714Y-105894190D01*
X149407523Y-106370380D02*
X148836095Y-106370380D01*
X149121809Y-106370380D02*
X149121809Y-105370380D01*
X149026571Y-105513238D01*
X148931333Y-105608476D01*
X148836095Y-105656095D01*
X150359904Y-106370380D02*
X149788476Y-106370380D01*
X150074190Y-106370380D02*
X150074190Y-105370380D01*
X149978952Y-105513238D01*
X149883714Y-105608476D01*
X149788476Y-105656095D01*
X148455142Y-104820980D02*
X148121809Y-104344790D01*
X147883714Y-104820980D02*
X147883714Y-103820980D01*
X148264666Y-103820980D01*
X148359904Y-103868600D01*
X148407523Y-103916219D01*
X148455142Y-104011457D01*
X148455142Y-104154314D01*
X148407523Y-104249552D01*
X148359904Y-104297171D01*
X148264666Y-104344790D01*
X147883714Y-104344790D01*
X149407523Y-104820980D02*
X148836095Y-104820980D01*
X149121809Y-104820980D02*
X149121809Y-103820980D01*
X149026571Y-103963838D01*
X148931333Y-104059076D01*
X148836095Y-104106695D01*
X149788476Y-103916219D02*
X149836095Y-103868600D01*
X149931333Y-103820980D01*
X150169428Y-103820980D01*
X150264666Y-103868600D01*
X150312285Y-103916219D01*
X150359904Y-104011457D01*
X150359904Y-104106695D01*
X150312285Y-104249552D01*
X149740857Y-104820980D01*
X150359904Y-104820980D01*
X103449380Y-114942857D02*
X102973190Y-115276190D01*
X103449380Y-115514285D02*
X102449380Y-115514285D01*
X102449380Y-115133333D01*
X102497000Y-115038095D01*
X102544619Y-114990476D01*
X102639857Y-114942857D01*
X102782714Y-114942857D01*
X102877952Y-114990476D01*
X102925571Y-115038095D01*
X102973190Y-115133333D01*
X102973190Y-115514285D01*
X103449380Y-113990476D02*
X103449380Y-114561904D01*
X103449380Y-114276190D02*
X102449380Y-114276190D01*
X102592238Y-114371428D01*
X102687476Y-114466666D01*
X102735095Y-114561904D01*
X102449380Y-113657142D02*
X102449380Y-113038095D01*
X102830333Y-113371428D01*
X102830333Y-113228571D01*
X102877952Y-113133333D01*
X102925571Y-113085714D01*
X103020809Y-113038095D01*
X103258904Y-113038095D01*
X103354142Y-113085714D01*
X103401761Y-113133333D01*
X103449380Y-113228571D01*
X103449380Y-113514285D01*
X103401761Y-113609523D01*
X103354142Y-113657142D01*
X161163095Y-101814380D02*
X161163095Y-102623904D01*
X161210714Y-102719142D01*
X161258333Y-102766761D01*
X161353571Y-102814380D01*
X161544047Y-102814380D01*
X161639285Y-102766761D01*
X161686904Y-102719142D01*
X161734523Y-102623904D01*
X161734523Y-101814380D01*
X162734523Y-102814380D02*
X162163095Y-102814380D01*
X162448809Y-102814380D02*
X162448809Y-101814380D01*
X162353571Y-101957238D01*
X162258333Y-102052476D01*
X162163095Y-102100095D01*
X130300380Y-113029904D02*
X131109904Y-113029904D01*
X131205142Y-112982285D01*
X131252761Y-112934666D01*
X131300380Y-112839428D01*
X131300380Y-112648952D01*
X131252761Y-112553714D01*
X131205142Y-112506095D01*
X131109904Y-112458476D01*
X130300380Y-112458476D01*
X130633714Y-111553714D02*
X131300380Y-111553714D01*
X130252761Y-111791809D02*
X130967047Y-112029904D01*
X130967047Y-111410857D01*
X156718095Y-101687380D02*
X156718095Y-102496904D01*
X156765714Y-102592142D01*
X156813333Y-102639761D01*
X156908571Y-102687380D01*
X157099047Y-102687380D01*
X157194285Y-102639761D01*
X157241904Y-102592142D01*
X157289523Y-102496904D01*
X157289523Y-101687380D01*
X158241904Y-101687380D02*
X157765714Y-101687380D01*
X157718095Y-102163571D01*
X157765714Y-102115952D01*
X157860952Y-102068333D01*
X158099047Y-102068333D01*
X158194285Y-102115952D01*
X158241904Y-102163571D01*
X158289523Y-102258809D01*
X158289523Y-102496904D01*
X158241904Y-102592142D01*
X158194285Y-102639761D01*
X158099047Y-102687380D01*
X157860952Y-102687380D01*
X157765714Y-102639761D01*
X157718095Y-102592142D01*
X160782095Y-117308380D02*
X160782095Y-118117904D01*
X160829714Y-118213142D01*
X160877333Y-118260761D01*
X160972571Y-118308380D01*
X161163047Y-118308380D01*
X161258285Y-118260761D01*
X161305904Y-118213142D01*
X161353523Y-118117904D01*
X161353523Y-117308380D01*
X161782095Y-117403619D02*
X161829714Y-117356000D01*
X161924952Y-117308380D01*
X162163047Y-117308380D01*
X162258285Y-117356000D01*
X162305904Y-117403619D01*
X162353523Y-117498857D01*
X162353523Y-117594095D01*
X162305904Y-117736952D01*
X161734476Y-118308380D01*
X162353523Y-118308380D01*
X156591095Y-108926380D02*
X156591095Y-109735904D01*
X156638714Y-109831142D01*
X156686333Y-109878761D01*
X156781571Y-109926380D01*
X156972047Y-109926380D01*
X157067285Y-109878761D01*
X157114904Y-109831142D01*
X157162523Y-109735904D01*
X157162523Y-108926380D01*
X157543476Y-108926380D02*
X158162523Y-108926380D01*
X157829190Y-109307333D01*
X157972047Y-109307333D01*
X158067285Y-109354952D01*
X158114904Y-109402571D01*
X158162523Y-109497809D01*
X158162523Y-109735904D01*
X158114904Y-109831142D01*
X158067285Y-109878761D01*
X157972047Y-109926380D01*
X157686333Y-109926380D01*
X157591095Y-109878761D01*
X157543476Y-109831142D01*
X93305404Y-117863880D02*
X93305404Y-116863880D01*
X93543500Y-116863880D01*
X93686357Y-116911500D01*
X93781595Y-117006738D01*
X93829214Y-117101976D01*
X93876833Y-117292452D01*
X93876833Y-117435309D01*
X93829214Y-117625785D01*
X93781595Y-117721023D01*
X93686357Y-117816261D01*
X93543500Y-117863880D01*
X93305404Y-117863880D01*
X94210166Y-116863880D02*
X94829214Y-116863880D01*
X94495880Y-117244833D01*
X94638738Y-117244833D01*
X94733976Y-117292452D01*
X94781595Y-117340071D01*
X94829214Y-117435309D01*
X94829214Y-117673404D01*
X94781595Y-117768642D01*
X94733976Y-117816261D01*
X94638738Y-117863880D01*
X94353023Y-117863880D01*
X94257785Y-117816261D01*
X94210166Y-117768642D01*
X131964571Y-126460142D02*
X131964571Y-126793476D01*
X132488380Y-126793476D02*
X131488380Y-126793476D01*
X131488380Y-126317285D01*
X132488380Y-125364904D02*
X132012190Y-125698238D01*
X132488380Y-125936333D02*
X131488380Y-125936333D01*
X131488380Y-125555380D01*
X131536000Y-125460142D01*
X131583619Y-125412523D01*
X131678857Y-125364904D01*
X131821714Y-125364904D01*
X131916952Y-125412523D01*
X131964571Y-125460142D01*
X132012190Y-125555380D01*
X132012190Y-125936333D01*
X132393142Y-124364904D02*
X132440761Y-124412523D01*
X132488380Y-124555380D01*
X132488380Y-124650619D01*
X132440761Y-124793476D01*
X132345523Y-124888714D01*
X132250285Y-124936333D01*
X132059809Y-124983952D01*
X131916952Y-124983952D01*
X131726476Y-124936333D01*
X131631238Y-124888714D01*
X131536000Y-124793476D01*
X131488380Y-124650619D01*
X131488380Y-124555380D01*
X131536000Y-124412523D01*
X131583619Y-124364904D01*
%LPC*%
D14*
X97288001Y-120455001D03*
D15*
X95631000Y-114414300D03*
X95631000Y-106133900D03*
D16*
X115570000Y-125603000D03*
D17*
X118110000Y-125603000D03*
X120650000Y-125603000D03*
X123190000Y-125603000D03*
X125730000Y-125603000D03*
D18*
X137532000Y-102939500D03*
X137532000Y-107499500D03*
D19*
X143832000Y-105219500D03*
D20*
X146558000Y-96774000D03*
D21*
X144018000Y-96774000D03*
G36*
G01*
X165537000Y-105160000D02*
X165537000Y-105660000D01*
G75*
G02*
X165312000Y-105885000I-225000J0D01*
G01*
X164862000Y-105885000D01*
G75*
G02*
X164637000Y-105660000I0J225000D01*
G01*
X164637000Y-105160000D01*
G75*
G02*
X164862000Y-104935000I225000J0D01*
G01*
X165312000Y-104935000D01*
G75*
G02*
X165537000Y-105160000I0J-225000D01*
G01*
G37*
G36*
G01*
X167087000Y-105160000D02*
X167087000Y-105660000D01*
G75*
G02*
X166862000Y-105885000I-225000J0D01*
G01*
X166412000Y-105885000D01*
G75*
G02*
X166187000Y-105660000I0J225000D01*
G01*
X166187000Y-105160000D01*
G75*
G02*
X166412000Y-104935000I225000J0D01*
G01*
X166862000Y-104935000D01*
G75*
G02*
X167087000Y-105160000I0J-225000D01*
G01*
G37*
G36*
G01*
X164842000Y-112985000D02*
X164342000Y-112985000D01*
G75*
G02*
X164117000Y-112760000I0J225000D01*
G01*
X164117000Y-112310000D01*
G75*
G02*
X164342000Y-112085000I225000J0D01*
G01*
X164842000Y-112085000D01*
G75*
G02*
X165067000Y-112310000I0J-225000D01*
G01*
X165067000Y-112760000D01*
G75*
G02*
X164842000Y-112985000I-225000J0D01*
G01*
G37*
G36*
G01*
X164842000Y-111435000D02*
X164342000Y-111435000D01*
G75*
G02*
X164117000Y-111210000I0J225000D01*
G01*
X164117000Y-110760000D01*
G75*
G02*
X164342000Y-110535000I225000J0D01*
G01*
X164842000Y-110535000D01*
G75*
G02*
X165067000Y-110760000I0J-225000D01*
G01*
X165067000Y-111210000D01*
G75*
G02*
X164842000Y-111435000I-225000J0D01*
G01*
G37*
G36*
G01*
X109533500Y-126510500D02*
X109033500Y-126510500D01*
G75*
G02*
X108808500Y-126285500I0J225000D01*
G01*
X108808500Y-125835500D01*
G75*
G02*
X109033500Y-125610500I225000J0D01*
G01*
X109533500Y-125610500D01*
G75*
G02*
X109758500Y-125835500I0J-225000D01*
G01*
X109758500Y-126285500D01*
G75*
G02*
X109533500Y-126510500I-225000J0D01*
G01*
G37*
G36*
G01*
X109533500Y-124960500D02*
X109033500Y-124960500D01*
G75*
G02*
X108808500Y-124735500I0J225000D01*
G01*
X108808500Y-124285500D01*
G75*
G02*
X109033500Y-124060500I225000J0D01*
G01*
X109533500Y-124060500D01*
G75*
G02*
X109758500Y-124285500I0J-225000D01*
G01*
X109758500Y-124735500D01*
G75*
G02*
X109533500Y-124960500I-225000J0D01*
G01*
G37*
G36*
G01*
X160405000Y-107106000D02*
X160905000Y-107106000D01*
G75*
G02*
X161130000Y-107331000I0J-225000D01*
G01*
X161130000Y-107781000D01*
G75*
G02*
X160905000Y-108006000I-225000J0D01*
G01*
X160405000Y-108006000D01*
G75*
G02*
X160180000Y-107781000I0J225000D01*
G01*
X160180000Y-107331000D01*
G75*
G02*
X160405000Y-107106000I225000J0D01*
G01*
G37*
G36*
G01*
X160405000Y-108656000D02*
X160905000Y-108656000D01*
G75*
G02*
X161130000Y-108881000I0J-225000D01*
G01*
X161130000Y-109331000D01*
G75*
G02*
X160905000Y-109556000I-225000J0D01*
G01*
X160405000Y-109556000D01*
G75*
G02*
X160180000Y-109331000I0J225000D01*
G01*
X160180000Y-108881000D01*
G75*
G02*
X160405000Y-108656000I225000J0D01*
G01*
G37*
G36*
G01*
X150921000Y-103120000D02*
X150921000Y-102620000D01*
G75*
G02*
X151146000Y-102395000I225000J0D01*
G01*
X151596000Y-102395000D01*
G75*
G02*
X151821000Y-102620000I0J-225000D01*
G01*
X151821000Y-103120000D01*
G75*
G02*
X151596000Y-103345000I-225000J0D01*
G01*
X151146000Y-103345000D01*
G75*
G02*
X150921000Y-103120000I0J225000D01*
G01*
G37*
G36*
G01*
X152471000Y-103120000D02*
X152471000Y-102620000D01*
G75*
G02*
X152696000Y-102395000I225000J0D01*
G01*
X153146000Y-102395000D01*
G75*
G02*
X153371000Y-102620000I0J-225000D01*
G01*
X153371000Y-103120000D01*
G75*
G02*
X153146000Y-103345000I-225000J0D01*
G01*
X152696000Y-103345000D01*
G75*
G02*
X152471000Y-103120000I0J225000D01*
G01*
G37*
G36*
G01*
X117811000Y-121416000D02*
X117811000Y-121916000D01*
G75*
G02*
X117586000Y-122141000I-225000J0D01*
G01*
X117136000Y-122141000D01*
G75*
G02*
X116911000Y-121916000I0J225000D01*
G01*
X116911000Y-121416000D01*
G75*
G02*
X117136000Y-121191000I225000J0D01*
G01*
X117586000Y-121191000D01*
G75*
G02*
X117811000Y-121416000I0J-225000D01*
G01*
G37*
G36*
G01*
X116261000Y-121416000D02*
X116261000Y-121916000D01*
G75*
G02*
X116036000Y-122141000I-225000J0D01*
G01*
X115586000Y-122141000D01*
G75*
G02*
X115361000Y-121916000I0J225000D01*
G01*
X115361000Y-121416000D01*
G75*
G02*
X115586000Y-121191000I225000J0D01*
G01*
X116036000Y-121191000D01*
G75*
G02*
X116261000Y-121416000I0J-225000D01*
G01*
G37*
X114300000Y-96774000D03*
D20*
X116840000Y-96774000D03*
X119380000Y-96774000D03*
X129032000Y-96774000D03*
X126492000Y-96774000D03*
D21*
X123952000Y-96774000D03*
X133604000Y-96774000D03*
D20*
X136144000Y-96774000D03*
X138684000Y-96774000D03*
D22*
X101216500Y-116221000D03*
X99316500Y-116221000D03*
X100266500Y-118221000D03*
G36*
G01*
X165437000Y-103611000D02*
X165437000Y-104161000D01*
G75*
G02*
X165237000Y-104361000I-200000J0D01*
G01*
X164837000Y-104361000D01*
G75*
G02*
X164637000Y-104161000I0J200000D01*
G01*
X164637000Y-103611000D01*
G75*
G02*
X164837000Y-103411000I200000J0D01*
G01*
X165237000Y-103411000D01*
G75*
G02*
X165437000Y-103611000I0J-200000D01*
G01*
G37*
G36*
G01*
X167087000Y-103611000D02*
X167087000Y-104161000D01*
G75*
G02*
X166887000Y-104361000I-200000J0D01*
G01*
X166487000Y-104361000D01*
G75*
G02*
X166287000Y-104161000I0J200000D01*
G01*
X166287000Y-103611000D01*
G75*
G02*
X166487000Y-103411000I200000J0D01*
G01*
X166887000Y-103411000D01*
G75*
G02*
X167087000Y-103611000I0J-200000D01*
G01*
G37*
G36*
G01*
X158221000Y-110535000D02*
X158771000Y-110535000D01*
G75*
G02*
X158971000Y-110735000I0J-200000D01*
G01*
X158971000Y-111135000D01*
G75*
G02*
X158771000Y-111335000I-200000J0D01*
G01*
X158221000Y-111335000D01*
G75*
G02*
X158021000Y-111135000I0J200000D01*
G01*
X158021000Y-110735000D01*
G75*
G02*
X158221000Y-110535000I200000J0D01*
G01*
G37*
G36*
G01*
X158221000Y-112185000D02*
X158771000Y-112185000D01*
G75*
G02*
X158971000Y-112385000I0J-200000D01*
G01*
X158971000Y-112785000D01*
G75*
G02*
X158771000Y-112985000I-200000J0D01*
G01*
X158221000Y-112985000D01*
G75*
G02*
X158021000Y-112785000I0J200000D01*
G01*
X158021000Y-112385000D01*
G75*
G02*
X158221000Y-112185000I200000J0D01*
G01*
G37*
G36*
G01*
X162454000Y-109556000D02*
X161904000Y-109556000D01*
G75*
G02*
X161704000Y-109356000I0J200000D01*
G01*
X161704000Y-108956000D01*
G75*
G02*
X161904000Y-108756000I200000J0D01*
G01*
X162454000Y-108756000D01*
G75*
G02*
X162654000Y-108956000I0J-200000D01*
G01*
X162654000Y-109356000D01*
G75*
G02*
X162454000Y-109556000I-200000J0D01*
G01*
G37*
G36*
G01*
X162454000Y-107906000D02*
X161904000Y-107906000D01*
G75*
G02*
X161704000Y-107706000I0J200000D01*
G01*
X161704000Y-107306000D01*
G75*
G02*
X161904000Y-107106000I200000J0D01*
G01*
X162454000Y-107106000D01*
G75*
G02*
X162654000Y-107306000I0J-200000D01*
G01*
X162654000Y-107706000D01*
G75*
G02*
X162454000Y-107906000I-200000J0D01*
G01*
G37*
G36*
G01*
X110659500Y-124060500D02*
X111209500Y-124060500D01*
G75*
G02*
X111409500Y-124260500I0J-200000D01*
G01*
X111409500Y-124660500D01*
G75*
G02*
X111209500Y-124860500I-200000J0D01*
G01*
X110659500Y-124860500D01*
G75*
G02*
X110459500Y-124660500I0J200000D01*
G01*
X110459500Y-124260500D01*
G75*
G02*
X110659500Y-124060500I200000J0D01*
G01*
G37*
G36*
G01*
X110659500Y-125710500D02*
X111209500Y-125710500D01*
G75*
G02*
X111409500Y-125910500I0J-200000D01*
G01*
X111409500Y-126310500D01*
G75*
G02*
X111209500Y-126510500I-200000J0D01*
G01*
X110659500Y-126510500D01*
G75*
G02*
X110459500Y-126310500I0J200000D01*
G01*
X110459500Y-125910500D01*
G75*
G02*
X110659500Y-125710500I200000J0D01*
G01*
G37*
G36*
G01*
X119274000Y-103079000D02*
X118724000Y-103079000D01*
G75*
G02*
X118524000Y-102879000I0J200000D01*
G01*
X118524000Y-102479000D01*
G75*
G02*
X118724000Y-102279000I200000J0D01*
G01*
X119274000Y-102279000D01*
G75*
G02*
X119474000Y-102479000I0J-200000D01*
G01*
X119474000Y-102879000D01*
G75*
G02*
X119274000Y-103079000I-200000J0D01*
G01*
G37*
G36*
G01*
X119274000Y-101429000D02*
X118724000Y-101429000D01*
G75*
G02*
X118524000Y-101229000I0J200000D01*
G01*
X118524000Y-100829000D01*
G75*
G02*
X118724000Y-100629000I200000J0D01*
G01*
X119274000Y-100629000D01*
G75*
G02*
X119474000Y-100829000I0J-200000D01*
G01*
X119474000Y-101229000D01*
G75*
G02*
X119274000Y-101429000I-200000J0D01*
G01*
G37*
G36*
G01*
X117200000Y-100629000D02*
X117750000Y-100629000D01*
G75*
G02*
X117950000Y-100829000I0J-200000D01*
G01*
X117950000Y-101229000D01*
G75*
G02*
X117750000Y-101429000I-200000J0D01*
G01*
X117200000Y-101429000D01*
G75*
G02*
X117000000Y-101229000I0J200000D01*
G01*
X117000000Y-100829000D01*
G75*
G02*
X117200000Y-100629000I200000J0D01*
G01*
G37*
G36*
G01*
X117200000Y-102279000D02*
X117750000Y-102279000D01*
G75*
G02*
X117950000Y-102479000I0J-200000D01*
G01*
X117950000Y-102879000D01*
G75*
G02*
X117750000Y-103079000I-200000J0D01*
G01*
X117200000Y-103079000D01*
G75*
G02*
X117000000Y-102879000I0J200000D01*
G01*
X117000000Y-102479000D01*
G75*
G02*
X117200000Y-102279000I200000J0D01*
G01*
G37*
G36*
G01*
X120859000Y-121391000D02*
X120859000Y-121941000D01*
G75*
G02*
X120659000Y-122141000I-200000J0D01*
G01*
X120259000Y-122141000D01*
G75*
G02*
X120059000Y-121941000I0J200000D01*
G01*
X120059000Y-121391000D01*
G75*
G02*
X120259000Y-121191000I200000J0D01*
G01*
X120659000Y-121191000D01*
G75*
G02*
X120859000Y-121391000I0J-200000D01*
G01*
G37*
G36*
G01*
X119209000Y-121391000D02*
X119209000Y-121941000D01*
G75*
G02*
X119009000Y-122141000I-200000J0D01*
G01*
X118609000Y-122141000D01*
G75*
G02*
X118409000Y-121941000I0J200000D01*
G01*
X118409000Y-121391000D01*
G75*
G02*
X118609000Y-121191000I200000J0D01*
G01*
X119009000Y-121191000D01*
G75*
G02*
X119209000Y-121391000I0J-200000D01*
G01*
G37*
G36*
G01*
X150921000Y-106193000D02*
X150921000Y-105643000D01*
G75*
G02*
X151121000Y-105443000I200000J0D01*
G01*
X151521000Y-105443000D01*
G75*
G02*
X151721000Y-105643000I0J-200000D01*
G01*
X151721000Y-106193000D01*
G75*
G02*
X151521000Y-106393000I-200000J0D01*
G01*
X151121000Y-106393000D01*
G75*
G02*
X150921000Y-106193000I0J200000D01*
G01*
G37*
G36*
G01*
X152571000Y-106193000D02*
X152571000Y-105643000D01*
G75*
G02*
X152771000Y-105443000I200000J0D01*
G01*
X153171000Y-105443000D01*
G75*
G02*
X153371000Y-105643000I0J-200000D01*
G01*
X153371000Y-106193000D01*
G75*
G02*
X153171000Y-106393000I-200000J0D01*
G01*
X152771000Y-106393000D01*
G75*
G02*
X152571000Y-106193000I0J200000D01*
G01*
G37*
G36*
G01*
X151721000Y-104119000D02*
X151721000Y-104669000D01*
G75*
G02*
X151521000Y-104869000I-200000J0D01*
G01*
X151121000Y-104869000D01*
G75*
G02*
X150921000Y-104669000I0J200000D01*
G01*
X150921000Y-104119000D01*
G75*
G02*
X151121000Y-103919000I200000J0D01*
G01*
X151521000Y-103919000D01*
G75*
G02*
X151721000Y-104119000I0J-200000D01*
G01*
G37*
G36*
G01*
X153371000Y-104119000D02*
X153371000Y-104669000D01*
G75*
G02*
X153171000Y-104869000I-200000J0D01*
G01*
X152771000Y-104869000D01*
G75*
G02*
X152571000Y-104669000I0J200000D01*
G01*
X152571000Y-104119000D01*
G75*
G02*
X152771000Y-103919000I200000J0D01*
G01*
X153171000Y-103919000D01*
G75*
G02*
X153371000Y-104119000I0J-200000D01*
G01*
G37*
G36*
G01*
X102722000Y-115996000D02*
X103272000Y-115996000D01*
G75*
G02*
X103472000Y-116196000I0J-200000D01*
G01*
X103472000Y-116596000D01*
G75*
G02*
X103272000Y-116796000I-200000J0D01*
G01*
X102722000Y-116796000D01*
G75*
G02*
X102522000Y-116596000I0J200000D01*
G01*
X102522000Y-116196000D01*
G75*
G02*
X102722000Y-115996000I200000J0D01*
G01*
G37*
G36*
G01*
X102722000Y-117646000D02*
X103272000Y-117646000D01*
G75*
G02*
X103472000Y-117846000I0J-200000D01*
G01*
X103472000Y-118246000D01*
G75*
G02*
X103272000Y-118446000I-200000J0D01*
G01*
X102722000Y-118446000D01*
G75*
G02*
X102522000Y-118246000I0J200000D01*
G01*
X102522000Y-117846000D01*
G75*
G02*
X102722000Y-117646000I200000J0D01*
G01*
G37*
D23*
X163362000Y-103698000D03*
X163362000Y-105598000D03*
X160742000Y-105598000D03*
X160742000Y-104648000D03*
X160742000Y-103698000D03*
D24*
X126588000Y-119318000D03*
X125318000Y-119318000D03*
X124048000Y-119318000D03*
X122778000Y-119318000D03*
X121508000Y-119318000D03*
X120238000Y-119318000D03*
X118968000Y-119318000D03*
X117698000Y-119318000D03*
D25*
X128848000Y-107838000D03*
X128848000Y-109108000D03*
X128848000Y-110378000D03*
X128848000Y-111648000D03*
X128848000Y-112918000D03*
X128848000Y-114188000D03*
X128848000Y-115458000D03*
X128848000Y-116728000D03*
D24*
X117698000Y-105218000D03*
X118968000Y-105218000D03*
X120238000Y-105218000D03*
X121508000Y-105218000D03*
X122778000Y-105218000D03*
X124048000Y-105218000D03*
X125318000Y-105218000D03*
X126588000Y-105218000D03*
D26*
X158580000Y-105598000D03*
X158580000Y-104648000D03*
X158580000Y-103698000D03*
X156380000Y-103698000D03*
X156380000Y-105598000D03*
G36*
G01*
X165144000Y-116191000D02*
X165144000Y-116391000D01*
G75*
G02*
X165044000Y-116491000I-100000J0D01*
G01*
X163769000Y-116491000D01*
G75*
G02*
X163669000Y-116391000I0J100000D01*
G01*
X163669000Y-116191000D01*
G75*
G02*
X163769000Y-116091000I100000J0D01*
G01*
X165044000Y-116091000D01*
G75*
G02*
X165144000Y-116191000I0J-100000D01*
G01*
G37*
G36*
G01*
X165144000Y-115541000D02*
X165144000Y-115741000D01*
G75*
G02*
X165044000Y-115841000I-100000J0D01*
G01*
X163769000Y-115841000D01*
G75*
G02*
X163669000Y-115741000I0J100000D01*
G01*
X163669000Y-115541000D01*
G75*
G02*
X163769000Y-115441000I100000J0D01*
G01*
X165044000Y-115441000D01*
G75*
G02*
X165144000Y-115541000I0J-100000D01*
G01*
G37*
G36*
G01*
X165144000Y-114891000D02*
X165144000Y-115091000D01*
G75*
G02*
X165044000Y-115191000I-100000J0D01*
G01*
X163769000Y-115191000D01*
G75*
G02*
X163669000Y-115091000I0J100000D01*
G01*
X163669000Y-114891000D01*
G75*
G02*
X163769000Y-114791000I100000J0D01*
G01*
X165044000Y-114791000D01*
G75*
G02*
X165144000Y-114891000I0J-100000D01*
G01*
G37*
G36*
G01*
X165144000Y-114241000D02*
X165144000Y-114441000D01*
G75*
G02*
X165044000Y-114541000I-100000J0D01*
G01*
X163769000Y-114541000D01*
G75*
G02*
X163669000Y-114441000I0J100000D01*
G01*
X163669000Y-114241000D01*
G75*
G02*
X163769000Y-114141000I100000J0D01*
G01*
X165044000Y-114141000D01*
G75*
G02*
X165144000Y-114241000I0J-100000D01*
G01*
G37*
G36*
G01*
X159419000Y-114241000D02*
X159419000Y-114441000D01*
G75*
G02*
X159319000Y-114541000I-100000J0D01*
G01*
X158044000Y-114541000D01*
G75*
G02*
X157944000Y-114441000I0J100000D01*
G01*
X157944000Y-114241000D01*
G75*
G02*
X158044000Y-114141000I100000J0D01*
G01*
X159319000Y-114141000D01*
G75*
G02*
X159419000Y-114241000I0J-100000D01*
G01*
G37*
G36*
G01*
X159419000Y-114891000D02*
X159419000Y-115091000D01*
G75*
G02*
X159319000Y-115191000I-100000J0D01*
G01*
X158044000Y-115191000D01*
G75*
G02*
X157944000Y-115091000I0J100000D01*
G01*
X157944000Y-114891000D01*
G75*
G02*
X158044000Y-114791000I100000J0D01*
G01*
X159319000Y-114791000D01*
G75*
G02*
X159419000Y-114891000I0J-100000D01*
G01*
G37*
G36*
G01*
X159419000Y-115541000D02*
X159419000Y-115741000D01*
G75*
G02*
X159319000Y-115841000I-100000J0D01*
G01*
X158044000Y-115841000D01*
G75*
G02*
X157944000Y-115741000I0J100000D01*
G01*
X157944000Y-115541000D01*
G75*
G02*
X158044000Y-115441000I100000J0D01*
G01*
X159319000Y-115441000D01*
G75*
G02*
X159419000Y-115541000I0J-100000D01*
G01*
G37*
G36*
G01*
X159419000Y-116191000D02*
X159419000Y-116391000D01*
G75*
G02*
X159319000Y-116491000I-100000J0D01*
G01*
X158044000Y-116491000D01*
G75*
G02*
X157944000Y-116391000I0J100000D01*
G01*
X157944000Y-116191000D01*
G75*
G02*
X158044000Y-116091000I100000J0D01*
G01*
X159319000Y-116091000D01*
G75*
G02*
X159419000Y-116191000I0J-100000D01*
G01*
G37*
D23*
X160234000Y-110810000D03*
X160234000Y-111760000D03*
X160234000Y-112710000D03*
X162854000Y-112710000D03*
X162854000Y-111760000D03*
X162854000Y-110810000D03*
D27*
X95847000Y-117411500D03*
X97447000Y-117411500D03*
D28*
X165102000Y-95216000D03*
D29*
X163672000Y-98866000D03*
D28*
X156462000Y-95216000D03*
D29*
X157892000Y-98866000D03*
D30*
X156462000Y-99396000D03*
X165102000Y-99396000D03*
D31*
X173609000Y-94869000D03*
X173609000Y-124587000D03*
X91821000Y-124587000D03*
X91821000Y-94869000D03*
D16*
X134366000Y-125603000D03*
D17*
X136906000Y-125603000D03*
X139446000Y-125603000D03*
X141986000Y-125603000D03*
X144526000Y-125603000D03*
X147066000Y-125603000D03*
X149606000Y-125603000D03*
X152146000Y-125603000D03*
X154686000Y-125603000D03*
M02*
