M48
; DRILL file {KiCad (5.1.12)-1} date 06/29/22 22:30:28
; FORMAT={-:-/ absolute / metric / decimal}
; #@! TF.CreationDate,2022-06-29T22:30:28+05:00
; #@! TF.GenerationSoftware,Kicad,Pcbnew,(5.1.12)-1
; #@! TF.FileFunction,Plated,1,2,PTH
FMAT,2
METRIC
T1C0.400
T2C0.600
T3C1.000
T4C1.100
%
G90
G05
T1
X92.837Y-117.411
X95.631Y-107.95
X110.045Y-100.203
X110.807Y-96.647
X110.934Y-122.809
X113.221Y-100.965
X117.284Y-106.87
X118.872Y-123.317
X120.238Y-106.903
X120.694Y-101.199
X131.0Y-104.013
X149.796Y-104.394
X150.431Y-100.012
X153.797Y-100.012
X154.749Y-103.695
X157.099Y-110.998
X164.909Y-106.934
X167.767Y-98.87
X167.894Y-113.03
T3
X115.57Y-125.603
X118.11Y-125.603
X120.65Y-125.603
X123.19Y-125.603
X125.73Y-125.603
X134.366Y-125.603
X136.906Y-125.603
X139.446Y-125.603
X141.986Y-125.603
X144.526Y-125.603
X147.066Y-125.603
X149.606Y-125.603
X152.146Y-125.603
X154.686Y-125.603
T4
X114.3Y-96.774
X116.84Y-96.774
X119.38Y-96.774
X123.952Y-96.774
X126.492Y-96.774
X129.032Y-96.774
X133.604Y-96.774
X136.144Y-96.774
X138.684Y-96.774
X144.018Y-96.774
X146.558Y-96.774
T2
X156.462Y-94.916G85X156.462Y-95.516
G05
X156.462Y-98.846G85X156.462Y-99.946
G05
X165.102Y-94.916G85X165.102Y-95.516
G05
X165.102Y-98.846G85X165.102Y-99.946
G05
T0
M30
