%FSLAX45Y45*%
G04 Gerber Fmt 4.5, Leading zero omitted, Abs format (unit mm)*
G04 Created by KiCad (PCBNEW (5.1.12)-1) date 2022-06-29 22:30:33*
%MOMM*%
%LPD*%
G01*
G04 APERTURE LIST*
%TA.AperFunction,Profile*%
%ADD10C,0.100000*%
%TD*%
%ADD11C,0.200000*%
%ADD12C,0.300000*%
G04 APERTURE END LIST*
D10*
X11150600Y-10401300D02*
X11150600Y-12065000D01*
X10515600Y-10401300D02*
X11150600Y-10401300D01*
X10515600Y-12065000D02*
X10515600Y-10401300D01*
X11150600Y-12065000D02*
X10515600Y-12065000D01*
X17653000Y-9194800D02*
X17653000Y-12750800D01*
X8890000Y-9194800D02*
X17653000Y-9194800D01*
X8890000Y-12750800D02*
X8890000Y-9194800D01*
X17653000Y-12750800D02*
X8890000Y-12750800D01*
D11*
X15756700Y-9854100D02*
X15821700Y-9919100D01*
X15821700Y-9854100D02*
X15756700Y-9919100D01*
X16334700Y-9854100D02*
X16399700Y-9919100D01*
X16399700Y-9854100D02*
X16334700Y-9919100D01*
X9848300Y-12045500D02*
G75*
G03*
X9848300Y-12045500I-119500J0D01*
G01*
X9182100Y-9361900D02*
X9182100Y-9611900D01*
X9057100Y-9486900D02*
X9307100Y-9486900D01*
X9182100Y-12333700D02*
X9182100Y-12583700D01*
X9057100Y-12458700D02*
X9307100Y-12458700D01*
X17360900Y-9361900D02*
X17360900Y-9611900D01*
X17235900Y-9486900D02*
X17485900Y-9486900D01*
X17360900Y-12333700D02*
X17360900Y-12583700D01*
X17235900Y-12458700D02*
X17485900Y-12458700D01*
D12*
X9171428Y-13221514D02*
X9171428Y-12921514D01*
X9242857Y-12921514D01*
X9285714Y-12935800D01*
X9314286Y-12964371D01*
X9328571Y-12992943D01*
X9342857Y-13050086D01*
X9342857Y-13092943D01*
X9328571Y-13150086D01*
X9314286Y-13178657D01*
X9285714Y-13207229D01*
X9242857Y-13221514D01*
X9171428Y-13221514D01*
X9471428Y-13221514D02*
X9471428Y-13021514D01*
X9471428Y-13078657D02*
X9485714Y-13050086D01*
X9500000Y-13035800D01*
X9528571Y-13021514D01*
X9557143Y-13021514D01*
X9657143Y-13221514D02*
X9657143Y-13021514D01*
X9657143Y-12921514D02*
X9642857Y-12935800D01*
X9657143Y-12950086D01*
X9671428Y-12935800D01*
X9657143Y-12921514D01*
X9657143Y-12950086D01*
X9842857Y-13221514D02*
X9814286Y-13207229D01*
X9800000Y-13178657D01*
X9800000Y-12921514D01*
X10000000Y-13221514D02*
X9971428Y-13207229D01*
X9957143Y-13178657D01*
X9957143Y-12921514D01*
X10342857Y-13221514D02*
X10342857Y-12921514D01*
X10442857Y-13135800D01*
X10542857Y-12921514D01*
X10542857Y-13221514D01*
X10814286Y-13221514D02*
X10814286Y-13064371D01*
X10800000Y-13035800D01*
X10771428Y-13021514D01*
X10714286Y-13021514D01*
X10685714Y-13035800D01*
X10814286Y-13207229D02*
X10785714Y-13221514D01*
X10714286Y-13221514D01*
X10685714Y-13207229D01*
X10671428Y-13178657D01*
X10671428Y-13150086D01*
X10685714Y-13121514D01*
X10714286Y-13107229D01*
X10785714Y-13107229D01*
X10814286Y-13092943D01*
X10957143Y-13021514D02*
X10957143Y-13321514D01*
X10957143Y-13035800D02*
X10985714Y-13021514D01*
X11042857Y-13021514D01*
X11071428Y-13035800D01*
X11085714Y-13050086D01*
X11100000Y-13078657D01*
X11100000Y-13164371D01*
X11085714Y-13192943D01*
X11071428Y-13207229D01*
X11042857Y-13221514D01*
X10985714Y-13221514D01*
X10957143Y-13207229D01*
X11228571Y-13192943D02*
X11242857Y-13207229D01*
X11228571Y-13221514D01*
X11214286Y-13207229D01*
X11228571Y-13192943D01*
X11228571Y-13221514D01*
X11228571Y-13035800D02*
X11242857Y-13050086D01*
X11228571Y-13064371D01*
X11214286Y-13050086D01*
X11228571Y-13035800D01*
X11228571Y-13064371D01*
X8820000Y-13683300D02*
X8885000Y-13748300D01*
X8885000Y-13683300D02*
X8820000Y-13748300D01*
X9228571Y-13551514D02*
X9257143Y-13551514D01*
X9285714Y-13565800D01*
X9300000Y-13580086D01*
X9314286Y-13608657D01*
X9328571Y-13665800D01*
X9328571Y-13737229D01*
X9314286Y-13794371D01*
X9300000Y-13822943D01*
X9285714Y-13837229D01*
X9257143Y-13851514D01*
X9228571Y-13851514D01*
X9200000Y-13837229D01*
X9185714Y-13822943D01*
X9171428Y-13794371D01*
X9157143Y-13737229D01*
X9157143Y-13665800D01*
X9171428Y-13608657D01*
X9185714Y-13580086D01*
X9200000Y-13565800D01*
X9228571Y-13551514D01*
X9457143Y-13822943D02*
X9471428Y-13837229D01*
X9457143Y-13851514D01*
X9442857Y-13837229D01*
X9457143Y-13822943D01*
X9457143Y-13851514D01*
X9728571Y-13551514D02*
X9671428Y-13551514D01*
X9642857Y-13565800D01*
X9628571Y-13580086D01*
X9600000Y-13622943D01*
X9585714Y-13680086D01*
X9585714Y-13794371D01*
X9600000Y-13822943D01*
X9614286Y-13837229D01*
X9642857Y-13851514D01*
X9700000Y-13851514D01*
X9728571Y-13837229D01*
X9742857Y-13822943D01*
X9757143Y-13794371D01*
X9757143Y-13722943D01*
X9742857Y-13694371D01*
X9728571Y-13680086D01*
X9700000Y-13665800D01*
X9642857Y-13665800D01*
X9614286Y-13680086D01*
X9600000Y-13694371D01*
X9585714Y-13722943D01*
X10028571Y-13551514D02*
X9885714Y-13551514D01*
X9871428Y-13694371D01*
X9885714Y-13680086D01*
X9914286Y-13665800D01*
X9985714Y-13665800D01*
X10014286Y-13680086D01*
X10028571Y-13694371D01*
X10042857Y-13722943D01*
X10042857Y-13794371D01*
X10028571Y-13822943D01*
X10014286Y-13837229D01*
X9985714Y-13851514D01*
X9914286Y-13851514D01*
X9885714Y-13837229D01*
X9871428Y-13822943D01*
X10228571Y-13551514D02*
X10257143Y-13551514D01*
X10285714Y-13565800D01*
X10300000Y-13580086D01*
X10314286Y-13608657D01*
X10328571Y-13665800D01*
X10328571Y-13737229D01*
X10314286Y-13794371D01*
X10300000Y-13822943D01*
X10285714Y-13837229D01*
X10257143Y-13851514D01*
X10228571Y-13851514D01*
X10200000Y-13837229D01*
X10185714Y-13822943D01*
X10171428Y-13794371D01*
X10157143Y-13737229D01*
X10157143Y-13665800D01*
X10171428Y-13608657D01*
X10185714Y-13580086D01*
X10200000Y-13565800D01*
X10228571Y-13551514D01*
X10457143Y-13851514D02*
X10457143Y-13651514D01*
X10457143Y-13680086D02*
X10471428Y-13665800D01*
X10500000Y-13651514D01*
X10542857Y-13651514D01*
X10571428Y-13665800D01*
X10585714Y-13694371D01*
X10585714Y-13851514D01*
X10585714Y-13694371D02*
X10600000Y-13665800D01*
X10628571Y-13651514D01*
X10671428Y-13651514D01*
X10700000Y-13665800D01*
X10714286Y-13694371D01*
X10714286Y-13851514D01*
X10857143Y-13851514D02*
X10857143Y-13651514D01*
X10857143Y-13680086D02*
X10871428Y-13665800D01*
X10900000Y-13651514D01*
X10942857Y-13651514D01*
X10971428Y-13665800D01*
X10985714Y-13694371D01*
X10985714Y-13851514D01*
X10985714Y-13694371D02*
X11000000Y-13665800D01*
X11028571Y-13651514D01*
X11071428Y-13651514D01*
X11100000Y-13665800D01*
X11114286Y-13694371D01*
X11114286Y-13851514D01*
X11700000Y-13537229D02*
X11442857Y-13922943D01*
X12085714Y-13551514D02*
X12114286Y-13551514D01*
X12142857Y-13565800D01*
X12157143Y-13580086D01*
X12171428Y-13608657D01*
X12185714Y-13665800D01*
X12185714Y-13737229D01*
X12171428Y-13794371D01*
X12157143Y-13822943D01*
X12142857Y-13837229D01*
X12114286Y-13851514D01*
X12085714Y-13851514D01*
X12057143Y-13837229D01*
X12042857Y-13822943D01*
X12028571Y-13794371D01*
X12014286Y-13737229D01*
X12014286Y-13665800D01*
X12028571Y-13608657D01*
X12042857Y-13580086D01*
X12057143Y-13565800D01*
X12085714Y-13551514D01*
X12314286Y-13822943D02*
X12328571Y-13837229D01*
X12314286Y-13851514D01*
X12300000Y-13837229D01*
X12314286Y-13822943D01*
X12314286Y-13851514D01*
X12514286Y-13551514D02*
X12542857Y-13551514D01*
X12571428Y-13565800D01*
X12585714Y-13580086D01*
X12600000Y-13608657D01*
X12614286Y-13665800D01*
X12614286Y-13737229D01*
X12600000Y-13794371D01*
X12585714Y-13822943D01*
X12571428Y-13837229D01*
X12542857Y-13851514D01*
X12514286Y-13851514D01*
X12485714Y-13837229D01*
X12471428Y-13822943D01*
X12457143Y-13794371D01*
X12442857Y-13737229D01*
X12442857Y-13665800D01*
X12457143Y-13608657D01*
X12471428Y-13580086D01*
X12485714Y-13565800D01*
X12514286Y-13551514D01*
X12728571Y-13580086D02*
X12742857Y-13565800D01*
X12771428Y-13551514D01*
X12842857Y-13551514D01*
X12871428Y-13565800D01*
X12885714Y-13580086D01*
X12900000Y-13608657D01*
X12900000Y-13637229D01*
X12885714Y-13680086D01*
X12714286Y-13851514D01*
X12900000Y-13851514D01*
X13171428Y-13551514D02*
X13028571Y-13551514D01*
X13014286Y-13694371D01*
X13028571Y-13680086D01*
X13057143Y-13665800D01*
X13128571Y-13665800D01*
X13157143Y-13680086D01*
X13171428Y-13694371D01*
X13185714Y-13722943D01*
X13185714Y-13794371D01*
X13171428Y-13822943D01*
X13157143Y-13837229D01*
X13128571Y-13851514D01*
X13057143Y-13851514D01*
X13028571Y-13837229D01*
X13014286Y-13822943D01*
X13442857Y-13551514D02*
X13385714Y-13551514D01*
X13357143Y-13565800D01*
X13342857Y-13580086D01*
X13314286Y-13622943D01*
X13300000Y-13680086D01*
X13300000Y-13794371D01*
X13314286Y-13822943D01*
X13328571Y-13837229D01*
X13357143Y-13851514D01*
X13414286Y-13851514D01*
X13442857Y-13837229D01*
X13457143Y-13822943D01*
X13471428Y-13794371D01*
X13471428Y-13722943D01*
X13457143Y-13694371D01*
X13442857Y-13680086D01*
X13414286Y-13665800D01*
X13357143Y-13665800D01*
X13328571Y-13680086D01*
X13314286Y-13694371D01*
X13300000Y-13722943D01*
X13585714Y-13551514D02*
X13585714Y-13608657D01*
X13700000Y-13551514D02*
X13700000Y-13608657D01*
X14142857Y-13965800D02*
X14128571Y-13951514D01*
X14100000Y-13908657D01*
X14085714Y-13880086D01*
X14071428Y-13837229D01*
X14057143Y-13765800D01*
X14057143Y-13708657D01*
X14071428Y-13637229D01*
X14085714Y-13594371D01*
X14100000Y-13565800D01*
X14128571Y-13522943D01*
X14142857Y-13508657D01*
X14242857Y-13580086D02*
X14257143Y-13565800D01*
X14285714Y-13551514D01*
X14357143Y-13551514D01*
X14385714Y-13565800D01*
X14400000Y-13580086D01*
X14414286Y-13608657D01*
X14414286Y-13637229D01*
X14400000Y-13680086D01*
X14228571Y-13851514D01*
X14414286Y-13851514D01*
X14771428Y-13851514D02*
X14771428Y-13551514D01*
X14900000Y-13851514D02*
X14900000Y-13694371D01*
X14885714Y-13665800D01*
X14857143Y-13651514D01*
X14814286Y-13651514D01*
X14785714Y-13665800D01*
X14771428Y-13680086D01*
X15085714Y-13851514D02*
X15057143Y-13837229D01*
X15042857Y-13822943D01*
X15028571Y-13794371D01*
X15028571Y-13708657D01*
X15042857Y-13680086D01*
X15057143Y-13665800D01*
X15085714Y-13651514D01*
X15128571Y-13651514D01*
X15157143Y-13665800D01*
X15171428Y-13680086D01*
X15185714Y-13708657D01*
X15185714Y-13794371D01*
X15171428Y-13822943D01*
X15157143Y-13837229D01*
X15128571Y-13851514D01*
X15085714Y-13851514D01*
X15357143Y-13851514D02*
X15328571Y-13837229D01*
X15314286Y-13808657D01*
X15314286Y-13551514D01*
X15585714Y-13837229D02*
X15557143Y-13851514D01*
X15500000Y-13851514D01*
X15471428Y-13837229D01*
X15457143Y-13808657D01*
X15457143Y-13694371D01*
X15471428Y-13665800D01*
X15500000Y-13651514D01*
X15557143Y-13651514D01*
X15585714Y-13665800D01*
X15600000Y-13694371D01*
X15600000Y-13722943D01*
X15457143Y-13751514D01*
X15714286Y-13837229D02*
X15742857Y-13851514D01*
X15800000Y-13851514D01*
X15828571Y-13837229D01*
X15842857Y-13808657D01*
X15842857Y-13794371D01*
X15828571Y-13765800D01*
X15800000Y-13751514D01*
X15757143Y-13751514D01*
X15728571Y-13737229D01*
X15714286Y-13708657D01*
X15714286Y-13694371D01*
X15728571Y-13665800D01*
X15757143Y-13651514D01*
X15800000Y-13651514D01*
X15828571Y-13665800D01*
X15942857Y-13965800D02*
X15957143Y-13951514D01*
X15985714Y-13908657D01*
X16000000Y-13880086D01*
X16014286Y-13837229D01*
X16028571Y-13765800D01*
X16028571Y-13708657D01*
X16014286Y-13637229D01*
X16000000Y-13594371D01*
X15985714Y-13565800D01*
X15957143Y-13522943D01*
X15942857Y-13508657D01*
X16485714Y-13965800D02*
X16471428Y-13951514D01*
X16442857Y-13908657D01*
X16428571Y-13880086D01*
X16414286Y-13837229D01*
X16400000Y-13765800D01*
X16400000Y-13708657D01*
X16414286Y-13637229D01*
X16428571Y-13594371D01*
X16442857Y-13565800D01*
X16471428Y-13522943D01*
X16485714Y-13508657D01*
X16600000Y-13651514D02*
X16600000Y-13851514D01*
X16600000Y-13680086D02*
X16614286Y-13665800D01*
X16642857Y-13651514D01*
X16685714Y-13651514D01*
X16714286Y-13665800D01*
X16728571Y-13694371D01*
X16728571Y-13851514D01*
X16914286Y-13851514D02*
X16885714Y-13837229D01*
X16871428Y-13822943D01*
X16857143Y-13794371D01*
X16857143Y-13708657D01*
X16871428Y-13680086D01*
X16885714Y-13665800D01*
X16914286Y-13651514D01*
X16957143Y-13651514D01*
X16985714Y-13665800D01*
X17000000Y-13680086D01*
X17014286Y-13708657D01*
X17014286Y-13794371D01*
X17000000Y-13822943D01*
X16985714Y-13837229D01*
X16957143Y-13851514D01*
X16914286Y-13851514D01*
X17100000Y-13651514D02*
X17214286Y-13651514D01*
X17142857Y-13551514D02*
X17142857Y-13808657D01*
X17157143Y-13837229D01*
X17185714Y-13851514D01*
X17214286Y-13851514D01*
X17542857Y-13651514D02*
X17542857Y-13951514D01*
X17542857Y-13665800D02*
X17571428Y-13651514D01*
X17628571Y-13651514D01*
X17657143Y-13665800D01*
X17671428Y-13680086D01*
X17685714Y-13708657D01*
X17685714Y-13794371D01*
X17671428Y-13822943D01*
X17657143Y-13837229D01*
X17628571Y-13851514D01*
X17571428Y-13851514D01*
X17542857Y-13837229D01*
X17857143Y-13851514D02*
X17828571Y-13837229D01*
X17814286Y-13808657D01*
X17814286Y-13551514D01*
X18100000Y-13851514D02*
X18100000Y-13694371D01*
X18085714Y-13665800D01*
X18057143Y-13651514D01*
X18000000Y-13651514D01*
X17971428Y-13665800D01*
X18100000Y-13837229D02*
X18071428Y-13851514D01*
X18000000Y-13851514D01*
X17971428Y-13837229D01*
X17957143Y-13808657D01*
X17957143Y-13780086D01*
X17971428Y-13751514D01*
X18000000Y-13737229D01*
X18071428Y-13737229D01*
X18100000Y-13722943D01*
X18200000Y-13651514D02*
X18314286Y-13651514D01*
X18242857Y-13551514D02*
X18242857Y-13808657D01*
X18257143Y-13837229D01*
X18285714Y-13851514D01*
X18314286Y-13851514D01*
X18528571Y-13837229D02*
X18500000Y-13851514D01*
X18442857Y-13851514D01*
X18414286Y-13837229D01*
X18400000Y-13808657D01*
X18400000Y-13694371D01*
X18414286Y-13665800D01*
X18442857Y-13651514D01*
X18500000Y-13651514D01*
X18528571Y-13665800D01*
X18542857Y-13694371D01*
X18542857Y-13722943D01*
X18400000Y-13751514D01*
X18800000Y-13851514D02*
X18800000Y-13551514D01*
X18800000Y-13837229D02*
X18771428Y-13851514D01*
X18714286Y-13851514D01*
X18685714Y-13837229D01*
X18671428Y-13822943D01*
X18657143Y-13794371D01*
X18657143Y-13708657D01*
X18671428Y-13680086D01*
X18685714Y-13665800D01*
X18714286Y-13651514D01*
X18771428Y-13651514D01*
X18800000Y-13665800D01*
X18914286Y-13965800D02*
X18928571Y-13951514D01*
X18957143Y-13908657D01*
X18971428Y-13880086D01*
X18985714Y-13837229D01*
X19000000Y-13765800D01*
X19000000Y-13708657D01*
X18985714Y-13637229D01*
X18971428Y-13594371D01*
X18957143Y-13565800D01*
X18928571Y-13522943D01*
X18914286Y-13508657D01*
X8885000Y-14111800D02*
G75*
G03*
X8885000Y-14111800I-119500J0D01*
G01*
X9157143Y-13976086D02*
X9171428Y-13961800D01*
X9200000Y-13947514D01*
X9271428Y-13947514D01*
X9300000Y-13961800D01*
X9314286Y-13976086D01*
X9328571Y-14004657D01*
X9328571Y-14033229D01*
X9314286Y-14076086D01*
X9142857Y-14247514D01*
X9328571Y-14247514D01*
X9457143Y-14218943D02*
X9471428Y-14233229D01*
X9457143Y-14247514D01*
X9442857Y-14233229D01*
X9457143Y-14218943D01*
X9457143Y-14247514D01*
X9571428Y-13947514D02*
X9757143Y-13947514D01*
X9657143Y-14061800D01*
X9700000Y-14061800D01*
X9728571Y-14076086D01*
X9742857Y-14090371D01*
X9757143Y-14118943D01*
X9757143Y-14190371D01*
X9742857Y-14218943D01*
X9728571Y-14233229D01*
X9700000Y-14247514D01*
X9614286Y-14247514D01*
X9585714Y-14233229D01*
X9571428Y-14218943D01*
X9900000Y-14247514D02*
X9957143Y-14247514D01*
X9985714Y-14233229D01*
X10000000Y-14218943D01*
X10028571Y-14176086D01*
X10042857Y-14118943D01*
X10042857Y-14004657D01*
X10028571Y-13976086D01*
X10014286Y-13961800D01*
X9985714Y-13947514D01*
X9928571Y-13947514D01*
X9900000Y-13961800D01*
X9885714Y-13976086D01*
X9871428Y-14004657D01*
X9871428Y-14076086D01*
X9885714Y-14104657D01*
X9900000Y-14118943D01*
X9928571Y-14133229D01*
X9985714Y-14133229D01*
X10014286Y-14118943D01*
X10028571Y-14104657D01*
X10042857Y-14076086D01*
X10228571Y-13947514D02*
X10257143Y-13947514D01*
X10285714Y-13961800D01*
X10300000Y-13976086D01*
X10314286Y-14004657D01*
X10328571Y-14061800D01*
X10328571Y-14133229D01*
X10314286Y-14190371D01*
X10300000Y-14218943D01*
X10285714Y-14233229D01*
X10257143Y-14247514D01*
X10228571Y-14247514D01*
X10200000Y-14233229D01*
X10185714Y-14218943D01*
X10171428Y-14190371D01*
X10157143Y-14133229D01*
X10157143Y-14061800D01*
X10171428Y-14004657D01*
X10185714Y-13976086D01*
X10200000Y-13961800D01*
X10228571Y-13947514D01*
X10457143Y-14247514D02*
X10457143Y-14047514D01*
X10457143Y-14076086D02*
X10471428Y-14061800D01*
X10500000Y-14047514D01*
X10542857Y-14047514D01*
X10571428Y-14061800D01*
X10585714Y-14090371D01*
X10585714Y-14247514D01*
X10585714Y-14090371D02*
X10600000Y-14061800D01*
X10628571Y-14047514D01*
X10671428Y-14047514D01*
X10700000Y-14061800D01*
X10714286Y-14090371D01*
X10714286Y-14247514D01*
X10857143Y-14247514D02*
X10857143Y-14047514D01*
X10857143Y-14076086D02*
X10871428Y-14061800D01*
X10900000Y-14047514D01*
X10942857Y-14047514D01*
X10971428Y-14061800D01*
X10985714Y-14090371D01*
X10985714Y-14247514D01*
X10985714Y-14090371D02*
X11000000Y-14061800D01*
X11028571Y-14047514D01*
X11071428Y-14047514D01*
X11100000Y-14061800D01*
X11114286Y-14090371D01*
X11114286Y-14247514D01*
X11700000Y-13933229D02*
X11442857Y-14318943D01*
X12085714Y-13947514D02*
X12114286Y-13947514D01*
X12142857Y-13961800D01*
X12157143Y-13976086D01*
X12171428Y-14004657D01*
X12185714Y-14061800D01*
X12185714Y-14133229D01*
X12171428Y-14190371D01*
X12157143Y-14218943D01*
X12142857Y-14233229D01*
X12114286Y-14247514D01*
X12085714Y-14247514D01*
X12057143Y-14233229D01*
X12042857Y-14218943D01*
X12028571Y-14190371D01*
X12014286Y-14133229D01*
X12014286Y-14061800D01*
X12028571Y-14004657D01*
X12042857Y-13976086D01*
X12057143Y-13961800D01*
X12085714Y-13947514D01*
X12314286Y-14218943D02*
X12328571Y-14233229D01*
X12314286Y-14247514D01*
X12300000Y-14233229D01*
X12314286Y-14218943D01*
X12314286Y-14247514D01*
X12514286Y-13947514D02*
X12542857Y-13947514D01*
X12571428Y-13961800D01*
X12585714Y-13976086D01*
X12600000Y-14004657D01*
X12614286Y-14061800D01*
X12614286Y-14133229D01*
X12600000Y-14190371D01*
X12585714Y-14218943D01*
X12571428Y-14233229D01*
X12542857Y-14247514D01*
X12514286Y-14247514D01*
X12485714Y-14233229D01*
X12471428Y-14218943D01*
X12457143Y-14190371D01*
X12442857Y-14133229D01*
X12442857Y-14061800D01*
X12457143Y-14004657D01*
X12471428Y-13976086D01*
X12485714Y-13961800D01*
X12514286Y-13947514D01*
X12757143Y-14247514D02*
X12814286Y-14247514D01*
X12842857Y-14233229D01*
X12857143Y-14218943D01*
X12885714Y-14176086D01*
X12900000Y-14118943D01*
X12900000Y-14004657D01*
X12885714Y-13976086D01*
X12871428Y-13961800D01*
X12842857Y-13947514D01*
X12785714Y-13947514D01*
X12757143Y-13961800D01*
X12742857Y-13976086D01*
X12728571Y-14004657D01*
X12728571Y-14076086D01*
X12742857Y-14104657D01*
X12757143Y-14118943D01*
X12785714Y-14133229D01*
X12842857Y-14133229D01*
X12871428Y-14118943D01*
X12885714Y-14104657D01*
X12900000Y-14076086D01*
X13157143Y-14047514D02*
X13157143Y-14247514D01*
X13085714Y-13933229D02*
X13014286Y-14147514D01*
X13200000Y-14147514D01*
X13471428Y-14247514D02*
X13300000Y-14247514D01*
X13385714Y-14247514D02*
X13385714Y-13947514D01*
X13357143Y-13990371D01*
X13328571Y-14018943D01*
X13300000Y-14033229D01*
X13585714Y-13947514D02*
X13585714Y-14004657D01*
X13700000Y-13947514D02*
X13700000Y-14004657D01*
X14142857Y-14361800D02*
X14128571Y-14347514D01*
X14100000Y-14304657D01*
X14085714Y-14276086D01*
X14071428Y-14233229D01*
X14057143Y-14161800D01*
X14057143Y-14104657D01*
X14071428Y-14033229D01*
X14085714Y-13990371D01*
X14100000Y-13961800D01*
X14128571Y-13918943D01*
X14142857Y-13904657D01*
X14414286Y-14247514D02*
X14242857Y-14247514D01*
X14328571Y-14247514D02*
X14328571Y-13947514D01*
X14300000Y-13990371D01*
X14271428Y-14018943D01*
X14242857Y-14033229D01*
X14771428Y-14247514D02*
X14771428Y-13947514D01*
X14900000Y-14247514D02*
X14900000Y-14090371D01*
X14885714Y-14061800D01*
X14857143Y-14047514D01*
X14814286Y-14047514D01*
X14785714Y-14061800D01*
X14771428Y-14076086D01*
X15085714Y-14247514D02*
X15057143Y-14233229D01*
X15042857Y-14218943D01*
X15028571Y-14190371D01*
X15028571Y-14104657D01*
X15042857Y-14076086D01*
X15057143Y-14061800D01*
X15085714Y-14047514D01*
X15128571Y-14047514D01*
X15157143Y-14061800D01*
X15171428Y-14076086D01*
X15185714Y-14104657D01*
X15185714Y-14190371D01*
X15171428Y-14218943D01*
X15157143Y-14233229D01*
X15128571Y-14247514D01*
X15085714Y-14247514D01*
X15357143Y-14247514D02*
X15328571Y-14233229D01*
X15314286Y-14204657D01*
X15314286Y-13947514D01*
X15585714Y-14233229D02*
X15557143Y-14247514D01*
X15500000Y-14247514D01*
X15471428Y-14233229D01*
X15457143Y-14204657D01*
X15457143Y-14090371D01*
X15471428Y-14061800D01*
X15500000Y-14047514D01*
X15557143Y-14047514D01*
X15585714Y-14061800D01*
X15600000Y-14090371D01*
X15600000Y-14118943D01*
X15457143Y-14147514D01*
X15700000Y-14361800D02*
X15714286Y-14347514D01*
X15742857Y-14304657D01*
X15757143Y-14276086D01*
X15771428Y-14233229D01*
X15785714Y-14161800D01*
X15785714Y-14104657D01*
X15771428Y-14033229D01*
X15757143Y-13990371D01*
X15742857Y-13961800D01*
X15714286Y-13918943D01*
X15700000Y-13904657D01*
X16242857Y-14361800D02*
X16228571Y-14347514D01*
X16200000Y-14304657D01*
X16185714Y-14276086D01*
X16171428Y-14233229D01*
X16157143Y-14161800D01*
X16157143Y-14104657D01*
X16171428Y-14033229D01*
X16185714Y-13990371D01*
X16200000Y-13961800D01*
X16228571Y-13918943D01*
X16242857Y-13904657D01*
X16357143Y-14047514D02*
X16357143Y-14247514D01*
X16357143Y-14076086D02*
X16371428Y-14061800D01*
X16400000Y-14047514D01*
X16442857Y-14047514D01*
X16471428Y-14061800D01*
X16485714Y-14090371D01*
X16485714Y-14247514D01*
X16671428Y-14247514D02*
X16642857Y-14233229D01*
X16628571Y-14218943D01*
X16614286Y-14190371D01*
X16614286Y-14104657D01*
X16628571Y-14076086D01*
X16642857Y-14061800D01*
X16671428Y-14047514D01*
X16714286Y-14047514D01*
X16742857Y-14061800D01*
X16757143Y-14076086D01*
X16771428Y-14104657D01*
X16771428Y-14190371D01*
X16757143Y-14218943D01*
X16742857Y-14233229D01*
X16714286Y-14247514D01*
X16671428Y-14247514D01*
X16857143Y-14047514D02*
X16971428Y-14047514D01*
X16900000Y-13947514D02*
X16900000Y-14204657D01*
X16914286Y-14233229D01*
X16942857Y-14247514D01*
X16971428Y-14247514D01*
X17300000Y-14047514D02*
X17300000Y-14347514D01*
X17300000Y-14061800D02*
X17328571Y-14047514D01*
X17385714Y-14047514D01*
X17414286Y-14061800D01*
X17428571Y-14076086D01*
X17442857Y-14104657D01*
X17442857Y-14190371D01*
X17428571Y-14218943D01*
X17414286Y-14233229D01*
X17385714Y-14247514D01*
X17328571Y-14247514D01*
X17300000Y-14233229D01*
X17614286Y-14247514D02*
X17585714Y-14233229D01*
X17571428Y-14204657D01*
X17571428Y-13947514D01*
X17857143Y-14247514D02*
X17857143Y-14090371D01*
X17842857Y-14061800D01*
X17814286Y-14047514D01*
X17757143Y-14047514D01*
X17728571Y-14061800D01*
X17857143Y-14233229D02*
X17828571Y-14247514D01*
X17757143Y-14247514D01*
X17728571Y-14233229D01*
X17714286Y-14204657D01*
X17714286Y-14176086D01*
X17728571Y-14147514D01*
X17757143Y-14133229D01*
X17828571Y-14133229D01*
X17857143Y-14118943D01*
X17957143Y-14047514D02*
X18071428Y-14047514D01*
X18000000Y-13947514D02*
X18000000Y-14204657D01*
X18014286Y-14233229D01*
X18042857Y-14247514D01*
X18071428Y-14247514D01*
X18285714Y-14233229D02*
X18257143Y-14247514D01*
X18200000Y-14247514D01*
X18171428Y-14233229D01*
X18157143Y-14204657D01*
X18157143Y-14090371D01*
X18171428Y-14061800D01*
X18200000Y-14047514D01*
X18257143Y-14047514D01*
X18285714Y-14061800D01*
X18300000Y-14090371D01*
X18300000Y-14118943D01*
X18157143Y-14147514D01*
X18557143Y-14247514D02*
X18557143Y-13947514D01*
X18557143Y-14233229D02*
X18528571Y-14247514D01*
X18471428Y-14247514D01*
X18442857Y-14233229D01*
X18428571Y-14218943D01*
X18414286Y-14190371D01*
X18414286Y-14104657D01*
X18428571Y-14076086D01*
X18442857Y-14061800D01*
X18471428Y-14047514D01*
X18528571Y-14047514D01*
X18557143Y-14061800D01*
X18671428Y-14361800D02*
X18685714Y-14347514D01*
X18714286Y-14304657D01*
X18728571Y-14276086D01*
X18742857Y-14233229D01*
X18757143Y-14161800D01*
X18757143Y-14104657D01*
X18742857Y-14033229D01*
X18728571Y-13990371D01*
X18714286Y-13961800D01*
X18685714Y-13918943D01*
X18671428Y-13904657D01*
X8760000Y-14382800D02*
X8760000Y-14632800D01*
X8635000Y-14507800D02*
X8885000Y-14507800D01*
X9157143Y-14372086D02*
X9171428Y-14357800D01*
X9200000Y-14343514D01*
X9271428Y-14343514D01*
X9300000Y-14357800D01*
X9314286Y-14372086D01*
X9328571Y-14400657D01*
X9328571Y-14429229D01*
X9314286Y-14472086D01*
X9142857Y-14643514D01*
X9328571Y-14643514D01*
X9457143Y-14614943D02*
X9471428Y-14629229D01*
X9457143Y-14643514D01*
X9442857Y-14629229D01*
X9457143Y-14614943D01*
X9457143Y-14643514D01*
X9742857Y-14343514D02*
X9600000Y-14343514D01*
X9585714Y-14486371D01*
X9600000Y-14472086D01*
X9628571Y-14457800D01*
X9700000Y-14457800D01*
X9728571Y-14472086D01*
X9742857Y-14486371D01*
X9757143Y-14514943D01*
X9757143Y-14586371D01*
X9742857Y-14614943D01*
X9728571Y-14629229D01*
X9700000Y-14643514D01*
X9628571Y-14643514D01*
X9600000Y-14629229D01*
X9585714Y-14614943D01*
X9942857Y-14343514D02*
X9971428Y-14343514D01*
X10000000Y-14357800D01*
X10014286Y-14372086D01*
X10028571Y-14400657D01*
X10042857Y-14457800D01*
X10042857Y-14529229D01*
X10028571Y-14586371D01*
X10014286Y-14614943D01*
X10000000Y-14629229D01*
X9971428Y-14643514D01*
X9942857Y-14643514D01*
X9914286Y-14629229D01*
X9900000Y-14614943D01*
X9885714Y-14586371D01*
X9871428Y-14529229D01*
X9871428Y-14457800D01*
X9885714Y-14400657D01*
X9900000Y-14372086D01*
X9914286Y-14357800D01*
X9942857Y-14343514D01*
X10228571Y-14343514D02*
X10257143Y-14343514D01*
X10285714Y-14357800D01*
X10300000Y-14372086D01*
X10314286Y-14400657D01*
X10328571Y-14457800D01*
X10328571Y-14529229D01*
X10314286Y-14586371D01*
X10300000Y-14614943D01*
X10285714Y-14629229D01*
X10257143Y-14643514D01*
X10228571Y-14643514D01*
X10200000Y-14629229D01*
X10185714Y-14614943D01*
X10171428Y-14586371D01*
X10157143Y-14529229D01*
X10157143Y-14457800D01*
X10171428Y-14400657D01*
X10185714Y-14372086D01*
X10200000Y-14357800D01*
X10228571Y-14343514D01*
X10457143Y-14643514D02*
X10457143Y-14443514D01*
X10457143Y-14472086D02*
X10471428Y-14457800D01*
X10500000Y-14443514D01*
X10542857Y-14443514D01*
X10571428Y-14457800D01*
X10585714Y-14486371D01*
X10585714Y-14643514D01*
X10585714Y-14486371D02*
X10600000Y-14457800D01*
X10628571Y-14443514D01*
X10671428Y-14443514D01*
X10700000Y-14457800D01*
X10714286Y-14486371D01*
X10714286Y-14643514D01*
X10857143Y-14643514D02*
X10857143Y-14443514D01*
X10857143Y-14472086D02*
X10871428Y-14457800D01*
X10900000Y-14443514D01*
X10942857Y-14443514D01*
X10971428Y-14457800D01*
X10985714Y-14486371D01*
X10985714Y-14643514D01*
X10985714Y-14486371D02*
X11000000Y-14457800D01*
X11028571Y-14443514D01*
X11071428Y-14443514D01*
X11100000Y-14457800D01*
X11114286Y-14486371D01*
X11114286Y-14643514D01*
X11700000Y-14329229D02*
X11442857Y-14714943D01*
X12085714Y-14343514D02*
X12114286Y-14343514D01*
X12142857Y-14357800D01*
X12157143Y-14372086D01*
X12171428Y-14400657D01*
X12185714Y-14457800D01*
X12185714Y-14529229D01*
X12171428Y-14586371D01*
X12157143Y-14614943D01*
X12142857Y-14629229D01*
X12114286Y-14643514D01*
X12085714Y-14643514D01*
X12057143Y-14629229D01*
X12042857Y-14614943D01*
X12028571Y-14586371D01*
X12014286Y-14529229D01*
X12014286Y-14457800D01*
X12028571Y-14400657D01*
X12042857Y-14372086D01*
X12057143Y-14357800D01*
X12085714Y-14343514D01*
X12314286Y-14614943D02*
X12328571Y-14629229D01*
X12314286Y-14643514D01*
X12300000Y-14629229D01*
X12314286Y-14614943D01*
X12314286Y-14643514D01*
X12514286Y-14343514D02*
X12542857Y-14343514D01*
X12571428Y-14357800D01*
X12585714Y-14372086D01*
X12600000Y-14400657D01*
X12614286Y-14457800D01*
X12614286Y-14529229D01*
X12600000Y-14586371D01*
X12585714Y-14614943D01*
X12571428Y-14629229D01*
X12542857Y-14643514D01*
X12514286Y-14643514D01*
X12485714Y-14629229D01*
X12471428Y-14614943D01*
X12457143Y-14586371D01*
X12442857Y-14529229D01*
X12442857Y-14457800D01*
X12457143Y-14400657D01*
X12471428Y-14372086D01*
X12485714Y-14357800D01*
X12514286Y-14343514D01*
X12757143Y-14643514D02*
X12814286Y-14643514D01*
X12842857Y-14629229D01*
X12857143Y-14614943D01*
X12885714Y-14572086D01*
X12900000Y-14514943D01*
X12900000Y-14400657D01*
X12885714Y-14372086D01*
X12871428Y-14357800D01*
X12842857Y-14343514D01*
X12785714Y-14343514D01*
X12757143Y-14357800D01*
X12742857Y-14372086D01*
X12728571Y-14400657D01*
X12728571Y-14472086D01*
X12742857Y-14500657D01*
X12757143Y-14514943D01*
X12785714Y-14529229D01*
X12842857Y-14529229D01*
X12871428Y-14514943D01*
X12885714Y-14500657D01*
X12900000Y-14472086D01*
X13071428Y-14472086D02*
X13042857Y-14457800D01*
X13028571Y-14443514D01*
X13014286Y-14414943D01*
X13014286Y-14400657D01*
X13028571Y-14372086D01*
X13042857Y-14357800D01*
X13071428Y-14343514D01*
X13128571Y-14343514D01*
X13157143Y-14357800D01*
X13171428Y-14372086D01*
X13185714Y-14400657D01*
X13185714Y-14414943D01*
X13171428Y-14443514D01*
X13157143Y-14457800D01*
X13128571Y-14472086D01*
X13071428Y-14472086D01*
X13042857Y-14486371D01*
X13028571Y-14500657D01*
X13014286Y-14529229D01*
X13014286Y-14586371D01*
X13028571Y-14614943D01*
X13042857Y-14629229D01*
X13071428Y-14643514D01*
X13128571Y-14643514D01*
X13157143Y-14629229D01*
X13171428Y-14614943D01*
X13185714Y-14586371D01*
X13185714Y-14529229D01*
X13171428Y-14500657D01*
X13157143Y-14486371D01*
X13128571Y-14472086D01*
X13442857Y-14443514D02*
X13442857Y-14643514D01*
X13371428Y-14329229D02*
X13300000Y-14543514D01*
X13485714Y-14543514D01*
X13585714Y-14343514D02*
X13585714Y-14400657D01*
X13700000Y-14343514D02*
X13700000Y-14400657D01*
X14142857Y-14757800D02*
X14128571Y-14743514D01*
X14100000Y-14700657D01*
X14085714Y-14672086D01*
X14071428Y-14629229D01*
X14057143Y-14557800D01*
X14057143Y-14500657D01*
X14071428Y-14429229D01*
X14085714Y-14386371D01*
X14100000Y-14357800D01*
X14128571Y-14314943D01*
X14142857Y-14300657D01*
X14385714Y-14443514D02*
X14385714Y-14643514D01*
X14314286Y-14329229D02*
X14242857Y-14543514D01*
X14428571Y-14543514D01*
X14771428Y-14643514D02*
X14771428Y-14343514D01*
X14900000Y-14643514D02*
X14900000Y-14486371D01*
X14885714Y-14457800D01*
X14857143Y-14443514D01*
X14814286Y-14443514D01*
X14785714Y-14457800D01*
X14771428Y-14472086D01*
X15085714Y-14643514D02*
X15057143Y-14629229D01*
X15042857Y-14614943D01*
X15028571Y-14586371D01*
X15028571Y-14500657D01*
X15042857Y-14472086D01*
X15057143Y-14457800D01*
X15085714Y-14443514D01*
X15128571Y-14443514D01*
X15157143Y-14457800D01*
X15171428Y-14472086D01*
X15185714Y-14500657D01*
X15185714Y-14586371D01*
X15171428Y-14614943D01*
X15157143Y-14629229D01*
X15128571Y-14643514D01*
X15085714Y-14643514D01*
X15357143Y-14643514D02*
X15328571Y-14629229D01*
X15314286Y-14600657D01*
X15314286Y-14343514D01*
X15585714Y-14629229D02*
X15557143Y-14643514D01*
X15500000Y-14643514D01*
X15471428Y-14629229D01*
X15457143Y-14600657D01*
X15457143Y-14486371D01*
X15471428Y-14457800D01*
X15500000Y-14443514D01*
X15557143Y-14443514D01*
X15585714Y-14457800D01*
X15600000Y-14486371D01*
X15600000Y-14514943D01*
X15457143Y-14543514D01*
X15714286Y-14629229D02*
X15742857Y-14643514D01*
X15800000Y-14643514D01*
X15828571Y-14629229D01*
X15842857Y-14600657D01*
X15842857Y-14586371D01*
X15828571Y-14557800D01*
X15800000Y-14543514D01*
X15757143Y-14543514D01*
X15728571Y-14529229D01*
X15714286Y-14500657D01*
X15714286Y-14486371D01*
X15728571Y-14457800D01*
X15757143Y-14443514D01*
X15800000Y-14443514D01*
X15828571Y-14457800D01*
X15942857Y-14757800D02*
X15957143Y-14743514D01*
X15985714Y-14700657D01*
X16000000Y-14672086D01*
X16014286Y-14629229D01*
X16028571Y-14557800D01*
X16028571Y-14500657D01*
X16014286Y-14429229D01*
X16000000Y-14386371D01*
X15985714Y-14357800D01*
X15957143Y-14314943D01*
X15942857Y-14300657D01*
X16485714Y-14757800D02*
X16471428Y-14743514D01*
X16442857Y-14700657D01*
X16428571Y-14672086D01*
X16414286Y-14629229D01*
X16400000Y-14557800D01*
X16400000Y-14500657D01*
X16414286Y-14429229D01*
X16428571Y-14386371D01*
X16442857Y-14357800D01*
X16471428Y-14314943D01*
X16485714Y-14300657D01*
X16600000Y-14443514D02*
X16600000Y-14643514D01*
X16600000Y-14472086D02*
X16614286Y-14457800D01*
X16642857Y-14443514D01*
X16685714Y-14443514D01*
X16714286Y-14457800D01*
X16728571Y-14486371D01*
X16728571Y-14643514D01*
X16914286Y-14643514D02*
X16885714Y-14629229D01*
X16871428Y-14614943D01*
X16857143Y-14586371D01*
X16857143Y-14500657D01*
X16871428Y-14472086D01*
X16885714Y-14457800D01*
X16914286Y-14443514D01*
X16957143Y-14443514D01*
X16985714Y-14457800D01*
X17000000Y-14472086D01*
X17014286Y-14500657D01*
X17014286Y-14586371D01*
X17000000Y-14614943D01*
X16985714Y-14629229D01*
X16957143Y-14643514D01*
X16914286Y-14643514D01*
X17100000Y-14443514D02*
X17214286Y-14443514D01*
X17142857Y-14343514D02*
X17142857Y-14600657D01*
X17157143Y-14629229D01*
X17185714Y-14643514D01*
X17214286Y-14643514D01*
X17542857Y-14443514D02*
X17542857Y-14743514D01*
X17542857Y-14457800D02*
X17571428Y-14443514D01*
X17628571Y-14443514D01*
X17657143Y-14457800D01*
X17671428Y-14472086D01*
X17685714Y-14500657D01*
X17685714Y-14586371D01*
X17671428Y-14614943D01*
X17657143Y-14629229D01*
X17628571Y-14643514D01*
X17571428Y-14643514D01*
X17542857Y-14629229D01*
X17857143Y-14643514D02*
X17828571Y-14629229D01*
X17814286Y-14600657D01*
X17814286Y-14343514D01*
X18100000Y-14643514D02*
X18100000Y-14486371D01*
X18085714Y-14457800D01*
X18057143Y-14443514D01*
X18000000Y-14443514D01*
X17971428Y-14457800D01*
X18100000Y-14629229D02*
X18071428Y-14643514D01*
X18000000Y-14643514D01*
X17971428Y-14629229D01*
X17957143Y-14600657D01*
X17957143Y-14572086D01*
X17971428Y-14543514D01*
X18000000Y-14529229D01*
X18071428Y-14529229D01*
X18100000Y-14514943D01*
X18200000Y-14443514D02*
X18314286Y-14443514D01*
X18242857Y-14343514D02*
X18242857Y-14600657D01*
X18257143Y-14629229D01*
X18285714Y-14643514D01*
X18314286Y-14643514D01*
X18528571Y-14629229D02*
X18500000Y-14643514D01*
X18442857Y-14643514D01*
X18414286Y-14629229D01*
X18400000Y-14600657D01*
X18400000Y-14486371D01*
X18414286Y-14457800D01*
X18442857Y-14443514D01*
X18500000Y-14443514D01*
X18528571Y-14457800D01*
X18542857Y-14486371D01*
X18542857Y-14514943D01*
X18400000Y-14543514D01*
X18800000Y-14643514D02*
X18800000Y-14343514D01*
X18800000Y-14629229D02*
X18771428Y-14643514D01*
X18714286Y-14643514D01*
X18685714Y-14629229D01*
X18671428Y-14614943D01*
X18657143Y-14586371D01*
X18657143Y-14500657D01*
X18671428Y-14472086D01*
X18685714Y-14457800D01*
X18714286Y-14443514D01*
X18771428Y-14443514D01*
X18800000Y-14457800D01*
X18914286Y-14757800D02*
X18928571Y-14743514D01*
X18957143Y-14700657D01*
X18971428Y-14672086D01*
X18985714Y-14629229D01*
X19000000Y-14557800D01*
X19000000Y-14500657D01*
X18985714Y-14429229D01*
X18971428Y-14386371D01*
X18957143Y-14357800D01*
X18928571Y-14314943D01*
X18914286Y-14300657D01*
M02*
