G04 #@! TF.GenerationSoftware,KiCad,Pcbnew,(5.1.12)-1*
G04 #@! TF.CreationDate,2022-06-29T22:30:09+05:00*
G04 #@! TF.ProjectId,YNXT-WM01,594e5854-2d57-44d3-9031-2e6b69636164,rev?*
G04 #@! TF.SameCoordinates,Original*
G04 #@! TF.FileFunction,Copper,L2,Bot*
G04 #@! TF.FilePolarity,Positive*
%FSLAX46Y46*%
G04 Gerber Fmt 4.6, Leading zero omitted, Abs format (unit mm)*
G04 Created by KiCad (PCBNEW (5.1.12)-1) date 2022-06-29 22:30:09*
%MOMM*%
%LPD*%
G01*
G04 APERTURE LIST*
G04 #@! TA.AperFunction,SMDPad,CuDef*
%ADD10R,7.340000X6.350000*%
G04 #@! TD*
G04 #@! TA.AperFunction,ComponentPad*
%ADD11R,1.700000X1.700000*%
G04 #@! TD*
G04 #@! TA.AperFunction,ComponentPad*
%ADD12O,1.700000X1.700000*%
G04 #@! TD*
G04 #@! TA.AperFunction,SMDPad,CuDef*
%ADD13O,1.750000X4.500000*%
G04 #@! TD*
G04 #@! TA.AperFunction,ComponentPad*
%ADD14C,2.100000*%
G04 #@! TD*
G04 #@! TA.AperFunction,ComponentPad*
%ADD15R,2.100000X2.100000*%
G04 #@! TD*
G04 #@! TA.AperFunction,SMDPad,CuDef*
%ADD16R,1.700000X1.000000*%
G04 #@! TD*
G04 #@! TA.AperFunction,ComponentPad*
%ADD17O,1.000000X1.600000*%
G04 #@! TD*
G04 #@! TA.AperFunction,ComponentPad*
%ADD18O,1.000000X2.100000*%
G04 #@! TD*
G04 #@! TA.AperFunction,SMDPad,CuDef*
%ADD19R,0.300000X1.450000*%
G04 #@! TD*
G04 #@! TA.AperFunction,SMDPad,CuDef*
%ADD20R,0.600000X1.450000*%
G04 #@! TD*
G04 #@! TA.AperFunction,ViaPad*
%ADD21C,0.800000*%
G04 #@! TD*
G04 #@! TA.AperFunction,Conductor*
%ADD22C,1.000000*%
G04 #@! TD*
G04 #@! TA.AperFunction,Conductor*
%ADD23C,0.500000*%
G04 #@! TD*
G04 #@! TA.AperFunction,Conductor*
%ADD24C,0.250000*%
G04 #@! TD*
G04 #@! TA.AperFunction,Conductor*
%ADD25C,0.254000*%
G04 #@! TD*
G04 #@! TA.AperFunction,Conductor*
%ADD26C,0.100000*%
G04 #@! TD*
G04 APERTURE END LIST*
D10*
X93888001Y-112455001D03*
X172548001Y-112455001D03*
D11*
X115570000Y-125603000D03*
D12*
X118110000Y-125603000D03*
X120650000Y-125603000D03*
X123190000Y-125603000D03*
X125730000Y-125603000D03*
D13*
X153771000Y-96774000D03*
X150521000Y-96774000D03*
D14*
X146558000Y-96774000D03*
D15*
X144018000Y-96774000D03*
G04 #@! TA.AperFunction,SMDPad,CuDef*
G36*
G01*
X108465500Y-99564000D02*
X108465500Y-99064000D01*
G75*
G02*
X108690500Y-98839000I225000J0D01*
G01*
X109140500Y-98839000D01*
G75*
G02*
X109365500Y-99064000I0J-225000D01*
G01*
X109365500Y-99564000D01*
G75*
G02*
X109140500Y-99789000I-225000J0D01*
G01*
X108690500Y-99789000D01*
G75*
G02*
X108465500Y-99564000I0J225000D01*
G01*
G37*
G04 #@! TD.AperFunction*
G04 #@! TA.AperFunction,SMDPad,CuDef*
G36*
G01*
X106915500Y-99564000D02*
X106915500Y-99064000D01*
G75*
G02*
X107140500Y-98839000I225000J0D01*
G01*
X107590500Y-98839000D01*
G75*
G02*
X107815500Y-99064000I0J-225000D01*
G01*
X107815500Y-99564000D01*
G75*
G02*
X107590500Y-99789000I-225000J0D01*
G01*
X107140500Y-99789000D01*
G75*
G02*
X106915500Y-99564000I0J225000D01*
G01*
G37*
G04 #@! TD.AperFunction*
G04 #@! TA.AperFunction,SMDPad,CuDef*
G36*
G01*
X167380200Y-97728750D02*
X167380200Y-97216250D01*
G75*
G02*
X167598950Y-96997500I218750J0D01*
G01*
X168036450Y-96997500D01*
G75*
G02*
X168255200Y-97216250I0J-218750D01*
G01*
X168255200Y-97728750D01*
G75*
G02*
X168036450Y-97947500I-218750J0D01*
G01*
X167598950Y-97947500D01*
G75*
G02*
X167380200Y-97728750I0J218750D01*
G01*
G37*
G04 #@! TD.AperFunction*
G04 #@! TA.AperFunction,SMDPad,CuDef*
G36*
G01*
X168955200Y-97728750D02*
X168955200Y-97216250D01*
G75*
G02*
X169173950Y-96997500I218750J0D01*
G01*
X169611450Y-96997500D01*
G75*
G02*
X169830200Y-97216250I0J-218750D01*
G01*
X169830200Y-97728750D01*
G75*
G02*
X169611450Y-97947500I-218750J0D01*
G01*
X169173950Y-97947500D01*
G75*
G02*
X168955200Y-97728750I0J218750D01*
G01*
G37*
G04 #@! TD.AperFunction*
X114300000Y-96774000D03*
D14*
X116840000Y-96774000D03*
X119380000Y-96774000D03*
X129032000Y-96774000D03*
X126492000Y-96774000D03*
D15*
X123952000Y-96774000D03*
X133604000Y-96774000D03*
D14*
X136144000Y-96774000D03*
X138684000Y-96774000D03*
G04 #@! TA.AperFunction,SMDPad,CuDef*
G36*
G01*
X107727700Y-94174900D02*
X107727700Y-94724900D01*
G75*
G02*
X107527700Y-94924900I-200000J0D01*
G01*
X107127700Y-94924900D01*
G75*
G02*
X106927700Y-94724900I0J200000D01*
G01*
X106927700Y-94174900D01*
G75*
G02*
X107127700Y-93974900I200000J0D01*
G01*
X107527700Y-93974900D01*
G75*
G02*
X107727700Y-94174900I0J-200000D01*
G01*
G37*
G04 #@! TD.AperFunction*
G04 #@! TA.AperFunction,SMDPad,CuDef*
G36*
G01*
X109377700Y-94174900D02*
X109377700Y-94724900D01*
G75*
G02*
X109177700Y-94924900I-200000J0D01*
G01*
X108777700Y-94924900D01*
G75*
G02*
X108577700Y-94724900I0J200000D01*
G01*
X108577700Y-94174900D01*
G75*
G02*
X108777700Y-93974900I200000J0D01*
G01*
X109177700Y-93974900D01*
G75*
G02*
X109377700Y-94174900I0J-200000D01*
G01*
G37*
G04 #@! TD.AperFunction*
G04 #@! TA.AperFunction,SMDPad,CuDef*
G36*
G01*
X167380200Y-96160000D02*
X167380200Y-95610000D01*
G75*
G02*
X167580200Y-95410000I200000J0D01*
G01*
X167980200Y-95410000D01*
G75*
G02*
X168180200Y-95610000I0J-200000D01*
G01*
X168180200Y-96160000D01*
G75*
G02*
X167980200Y-96360000I-200000J0D01*
G01*
X167580200Y-96360000D01*
G75*
G02*
X167380200Y-96160000I0J200000D01*
G01*
G37*
G04 #@! TD.AperFunction*
G04 #@! TA.AperFunction,SMDPad,CuDef*
G36*
G01*
X169030200Y-96160000D02*
X169030200Y-95610000D01*
G75*
G02*
X169230200Y-95410000I200000J0D01*
G01*
X169630200Y-95410000D01*
G75*
G02*
X169830200Y-95610000I0J-200000D01*
G01*
X169830200Y-96160000D01*
G75*
G02*
X169630200Y-96360000I-200000J0D01*
G01*
X169230200Y-96360000D01*
G75*
G02*
X169030200Y-96160000I0J200000D01*
G01*
G37*
G04 #@! TD.AperFunction*
D16*
X103480000Y-94874000D03*
X97180000Y-94874000D03*
X103480000Y-98674000D03*
X97180000Y-98674000D03*
G04 #@! TA.AperFunction,SMDPad,CuDef*
G36*
G01*
X109378200Y-97432150D02*
X109378200Y-97944650D01*
G75*
G02*
X109159450Y-98163400I-218750J0D01*
G01*
X108721950Y-98163400D01*
G75*
G02*
X108503200Y-97944650I0J218750D01*
G01*
X108503200Y-97432150D01*
G75*
G02*
X108721950Y-97213400I218750J0D01*
G01*
X109159450Y-97213400D01*
G75*
G02*
X109378200Y-97432150I0J-218750D01*
G01*
G37*
G04 #@! TD.AperFunction*
G04 #@! TA.AperFunction,SMDPad,CuDef*
G36*
G01*
X107803200Y-97432150D02*
X107803200Y-97944650D01*
G75*
G02*
X107584450Y-98163400I-218750J0D01*
G01*
X107146950Y-98163400D01*
G75*
G02*
X106928200Y-97944650I0J218750D01*
G01*
X106928200Y-97432150D01*
G75*
G02*
X107146950Y-97213400I218750J0D01*
G01*
X107584450Y-97213400D01*
G75*
G02*
X107803200Y-97432150I0J-218750D01*
G01*
G37*
G04 #@! TD.AperFunction*
G04 #@! TA.AperFunction,SMDPad,CuDef*
G36*
G01*
X106928200Y-96312400D02*
X106928200Y-95762400D01*
G75*
G02*
X107128200Y-95562400I200000J0D01*
G01*
X107528200Y-95562400D01*
G75*
G02*
X107728200Y-95762400I0J-200000D01*
G01*
X107728200Y-96312400D01*
G75*
G02*
X107528200Y-96512400I-200000J0D01*
G01*
X107128200Y-96512400D01*
G75*
G02*
X106928200Y-96312400I0J200000D01*
G01*
G37*
G04 #@! TD.AperFunction*
G04 #@! TA.AperFunction,SMDPad,CuDef*
G36*
G01*
X108578200Y-96312400D02*
X108578200Y-95762400D01*
G75*
G02*
X108778200Y-95562400I200000J0D01*
G01*
X109178200Y-95562400D01*
G75*
G02*
X109378200Y-95762400I0J-200000D01*
G01*
X109378200Y-96312400D01*
G75*
G02*
X109178200Y-96512400I-200000J0D01*
G01*
X108778200Y-96512400D01*
G75*
G02*
X108578200Y-96312400I0J200000D01*
G01*
G37*
G04 #@! TD.AperFunction*
D17*
X165102000Y-95216000D03*
X156462000Y-95216000D03*
D18*
X156462000Y-99396000D03*
X165102000Y-99396000D03*
D19*
X160532000Y-100311000D03*
X162532000Y-100311000D03*
X162032000Y-100311000D03*
X161532000Y-100311000D03*
X161032000Y-100311000D03*
X160032000Y-100311000D03*
X159532000Y-100311000D03*
X159032000Y-100311000D03*
D20*
X164032000Y-100311000D03*
X163232000Y-100311000D03*
X158332000Y-100311000D03*
X157532000Y-100311000D03*
X157532000Y-100311000D03*
X158332000Y-100311000D03*
X163232000Y-100311000D03*
X164032000Y-100311000D03*
D11*
X134366000Y-125603000D03*
D12*
X136906000Y-125603000D03*
X139446000Y-125603000D03*
X141986000Y-125603000D03*
X144526000Y-125603000D03*
X147066000Y-125603000D03*
X149606000Y-125603000D03*
X152146000Y-125603000D03*
X154686000Y-125603000D03*
D21*
X154749500Y-103695500D03*
X120693510Y-101199010D03*
X95631000Y-107950000D03*
X92837000Y-117411500D03*
X167894000Y-113030000D03*
X157099000Y-110998000D03*
X164909500Y-106934000D03*
X110045500Y-100203000D03*
X113220500Y-100965000D03*
X118872000Y-123317000D03*
X150431500Y-100012500D03*
X149796500Y-104394000D03*
X167767000Y-98869500D03*
X153797000Y-100012500D03*
X120238000Y-106903000D03*
X131000500Y-104013000D03*
X117284500Y-106870500D03*
X110934500Y-122809000D03*
X110807500Y-96647000D03*
D22*
X93380001Y-112455001D02*
X93380001Y-107280001D01*
X93380001Y-107280001D02*
X97897012Y-102762990D01*
D23*
X93567002Y-112268000D02*
X93380001Y-112455001D01*
D22*
X153816990Y-102762990D02*
X154749500Y-103695500D01*
D23*
X120693510Y-102762990D02*
X120693510Y-101199010D01*
D22*
X97897012Y-102762990D02*
X120693510Y-102762990D01*
X120693510Y-102762990D02*
X153816990Y-102762990D01*
D23*
X120693510Y-101199010D02*
X120693510Y-101199010D01*
X93888001Y-112455001D02*
X93888001Y-112105999D01*
X95631000Y-110363000D02*
X95631000Y-107950000D01*
X93888001Y-112105999D02*
X95631000Y-110363000D01*
X92837000Y-113506002D02*
X93888001Y-112455001D01*
X92837000Y-117411500D02*
X92837000Y-113506002D01*
D22*
X172548001Y-112455001D02*
X169738999Y-112455001D01*
D23*
X171973002Y-113030000D02*
X172548001Y-112455001D01*
X167894000Y-113030000D02*
X171973002Y-113030000D01*
D24*
X167894000Y-113030000D02*
X159131000Y-113030000D01*
X159131000Y-113030000D02*
X157099000Y-110998000D01*
D23*
X163232000Y-101446000D02*
X163232000Y-100311000D01*
X163191999Y-101486001D02*
X163232000Y-101446000D01*
X158521999Y-101486001D02*
X163191999Y-101486001D01*
X158332000Y-101296002D02*
X158521999Y-101486001D01*
X158332000Y-100311000D02*
X158332000Y-101296002D01*
D24*
X167324190Y-96341010D02*
X167780200Y-95885000D01*
X164961490Y-96341010D02*
X167324190Y-96341010D01*
X163021999Y-98280501D02*
X164961490Y-96341010D01*
X163021999Y-100100999D02*
X163021999Y-98280501D01*
X163232000Y-100311000D02*
X163021999Y-100100999D01*
D23*
X163191999Y-101486001D02*
X163191999Y-105216499D01*
X163191999Y-105216499D02*
X164909500Y-106934000D01*
X157377000Y-100311000D02*
X156462000Y-99396000D01*
X157532000Y-100311000D02*
X157377000Y-100311000D01*
X164187000Y-100311000D02*
X165102000Y-99396000D01*
X164032000Y-100311000D02*
X164187000Y-100311000D01*
D24*
X108915500Y-97713600D02*
X108940700Y-97688400D01*
X108915500Y-99314000D02*
X108915500Y-97713600D01*
X108915500Y-99314000D02*
X109156500Y-99314000D01*
X109156500Y-99314000D02*
X110045500Y-100203000D01*
X97180000Y-98674000D02*
X103480000Y-98674000D01*
X106725500Y-98674000D02*
X107365500Y-99314000D01*
X103480000Y-98674000D02*
X106725500Y-98674000D01*
X109016500Y-100965000D02*
X113220500Y-100965000D01*
X107365500Y-99314000D02*
X109016500Y-100965000D01*
D23*
X125730000Y-125603000D02*
X123444000Y-123317000D01*
X123444000Y-123317000D02*
X118872000Y-123317000D01*
D24*
X150495000Y-96800000D02*
X150521000Y-96774000D01*
X150521000Y-95339500D02*
X150521000Y-96774000D01*
X114300000Y-96774000D02*
X112776000Y-96774000D01*
X110451900Y-94449900D02*
X108977700Y-94449900D01*
X112776000Y-96774000D02*
X110451900Y-94449900D01*
D23*
X150431500Y-96863500D02*
X150521000Y-96774000D01*
X150431500Y-100012500D02*
X150431500Y-96863500D01*
X114300000Y-96774000D02*
X114300000Y-94170500D01*
X114300000Y-94170500D02*
X114744500Y-93726000D01*
X147473000Y-93726000D02*
X150521000Y-96774000D01*
X133604000Y-93980000D02*
X133858000Y-93726000D01*
X133604000Y-96774000D02*
X133604000Y-93980000D01*
X133858000Y-93726000D02*
X147473000Y-93726000D01*
X123952000Y-93853000D02*
X123825000Y-93726000D01*
X123952000Y-96774000D02*
X123952000Y-93853000D01*
X123825000Y-93726000D02*
X133858000Y-93726000D01*
X114744500Y-93726000D02*
X123825000Y-93726000D01*
X125730000Y-125603000D02*
X127000000Y-125603000D01*
X127000000Y-125603000D02*
X131572000Y-121031000D01*
X131572000Y-121031000D02*
X131572000Y-105727500D01*
X131572000Y-105727500D02*
X132905500Y-104394000D01*
X132905500Y-104394000D02*
X149796500Y-104394000D01*
D24*
X167767000Y-97523200D02*
X167817700Y-97472500D01*
X167767000Y-98869500D02*
X167767000Y-97523200D01*
X169392700Y-95922500D02*
X169430200Y-95885000D01*
X169392700Y-97472500D02*
X169392700Y-95922500D01*
X117221000Y-97663000D02*
X116840000Y-97663000D01*
X117221000Y-97663000D02*
X117094000Y-97663000D01*
D23*
X153797000Y-96800000D02*
X153771000Y-96774000D01*
X153797000Y-100012500D02*
X153797000Y-96800000D01*
D24*
X97180000Y-94874000D02*
X103480000Y-94874000D01*
X106903600Y-94874000D02*
X107327700Y-94449900D01*
X103480000Y-94874000D02*
X106903600Y-94874000D01*
X120238000Y-106903000D02*
X128110500Y-106903000D01*
X128110500Y-106903000D02*
X131000500Y-104013000D01*
X117284500Y-106870500D02*
X115062000Y-109093000D01*
X115062000Y-109093000D02*
X115062000Y-119253000D01*
X115062000Y-119253000D02*
X115062000Y-119634000D01*
X115062000Y-119634000D02*
X111887000Y-122809000D01*
X111887000Y-122809000D02*
X110934500Y-122809000D01*
X107328200Y-97650900D02*
X107365700Y-97688400D01*
X107328200Y-96037400D02*
X107328200Y-97650900D01*
X110197900Y-96037400D02*
X110807500Y-96647000D01*
X108978200Y-96037400D02*
X110197900Y-96037400D01*
D25*
X176153000Y-108951419D02*
X168878001Y-108951419D01*
X168813898Y-108957733D01*
X168752258Y-108976431D01*
X168695451Y-109006795D01*
X168645658Y-109047658D01*
X168604795Y-109097451D01*
X168574431Y-109154258D01*
X168555733Y-109215898D01*
X168549419Y-109280001D01*
X168549419Y-112453000D01*
X168339025Y-112453000D01*
X168238364Y-112385741D01*
X168106058Y-112330938D01*
X167965603Y-112303000D01*
X167822397Y-112303000D01*
X167681942Y-112330938D01*
X167549636Y-112385741D01*
X167430564Y-112465302D01*
X167329302Y-112566564D01*
X167321661Y-112578000D01*
X159318224Y-112578000D01*
X157823317Y-111083093D01*
X157826000Y-111069603D01*
X157826000Y-110926397D01*
X157798062Y-110785942D01*
X157743259Y-110653636D01*
X157663698Y-110534564D01*
X157562436Y-110433302D01*
X157443364Y-110353741D01*
X157311058Y-110298938D01*
X157170603Y-110271000D01*
X157027397Y-110271000D01*
X156886942Y-110298938D01*
X156754636Y-110353741D01*
X156635564Y-110433302D01*
X156534302Y-110534564D01*
X156454741Y-110653636D01*
X156399938Y-110785942D01*
X156372000Y-110926397D01*
X156372000Y-111069603D01*
X156399938Y-111210058D01*
X156454741Y-111342364D01*
X156534302Y-111461436D01*
X156635564Y-111562698D01*
X156754636Y-111642259D01*
X156886942Y-111697062D01*
X157027397Y-111725000D01*
X157170603Y-111725000D01*
X157184093Y-111722317D01*
X158795681Y-113333905D01*
X158809841Y-113351159D01*
X158878667Y-113407643D01*
X158939155Y-113439974D01*
X158957190Y-113449614D01*
X159042392Y-113475460D01*
X159131000Y-113484187D01*
X159153205Y-113482000D01*
X167321661Y-113482000D01*
X167329302Y-113493436D01*
X167430564Y-113594698D01*
X167549636Y-113674259D01*
X167681942Y-113729062D01*
X167822397Y-113757000D01*
X167965603Y-113757000D01*
X168106058Y-113729062D01*
X168238364Y-113674259D01*
X168339025Y-113607000D01*
X168549419Y-113607000D01*
X168549419Y-115630001D01*
X168555733Y-115694104D01*
X168574431Y-115755744D01*
X168604795Y-115812551D01*
X168645658Y-115862344D01*
X168695451Y-115903207D01*
X168752258Y-115933571D01*
X168813898Y-115952269D01*
X168878001Y-115958583D01*
X176153001Y-115958583D01*
X176153001Y-127131000D01*
X89277000Y-127131000D01*
X89277000Y-126453000D01*
X114081928Y-126453000D01*
X114094188Y-126577482D01*
X114130498Y-126697180D01*
X114189463Y-126807494D01*
X114268815Y-126904185D01*
X114365506Y-126983537D01*
X114475820Y-127042502D01*
X114595518Y-127078812D01*
X114720000Y-127091072D01*
X115284250Y-127088000D01*
X115443000Y-126929250D01*
X115443000Y-125730000D01*
X114243750Y-125730000D01*
X114085000Y-125888750D01*
X114081928Y-126453000D01*
X89277000Y-126453000D01*
X89277000Y-124431679D01*
X90244000Y-124431679D01*
X90244000Y-124742321D01*
X90304604Y-125046994D01*
X90423481Y-125333989D01*
X90596064Y-125592279D01*
X90815721Y-125811936D01*
X91074011Y-125984519D01*
X91361006Y-126103396D01*
X91665679Y-126164000D01*
X91976321Y-126164000D01*
X92280994Y-126103396D01*
X92567989Y-125984519D01*
X92826279Y-125811936D01*
X93045936Y-125592279D01*
X93218519Y-125333989D01*
X93337396Y-125046994D01*
X93395875Y-124753000D01*
X114081928Y-124753000D01*
X114085000Y-125317250D01*
X114243750Y-125476000D01*
X115443000Y-125476000D01*
X115443000Y-124276750D01*
X115697000Y-124276750D01*
X115697000Y-125476000D01*
X115717000Y-125476000D01*
X115717000Y-125730000D01*
X115697000Y-125730000D01*
X115697000Y-126929250D01*
X115855750Y-127088000D01*
X116420000Y-127091072D01*
X116544482Y-127078812D01*
X116664180Y-127042502D01*
X116774494Y-126983537D01*
X116871185Y-126904185D01*
X116950537Y-126807494D01*
X117009502Y-126697180D01*
X117045812Y-126577482D01*
X117058072Y-126453000D01*
X117056340Y-126134890D01*
X117066956Y-126160519D01*
X117195764Y-126353294D01*
X117359706Y-126517236D01*
X117552481Y-126646044D01*
X117766682Y-126734769D01*
X117994076Y-126780000D01*
X118225924Y-126780000D01*
X118453318Y-126734769D01*
X118667519Y-126646044D01*
X118860294Y-126517236D01*
X119024236Y-126353294D01*
X119153044Y-126160519D01*
X119241769Y-125946318D01*
X119287000Y-125718924D01*
X119287000Y-125487076D01*
X119473000Y-125487076D01*
X119473000Y-125718924D01*
X119518231Y-125946318D01*
X119606956Y-126160519D01*
X119735764Y-126353294D01*
X119899706Y-126517236D01*
X120092481Y-126646044D01*
X120306682Y-126734769D01*
X120534076Y-126780000D01*
X120765924Y-126780000D01*
X120993318Y-126734769D01*
X121207519Y-126646044D01*
X121400294Y-126517236D01*
X121564236Y-126353294D01*
X121693044Y-126160519D01*
X121781769Y-125946318D01*
X121827000Y-125718924D01*
X121827000Y-125487076D01*
X122013000Y-125487076D01*
X122013000Y-125718924D01*
X122058231Y-125946318D01*
X122146956Y-126160519D01*
X122275764Y-126353294D01*
X122439706Y-126517236D01*
X122632481Y-126646044D01*
X122846682Y-126734769D01*
X123074076Y-126780000D01*
X123305924Y-126780000D01*
X123533318Y-126734769D01*
X123747519Y-126646044D01*
X123940294Y-126517236D01*
X124104236Y-126353294D01*
X124233044Y-126160519D01*
X124321769Y-125946318D01*
X124367000Y-125718924D01*
X124367000Y-125487076D01*
X124321769Y-125259682D01*
X124233044Y-125045481D01*
X124104236Y-124852706D01*
X123940294Y-124688764D01*
X123747519Y-124559956D01*
X123533318Y-124471231D01*
X123305924Y-124426000D01*
X123074076Y-124426000D01*
X122846682Y-124471231D01*
X122632481Y-124559956D01*
X122439706Y-124688764D01*
X122275764Y-124852706D01*
X122146956Y-125045481D01*
X122058231Y-125259682D01*
X122013000Y-125487076D01*
X121827000Y-125487076D01*
X121781769Y-125259682D01*
X121693044Y-125045481D01*
X121564236Y-124852706D01*
X121400294Y-124688764D01*
X121207519Y-124559956D01*
X120993318Y-124471231D01*
X120765924Y-124426000D01*
X120534076Y-124426000D01*
X120306682Y-124471231D01*
X120092481Y-124559956D01*
X119899706Y-124688764D01*
X119735764Y-124852706D01*
X119606956Y-125045481D01*
X119518231Y-125259682D01*
X119473000Y-125487076D01*
X119287000Y-125487076D01*
X119241769Y-125259682D01*
X119153044Y-125045481D01*
X119024236Y-124852706D01*
X118860294Y-124688764D01*
X118667519Y-124559956D01*
X118453318Y-124471231D01*
X118225924Y-124426000D01*
X117994076Y-124426000D01*
X117766682Y-124471231D01*
X117552481Y-124559956D01*
X117359706Y-124688764D01*
X117195764Y-124852706D01*
X117066956Y-125045481D01*
X117056340Y-125071110D01*
X117058072Y-124753000D01*
X117045812Y-124628518D01*
X117009502Y-124508820D01*
X116950537Y-124398506D01*
X116871185Y-124301815D01*
X116774494Y-124222463D01*
X116664180Y-124163498D01*
X116544482Y-124127188D01*
X116420000Y-124114928D01*
X115855750Y-124118000D01*
X115697000Y-124276750D01*
X115443000Y-124276750D01*
X115284250Y-124118000D01*
X114720000Y-124114928D01*
X114595518Y-124127188D01*
X114475820Y-124163498D01*
X114365506Y-124222463D01*
X114268815Y-124301815D01*
X114189463Y-124398506D01*
X114130498Y-124508820D01*
X114094188Y-124628518D01*
X114081928Y-124753000D01*
X93395875Y-124753000D01*
X93398000Y-124742321D01*
X93398000Y-124431679D01*
X93337396Y-124127006D01*
X93218519Y-123840011D01*
X93045936Y-123581721D01*
X92826279Y-123362064D01*
X92567989Y-123189481D01*
X92280994Y-123070604D01*
X91976321Y-123010000D01*
X91665679Y-123010000D01*
X91361006Y-123070604D01*
X91074011Y-123189481D01*
X90815721Y-123362064D01*
X90596064Y-123581721D01*
X90423481Y-123840011D01*
X90304604Y-124127006D01*
X90244000Y-124431679D01*
X89277000Y-124431679D01*
X89277000Y-122737397D01*
X110207500Y-122737397D01*
X110207500Y-122880603D01*
X110235438Y-123021058D01*
X110290241Y-123153364D01*
X110369802Y-123272436D01*
X110471064Y-123373698D01*
X110590136Y-123453259D01*
X110722442Y-123508062D01*
X110862897Y-123536000D01*
X111006103Y-123536000D01*
X111146558Y-123508062D01*
X111278864Y-123453259D01*
X111397936Y-123373698D01*
X111499198Y-123272436D01*
X111506839Y-123261000D01*
X111864795Y-123261000D01*
X111887000Y-123263187D01*
X111909205Y-123261000D01*
X111975607Y-123254460D01*
X112005483Y-123245397D01*
X118145000Y-123245397D01*
X118145000Y-123388603D01*
X118172938Y-123529058D01*
X118227741Y-123661364D01*
X118307302Y-123780436D01*
X118408564Y-123881698D01*
X118527636Y-123961259D01*
X118659942Y-124016062D01*
X118800397Y-124044000D01*
X118943603Y-124044000D01*
X119084058Y-124016062D01*
X119216364Y-123961259D01*
X119317025Y-123894000D01*
X123204999Y-123894000D01*
X124593660Y-125282662D01*
X124553000Y-125487076D01*
X124553000Y-125718924D01*
X124598231Y-125946318D01*
X124686956Y-126160519D01*
X124815764Y-126353294D01*
X124979706Y-126517236D01*
X125172481Y-126646044D01*
X125386682Y-126734769D01*
X125614076Y-126780000D01*
X125845924Y-126780000D01*
X126073318Y-126734769D01*
X126287519Y-126646044D01*
X126480294Y-126517236D01*
X126644236Y-126353294D01*
X126760027Y-126180000D01*
X126971669Y-126180000D01*
X127000000Y-126182790D01*
X127028331Y-126180000D01*
X127028336Y-126180000D01*
X127058045Y-126177074D01*
X127113111Y-126171651D01*
X127157770Y-126158103D01*
X127221876Y-126138657D01*
X127322115Y-126085079D01*
X127409974Y-126012974D01*
X127428039Y-125990962D01*
X128666001Y-124753000D01*
X133187418Y-124753000D01*
X133187418Y-126453000D01*
X133193732Y-126517103D01*
X133212430Y-126578743D01*
X133242794Y-126635550D01*
X133283657Y-126685343D01*
X133333450Y-126726206D01*
X133390257Y-126756570D01*
X133451897Y-126775268D01*
X133516000Y-126781582D01*
X135216000Y-126781582D01*
X135280103Y-126775268D01*
X135341743Y-126756570D01*
X135398550Y-126726206D01*
X135448343Y-126685343D01*
X135489206Y-126635550D01*
X135519570Y-126578743D01*
X135538268Y-126517103D01*
X135544582Y-126453000D01*
X135544582Y-125487076D01*
X135729000Y-125487076D01*
X135729000Y-125718924D01*
X135774231Y-125946318D01*
X135862956Y-126160519D01*
X135991764Y-126353294D01*
X136155706Y-126517236D01*
X136348481Y-126646044D01*
X136562682Y-126734769D01*
X136790076Y-126780000D01*
X137021924Y-126780000D01*
X137249318Y-126734769D01*
X137463519Y-126646044D01*
X137656294Y-126517236D01*
X137820236Y-126353294D01*
X137949044Y-126160519D01*
X138037769Y-125946318D01*
X138083000Y-125718924D01*
X138083000Y-125487076D01*
X138269000Y-125487076D01*
X138269000Y-125718924D01*
X138314231Y-125946318D01*
X138402956Y-126160519D01*
X138531764Y-126353294D01*
X138695706Y-126517236D01*
X138888481Y-126646044D01*
X139102682Y-126734769D01*
X139330076Y-126780000D01*
X139561924Y-126780000D01*
X139789318Y-126734769D01*
X140003519Y-126646044D01*
X140196294Y-126517236D01*
X140360236Y-126353294D01*
X140489044Y-126160519D01*
X140577769Y-125946318D01*
X140623000Y-125718924D01*
X140623000Y-125487076D01*
X140809000Y-125487076D01*
X140809000Y-125718924D01*
X140854231Y-125946318D01*
X140942956Y-126160519D01*
X141071764Y-126353294D01*
X141235706Y-126517236D01*
X141428481Y-126646044D01*
X141642682Y-126734769D01*
X141870076Y-126780000D01*
X142101924Y-126780000D01*
X142329318Y-126734769D01*
X142543519Y-126646044D01*
X142736294Y-126517236D01*
X142900236Y-126353294D01*
X143029044Y-126160519D01*
X143117769Y-125946318D01*
X143163000Y-125718924D01*
X143163000Y-125487076D01*
X143349000Y-125487076D01*
X143349000Y-125718924D01*
X143394231Y-125946318D01*
X143482956Y-126160519D01*
X143611764Y-126353294D01*
X143775706Y-126517236D01*
X143968481Y-126646044D01*
X144182682Y-126734769D01*
X144410076Y-126780000D01*
X144641924Y-126780000D01*
X144869318Y-126734769D01*
X145083519Y-126646044D01*
X145276294Y-126517236D01*
X145440236Y-126353294D01*
X145569044Y-126160519D01*
X145657769Y-125946318D01*
X145703000Y-125718924D01*
X145703000Y-125487076D01*
X145889000Y-125487076D01*
X145889000Y-125718924D01*
X145934231Y-125946318D01*
X146022956Y-126160519D01*
X146151764Y-126353294D01*
X146315706Y-126517236D01*
X146508481Y-126646044D01*
X146722682Y-126734769D01*
X146950076Y-126780000D01*
X147181924Y-126780000D01*
X147409318Y-126734769D01*
X147623519Y-126646044D01*
X147816294Y-126517236D01*
X147980236Y-126353294D01*
X148109044Y-126160519D01*
X148197769Y-125946318D01*
X148243000Y-125718924D01*
X148243000Y-125487076D01*
X148429000Y-125487076D01*
X148429000Y-125718924D01*
X148474231Y-125946318D01*
X148562956Y-126160519D01*
X148691764Y-126353294D01*
X148855706Y-126517236D01*
X149048481Y-126646044D01*
X149262682Y-126734769D01*
X149490076Y-126780000D01*
X149721924Y-126780000D01*
X149949318Y-126734769D01*
X150163519Y-126646044D01*
X150356294Y-126517236D01*
X150520236Y-126353294D01*
X150649044Y-126160519D01*
X150737769Y-125946318D01*
X150783000Y-125718924D01*
X150783000Y-125487076D01*
X150969000Y-125487076D01*
X150969000Y-125718924D01*
X151014231Y-125946318D01*
X151102956Y-126160519D01*
X151231764Y-126353294D01*
X151395706Y-126517236D01*
X151588481Y-126646044D01*
X151802682Y-126734769D01*
X152030076Y-126780000D01*
X152261924Y-126780000D01*
X152489318Y-126734769D01*
X152703519Y-126646044D01*
X152896294Y-126517236D01*
X153060236Y-126353294D01*
X153189044Y-126160519D01*
X153277769Y-125946318D01*
X153323000Y-125718924D01*
X153323000Y-125487076D01*
X153509000Y-125487076D01*
X153509000Y-125718924D01*
X153554231Y-125946318D01*
X153642956Y-126160519D01*
X153771764Y-126353294D01*
X153935706Y-126517236D01*
X154128481Y-126646044D01*
X154342682Y-126734769D01*
X154570076Y-126780000D01*
X154801924Y-126780000D01*
X155029318Y-126734769D01*
X155243519Y-126646044D01*
X155436294Y-126517236D01*
X155600236Y-126353294D01*
X155729044Y-126160519D01*
X155817769Y-125946318D01*
X155863000Y-125718924D01*
X155863000Y-125487076D01*
X155817769Y-125259682D01*
X155729044Y-125045481D01*
X155600236Y-124852706D01*
X155436294Y-124688764D01*
X155243519Y-124559956D01*
X155029318Y-124471231D01*
X154830475Y-124431679D01*
X172032000Y-124431679D01*
X172032000Y-124742321D01*
X172092604Y-125046994D01*
X172211481Y-125333989D01*
X172384064Y-125592279D01*
X172603721Y-125811936D01*
X172862011Y-125984519D01*
X173149006Y-126103396D01*
X173453679Y-126164000D01*
X173764321Y-126164000D01*
X174068994Y-126103396D01*
X174355989Y-125984519D01*
X174614279Y-125811936D01*
X174833936Y-125592279D01*
X175006519Y-125333989D01*
X175125396Y-125046994D01*
X175186000Y-124742321D01*
X175186000Y-124431679D01*
X175125396Y-124127006D01*
X175006519Y-123840011D01*
X174833936Y-123581721D01*
X174614279Y-123362064D01*
X174355989Y-123189481D01*
X174068994Y-123070604D01*
X173764321Y-123010000D01*
X173453679Y-123010000D01*
X173149006Y-123070604D01*
X172862011Y-123189481D01*
X172603721Y-123362064D01*
X172384064Y-123581721D01*
X172211481Y-123840011D01*
X172092604Y-124127006D01*
X172032000Y-124431679D01*
X154830475Y-124431679D01*
X154801924Y-124426000D01*
X154570076Y-124426000D01*
X154342682Y-124471231D01*
X154128481Y-124559956D01*
X153935706Y-124688764D01*
X153771764Y-124852706D01*
X153642956Y-125045481D01*
X153554231Y-125259682D01*
X153509000Y-125487076D01*
X153323000Y-125487076D01*
X153277769Y-125259682D01*
X153189044Y-125045481D01*
X153060236Y-124852706D01*
X152896294Y-124688764D01*
X152703519Y-124559956D01*
X152489318Y-124471231D01*
X152261924Y-124426000D01*
X152030076Y-124426000D01*
X151802682Y-124471231D01*
X151588481Y-124559956D01*
X151395706Y-124688764D01*
X151231764Y-124852706D01*
X151102956Y-125045481D01*
X151014231Y-125259682D01*
X150969000Y-125487076D01*
X150783000Y-125487076D01*
X150737769Y-125259682D01*
X150649044Y-125045481D01*
X150520236Y-124852706D01*
X150356294Y-124688764D01*
X150163519Y-124559956D01*
X149949318Y-124471231D01*
X149721924Y-124426000D01*
X149490076Y-124426000D01*
X149262682Y-124471231D01*
X149048481Y-124559956D01*
X148855706Y-124688764D01*
X148691764Y-124852706D01*
X148562956Y-125045481D01*
X148474231Y-125259682D01*
X148429000Y-125487076D01*
X148243000Y-125487076D01*
X148197769Y-125259682D01*
X148109044Y-125045481D01*
X147980236Y-124852706D01*
X147816294Y-124688764D01*
X147623519Y-124559956D01*
X147409318Y-124471231D01*
X147181924Y-124426000D01*
X146950076Y-124426000D01*
X146722682Y-124471231D01*
X146508481Y-124559956D01*
X146315706Y-124688764D01*
X146151764Y-124852706D01*
X146022956Y-125045481D01*
X145934231Y-125259682D01*
X145889000Y-125487076D01*
X145703000Y-125487076D01*
X145657769Y-125259682D01*
X145569044Y-125045481D01*
X145440236Y-124852706D01*
X145276294Y-124688764D01*
X145083519Y-124559956D01*
X144869318Y-124471231D01*
X144641924Y-124426000D01*
X144410076Y-124426000D01*
X144182682Y-124471231D01*
X143968481Y-124559956D01*
X143775706Y-124688764D01*
X143611764Y-124852706D01*
X143482956Y-125045481D01*
X143394231Y-125259682D01*
X143349000Y-125487076D01*
X143163000Y-125487076D01*
X143117769Y-125259682D01*
X143029044Y-125045481D01*
X142900236Y-124852706D01*
X142736294Y-124688764D01*
X142543519Y-124559956D01*
X142329318Y-124471231D01*
X142101924Y-124426000D01*
X141870076Y-124426000D01*
X141642682Y-124471231D01*
X141428481Y-124559956D01*
X141235706Y-124688764D01*
X141071764Y-124852706D01*
X140942956Y-125045481D01*
X140854231Y-125259682D01*
X140809000Y-125487076D01*
X140623000Y-125487076D01*
X140577769Y-125259682D01*
X140489044Y-125045481D01*
X140360236Y-124852706D01*
X140196294Y-124688764D01*
X140003519Y-124559956D01*
X139789318Y-124471231D01*
X139561924Y-124426000D01*
X139330076Y-124426000D01*
X139102682Y-124471231D01*
X138888481Y-124559956D01*
X138695706Y-124688764D01*
X138531764Y-124852706D01*
X138402956Y-125045481D01*
X138314231Y-125259682D01*
X138269000Y-125487076D01*
X138083000Y-125487076D01*
X138037769Y-125259682D01*
X137949044Y-125045481D01*
X137820236Y-124852706D01*
X137656294Y-124688764D01*
X137463519Y-124559956D01*
X137249318Y-124471231D01*
X137021924Y-124426000D01*
X136790076Y-124426000D01*
X136562682Y-124471231D01*
X136348481Y-124559956D01*
X136155706Y-124688764D01*
X135991764Y-124852706D01*
X135862956Y-125045481D01*
X135774231Y-125259682D01*
X135729000Y-125487076D01*
X135544582Y-125487076D01*
X135544582Y-124753000D01*
X135538268Y-124688897D01*
X135519570Y-124627257D01*
X135489206Y-124570450D01*
X135448343Y-124520657D01*
X135398550Y-124479794D01*
X135341743Y-124449430D01*
X135280103Y-124430732D01*
X135216000Y-124424418D01*
X133516000Y-124424418D01*
X133451897Y-124430732D01*
X133390257Y-124449430D01*
X133333450Y-124479794D01*
X133283657Y-124520657D01*
X133242794Y-124570450D01*
X133212430Y-124627257D01*
X133193732Y-124688897D01*
X133187418Y-124753000D01*
X128666001Y-124753000D01*
X131959963Y-121459038D01*
X131981974Y-121440974D01*
X132054079Y-121353115D01*
X132107657Y-121252876D01*
X132140650Y-121144112D01*
X132149000Y-121059336D01*
X132149000Y-121059330D01*
X132151790Y-121031001D01*
X132149000Y-121002672D01*
X132149000Y-105966501D01*
X133144501Y-104971000D01*
X149351475Y-104971000D01*
X149452136Y-105038259D01*
X149584442Y-105093062D01*
X149724897Y-105121000D01*
X149868103Y-105121000D01*
X150008558Y-105093062D01*
X150140864Y-105038259D01*
X150259936Y-104958698D01*
X150361198Y-104857436D01*
X150440759Y-104738364D01*
X150495562Y-104606058D01*
X150523500Y-104465603D01*
X150523500Y-104322397D01*
X150495562Y-104181942D01*
X150440759Y-104049636D01*
X150361198Y-103930564D01*
X150259936Y-103829302D01*
X150140864Y-103749741D01*
X150008558Y-103694938D01*
X149868103Y-103667000D01*
X149724897Y-103667000D01*
X149584442Y-103694938D01*
X149452136Y-103749741D01*
X149351475Y-103817000D01*
X132933831Y-103817000D01*
X132905500Y-103814210D01*
X132877169Y-103817000D01*
X132877164Y-103817000D01*
X132850386Y-103819637D01*
X132792388Y-103825349D01*
X132728282Y-103844796D01*
X132683624Y-103858343D01*
X132583385Y-103911921D01*
X132495526Y-103984026D01*
X132477461Y-104006038D01*
X131184034Y-105299465D01*
X131162027Y-105317526D01*
X131143966Y-105339533D01*
X131143963Y-105339536D01*
X131120840Y-105367712D01*
X131089922Y-105405385D01*
X131072289Y-105438375D01*
X131036344Y-105505624D01*
X131003349Y-105614389D01*
X130992210Y-105727500D01*
X130995001Y-105755841D01*
X130995000Y-120791999D01*
X126760999Y-125026000D01*
X126760027Y-125026000D01*
X126644236Y-124852706D01*
X126480294Y-124688764D01*
X126287519Y-124559956D01*
X126073318Y-124471231D01*
X125845924Y-124426000D01*
X125614076Y-124426000D01*
X125409662Y-124466660D01*
X123872039Y-122929038D01*
X123853974Y-122907026D01*
X123766115Y-122834921D01*
X123665876Y-122781343D01*
X123601770Y-122761897D01*
X123557111Y-122748349D01*
X123502045Y-122742926D01*
X123472336Y-122740000D01*
X123472331Y-122740000D01*
X123444000Y-122737210D01*
X123415669Y-122740000D01*
X119317025Y-122740000D01*
X119216364Y-122672741D01*
X119084058Y-122617938D01*
X118943603Y-122590000D01*
X118800397Y-122590000D01*
X118659942Y-122617938D01*
X118527636Y-122672741D01*
X118408564Y-122752302D01*
X118307302Y-122853564D01*
X118227741Y-122972636D01*
X118172938Y-123104942D01*
X118145000Y-123245397D01*
X112005483Y-123245397D01*
X112060810Y-123228614D01*
X112139333Y-123186643D01*
X112208159Y-123130159D01*
X112222323Y-123112900D01*
X115365911Y-119969314D01*
X115383159Y-119955159D01*
X115439643Y-119886333D01*
X115481614Y-119807810D01*
X115507460Y-119722607D01*
X115514000Y-119656205D01*
X115516187Y-119634001D01*
X115514000Y-119611796D01*
X115514000Y-109280223D01*
X117199407Y-107594817D01*
X117212897Y-107597500D01*
X117356103Y-107597500D01*
X117496558Y-107569562D01*
X117628864Y-107514759D01*
X117747936Y-107435198D01*
X117849198Y-107333936D01*
X117928759Y-107214864D01*
X117983562Y-107082558D01*
X118011500Y-106942103D01*
X118011500Y-106798897D01*
X117983562Y-106658442D01*
X117928759Y-106526136D01*
X117849198Y-106407064D01*
X117747936Y-106305802D01*
X117628864Y-106226241D01*
X117496558Y-106171438D01*
X117356103Y-106143500D01*
X117212897Y-106143500D01*
X117072442Y-106171438D01*
X116940136Y-106226241D01*
X116821064Y-106305802D01*
X116719802Y-106407064D01*
X116640241Y-106526136D01*
X116585438Y-106658442D01*
X116557500Y-106798897D01*
X116557500Y-106942103D01*
X116560183Y-106955593D01*
X114758100Y-108757677D01*
X114740841Y-108771841D01*
X114684358Y-108840667D01*
X114642386Y-108919191D01*
X114616540Y-109004393D01*
X114607813Y-109093000D01*
X114610000Y-109115205D01*
X114610001Y-119230786D01*
X114610000Y-119230796D01*
X114610000Y-119446775D01*
X111699777Y-122357000D01*
X111506839Y-122357000D01*
X111499198Y-122345564D01*
X111397936Y-122244302D01*
X111278864Y-122164741D01*
X111146558Y-122109938D01*
X111006103Y-122082000D01*
X110862897Y-122082000D01*
X110722442Y-122109938D01*
X110590136Y-122164741D01*
X110471064Y-122244302D01*
X110369802Y-122345564D01*
X110290241Y-122464636D01*
X110235438Y-122596942D01*
X110207500Y-122737397D01*
X89277000Y-122737397D01*
X89277000Y-120305097D01*
X95766001Y-120305097D01*
X95766001Y-120604905D01*
X95824491Y-120898952D01*
X95939222Y-121175938D01*
X96105787Y-121425219D01*
X96317783Y-121637215D01*
X96567064Y-121803780D01*
X96844050Y-121918511D01*
X97138097Y-121977001D01*
X97437905Y-121977001D01*
X97731952Y-121918511D01*
X98008938Y-121803780D01*
X98258219Y-121637215D01*
X98470215Y-121425219D01*
X98636780Y-121175938D01*
X98751511Y-120898952D01*
X98810001Y-120604905D01*
X98810001Y-120305097D01*
X98751511Y-120011050D01*
X98636780Y-119734064D01*
X98470215Y-119484783D01*
X98258219Y-119272787D01*
X98008938Y-119106222D01*
X97731952Y-118991491D01*
X97437905Y-118933001D01*
X97138097Y-118933001D01*
X96844050Y-118991491D01*
X96567064Y-119106222D01*
X96317783Y-119272787D01*
X96105787Y-119484783D01*
X95939222Y-119734064D01*
X95824491Y-120011050D01*
X95766001Y-120305097D01*
X89277000Y-120305097D01*
X89277000Y-109280001D01*
X89889419Y-109280001D01*
X89889419Y-115630001D01*
X89895733Y-115694104D01*
X89914431Y-115755744D01*
X89944795Y-115812551D01*
X89985658Y-115862344D01*
X90035451Y-115903207D01*
X90092258Y-115933571D01*
X90153898Y-115952269D01*
X90218001Y-115958583D01*
X92260000Y-115958583D01*
X92260000Y-116966475D01*
X92192741Y-117067136D01*
X92137938Y-117199442D01*
X92110000Y-117339897D01*
X92110000Y-117483103D01*
X92137938Y-117623558D01*
X92192741Y-117755864D01*
X92272302Y-117874936D01*
X92373564Y-117976198D01*
X92492636Y-118055759D01*
X92624942Y-118110562D01*
X92765397Y-118138500D01*
X92908603Y-118138500D01*
X93049058Y-118110562D01*
X93181364Y-118055759D01*
X93300436Y-117976198D01*
X93401698Y-117874936D01*
X93481259Y-117755864D01*
X93536062Y-117623558D01*
X93564000Y-117483103D01*
X93564000Y-117339897D01*
X93536062Y-117199442D01*
X93481259Y-117067136D01*
X93414000Y-116966475D01*
X93414000Y-115958583D01*
X97558001Y-115958583D01*
X97622104Y-115952269D01*
X97683744Y-115933571D01*
X97740551Y-115903207D01*
X97790344Y-115862344D01*
X97831207Y-115812551D01*
X97861571Y-115755744D01*
X97880269Y-115694104D01*
X97886583Y-115630001D01*
X97886583Y-109280001D01*
X97880269Y-109215898D01*
X97861571Y-109154258D01*
X97831207Y-109097451D01*
X97790344Y-109047658D01*
X97740551Y-109006795D01*
X97683744Y-108976431D01*
X97622104Y-108957733D01*
X97558001Y-108951419D01*
X96208000Y-108951419D01*
X96208000Y-108395025D01*
X96275259Y-108294364D01*
X96330062Y-108162058D01*
X96358000Y-108021603D01*
X96358000Y-107878397D01*
X96330062Y-107737942D01*
X96275259Y-107605636D01*
X96195698Y-107486564D01*
X96094436Y-107385302D01*
X95975364Y-107305741D01*
X95843058Y-107250938D01*
X95702603Y-107223000D01*
X95559397Y-107223000D01*
X95418942Y-107250938D01*
X95286636Y-107305741D01*
X95167564Y-107385302D01*
X95066302Y-107486564D01*
X94986741Y-107605636D01*
X94931938Y-107737942D01*
X94904000Y-107878397D01*
X94904000Y-108021603D01*
X94931938Y-108162058D01*
X94986741Y-108294364D01*
X95054001Y-108395026D01*
X95054001Y-108951419D01*
X94207001Y-108951419D01*
X94207001Y-107622554D01*
X97816555Y-104013000D01*
X104777176Y-104013000D01*
X104779001Y-104031530D01*
X104779000Y-120631481D01*
X104777176Y-120650000D01*
X104784455Y-120723905D01*
X104806012Y-120794970D01*
X104841019Y-120860463D01*
X104872606Y-120898952D01*
X104888131Y-120917869D01*
X104945537Y-120964981D01*
X105011030Y-120999988D01*
X105082095Y-121021545D01*
X105156000Y-121028824D01*
X105174519Y-121027000D01*
X111487481Y-121027000D01*
X111506000Y-121028824D01*
X111524519Y-121027000D01*
X111579905Y-121021545D01*
X111650970Y-120999988D01*
X111716463Y-120964981D01*
X111773869Y-120917869D01*
X111820981Y-120860463D01*
X111855988Y-120794970D01*
X111877545Y-120723905D01*
X111884824Y-120650000D01*
X111883000Y-120631481D01*
X111883000Y-104031519D01*
X111884824Y-104013000D01*
X111877545Y-103939095D01*
X111855988Y-103868030D01*
X111820981Y-103802537D01*
X111773869Y-103745131D01*
X111716463Y-103698019D01*
X111650970Y-103663012D01*
X111579905Y-103641455D01*
X111524519Y-103636000D01*
X111506000Y-103634176D01*
X111487481Y-103636000D01*
X105174519Y-103636000D01*
X105156000Y-103634176D01*
X105137481Y-103636000D01*
X105082095Y-103641455D01*
X105011030Y-103663012D01*
X104945537Y-103698019D01*
X104888131Y-103745131D01*
X104841019Y-103802537D01*
X104806012Y-103868030D01*
X104784455Y-103939095D01*
X104777176Y-104013000D01*
X97816555Y-104013000D01*
X98239566Y-103589990D01*
X130408790Y-103589990D01*
X130356241Y-103668636D01*
X130301438Y-103800942D01*
X130273500Y-103941397D01*
X130273500Y-104084603D01*
X130276183Y-104098092D01*
X127923277Y-106451000D01*
X120810339Y-106451000D01*
X120802698Y-106439564D01*
X120701436Y-106338302D01*
X120582364Y-106258741D01*
X120450058Y-106203938D01*
X120309603Y-106176000D01*
X120166397Y-106176000D01*
X120025942Y-106203938D01*
X119893636Y-106258741D01*
X119774564Y-106338302D01*
X119673302Y-106439564D01*
X119593741Y-106558636D01*
X119538938Y-106690942D01*
X119511000Y-106831397D01*
X119511000Y-106974603D01*
X119538938Y-107115058D01*
X119593741Y-107247364D01*
X119673302Y-107366436D01*
X119774564Y-107467698D01*
X119893636Y-107547259D01*
X120025942Y-107602062D01*
X120166397Y-107630000D01*
X120309603Y-107630000D01*
X120450058Y-107602062D01*
X120582364Y-107547259D01*
X120701436Y-107467698D01*
X120802698Y-107366436D01*
X120810339Y-107355000D01*
X128088295Y-107355000D01*
X128110500Y-107357187D01*
X128132705Y-107355000D01*
X128199107Y-107348460D01*
X128284310Y-107322614D01*
X128362833Y-107280643D01*
X128431659Y-107224159D01*
X128445823Y-107206900D01*
X130915408Y-104737317D01*
X130928897Y-104740000D01*
X131072103Y-104740000D01*
X131212558Y-104712062D01*
X131344864Y-104657259D01*
X131463936Y-104577698D01*
X131565198Y-104476436D01*
X131644759Y-104357364D01*
X131699562Y-104225058D01*
X131727500Y-104084603D01*
X131727500Y-103941397D01*
X131699562Y-103800942D01*
X131644759Y-103668636D01*
X131592210Y-103589990D01*
X153474436Y-103589990D01*
X154193447Y-104309002D01*
X154287819Y-104386452D01*
X154431489Y-104463244D01*
X154587379Y-104510532D01*
X154749499Y-104526500D01*
X154911620Y-104510532D01*
X155067510Y-104463244D01*
X155211179Y-104386452D01*
X155337106Y-104283106D01*
X155440452Y-104157179D01*
X155517244Y-104013510D01*
X155564532Y-103857620D01*
X155580500Y-103695499D01*
X155564532Y-103533379D01*
X155517244Y-103377489D01*
X155440452Y-103233819D01*
X155363002Y-103139447D01*
X154430495Y-102206942D01*
X154404596Y-102175384D01*
X154278669Y-102072038D01*
X154135000Y-101995245D01*
X153979110Y-101947956D01*
X153857614Y-101935990D01*
X153857604Y-101935990D01*
X153816990Y-101931990D01*
X153776376Y-101935990D01*
X121270510Y-101935990D01*
X121270510Y-101644035D01*
X121337769Y-101543374D01*
X121392572Y-101411068D01*
X121420510Y-101270613D01*
X121420510Y-101127407D01*
X121392572Y-100986952D01*
X121337769Y-100854646D01*
X121258208Y-100735574D01*
X121156946Y-100634312D01*
X121037874Y-100554751D01*
X120905568Y-100499948D01*
X120765113Y-100472010D01*
X120621907Y-100472010D01*
X120481452Y-100499948D01*
X120349146Y-100554751D01*
X120230074Y-100634312D01*
X120128812Y-100735574D01*
X120049251Y-100854646D01*
X119994448Y-100986952D01*
X119966510Y-101127407D01*
X119966510Y-101270613D01*
X119994448Y-101411068D01*
X120049251Y-101543374D01*
X120116511Y-101644036D01*
X120116511Y-101935990D01*
X97937625Y-101935990D01*
X97897011Y-101931990D01*
X97856397Y-101935990D01*
X97856388Y-101935990D01*
X97734892Y-101947956D01*
X97579002Y-101995245D01*
X97542698Y-102014650D01*
X97435331Y-102072038D01*
X97340960Y-102149488D01*
X97309406Y-102175384D01*
X97283511Y-102206937D01*
X92823949Y-106666500D01*
X92792396Y-106692395D01*
X92766501Y-106723948D01*
X92766499Y-106723950D01*
X92689049Y-106818322D01*
X92612257Y-106961991D01*
X92564968Y-107117881D01*
X92549001Y-107280001D01*
X92553002Y-107320625D01*
X92553002Y-108951419D01*
X90218001Y-108951419D01*
X90153898Y-108957733D01*
X90092258Y-108976431D01*
X90035451Y-109006795D01*
X89985658Y-109047658D01*
X89944795Y-109097451D01*
X89914431Y-109154258D01*
X89895733Y-109215898D01*
X89889419Y-109280001D01*
X89277000Y-109280001D01*
X89277000Y-94713679D01*
X90244000Y-94713679D01*
X90244000Y-95024321D01*
X90304604Y-95328994D01*
X90423481Y-95615989D01*
X90596064Y-95874279D01*
X90815721Y-96093936D01*
X91074011Y-96266519D01*
X91361006Y-96385396D01*
X91665679Y-96446000D01*
X91976321Y-96446000D01*
X92280994Y-96385396D01*
X92567989Y-96266519D01*
X92826279Y-96093936D01*
X93045936Y-95874279D01*
X93218519Y-95615989D01*
X93337396Y-95328994D01*
X93398000Y-95024321D01*
X93398000Y-94713679D01*
X93337396Y-94409006D01*
X93322897Y-94374000D01*
X96001418Y-94374000D01*
X96001418Y-95374000D01*
X96007732Y-95438103D01*
X96026430Y-95499743D01*
X96056794Y-95556550D01*
X96097657Y-95606343D01*
X96147450Y-95647206D01*
X96204257Y-95677570D01*
X96265897Y-95696268D01*
X96330000Y-95702582D01*
X98030000Y-95702582D01*
X98094103Y-95696268D01*
X98155743Y-95677570D01*
X98212550Y-95647206D01*
X98262343Y-95606343D01*
X98303206Y-95556550D01*
X98333570Y-95499743D01*
X98352268Y-95438103D01*
X98358582Y-95374000D01*
X98358582Y-95326000D01*
X102301418Y-95326000D01*
X102301418Y-95374000D01*
X102307732Y-95438103D01*
X102326430Y-95499743D01*
X102356794Y-95556550D01*
X102397657Y-95606343D01*
X102447450Y-95647206D01*
X102504257Y-95677570D01*
X102565897Y-95696268D01*
X102630000Y-95702582D01*
X104330000Y-95702582D01*
X104394103Y-95696268D01*
X104455743Y-95677570D01*
X104512550Y-95647206D01*
X104562343Y-95606343D01*
X104603206Y-95556550D01*
X104633570Y-95499743D01*
X104652268Y-95438103D01*
X104658582Y-95374000D01*
X104658582Y-95326000D01*
X106830759Y-95326000D01*
X106754436Y-95388636D01*
X106688700Y-95468736D01*
X106639854Y-95560120D01*
X106609775Y-95659279D01*
X106599618Y-95762400D01*
X106599618Y-96312400D01*
X106609775Y-96415521D01*
X106639854Y-96514680D01*
X106688700Y-96606064D01*
X106754436Y-96686164D01*
X106834536Y-96751900D01*
X106876200Y-96774170D01*
X106876201Y-96959244D01*
X106842869Y-96977060D01*
X106759928Y-97045128D01*
X106691860Y-97128069D01*
X106641281Y-97222695D01*
X106610135Y-97325371D01*
X106599618Y-97432150D01*
X106599618Y-97944650D01*
X106610135Y-98051429D01*
X106641281Y-98154105D01*
X106677572Y-98222000D01*
X104658582Y-98222000D01*
X104658582Y-98174000D01*
X104652268Y-98109897D01*
X104633570Y-98048257D01*
X104603206Y-97991450D01*
X104562343Y-97941657D01*
X104512550Y-97900794D01*
X104455743Y-97870430D01*
X104394103Y-97851732D01*
X104330000Y-97845418D01*
X102630000Y-97845418D01*
X102565897Y-97851732D01*
X102504257Y-97870430D01*
X102447450Y-97900794D01*
X102397657Y-97941657D01*
X102356794Y-97991450D01*
X102326430Y-98048257D01*
X102307732Y-98109897D01*
X102301418Y-98174000D01*
X102301418Y-98222000D01*
X98358582Y-98222000D01*
X98358582Y-98174000D01*
X98352268Y-98109897D01*
X98333570Y-98048257D01*
X98303206Y-97991450D01*
X98262343Y-97941657D01*
X98212550Y-97900794D01*
X98155743Y-97870430D01*
X98094103Y-97851732D01*
X98030000Y-97845418D01*
X96330000Y-97845418D01*
X96265897Y-97851732D01*
X96204257Y-97870430D01*
X96147450Y-97900794D01*
X96097657Y-97941657D01*
X96056794Y-97991450D01*
X96026430Y-98048257D01*
X96007732Y-98109897D01*
X96001418Y-98174000D01*
X96001418Y-99174000D01*
X96007732Y-99238103D01*
X96026430Y-99299743D01*
X96056794Y-99356550D01*
X96097657Y-99406343D01*
X96147450Y-99447206D01*
X96204257Y-99477570D01*
X96265897Y-99496268D01*
X96330000Y-99502582D01*
X98030000Y-99502582D01*
X98094103Y-99496268D01*
X98155743Y-99477570D01*
X98212550Y-99447206D01*
X98262343Y-99406343D01*
X98303206Y-99356550D01*
X98333570Y-99299743D01*
X98352268Y-99238103D01*
X98358582Y-99174000D01*
X98358582Y-99126000D01*
X102301418Y-99126000D01*
X102301418Y-99174000D01*
X102307732Y-99238103D01*
X102326430Y-99299743D01*
X102356794Y-99356550D01*
X102397657Y-99406343D01*
X102447450Y-99447206D01*
X102504257Y-99477570D01*
X102565897Y-99496268D01*
X102630000Y-99502582D01*
X104330000Y-99502582D01*
X104394103Y-99496268D01*
X104455743Y-99477570D01*
X104512550Y-99447206D01*
X104562343Y-99406343D01*
X104603206Y-99356550D01*
X104633570Y-99299743D01*
X104652268Y-99238103D01*
X104658582Y-99174000D01*
X104658582Y-99126000D01*
X106538277Y-99126000D01*
X106586918Y-99174641D01*
X106586918Y-99564000D01*
X106597555Y-99671998D01*
X106629057Y-99775847D01*
X106680213Y-99871554D01*
X106749058Y-99955442D01*
X106832946Y-100024287D01*
X106928653Y-100075443D01*
X107032502Y-100106945D01*
X107140500Y-100117582D01*
X107529859Y-100117582D01*
X108681181Y-101268905D01*
X108695341Y-101286159D01*
X108764167Y-101342643D01*
X108820754Y-101372889D01*
X108842690Y-101384614D01*
X108927892Y-101410460D01*
X109016500Y-101419187D01*
X109038705Y-101417000D01*
X112648161Y-101417000D01*
X112655802Y-101428436D01*
X112757064Y-101529698D01*
X112876136Y-101609259D01*
X113008442Y-101664062D01*
X113148897Y-101692000D01*
X113292103Y-101692000D01*
X113432558Y-101664062D01*
X113564864Y-101609259D01*
X113683936Y-101529698D01*
X113785198Y-101428436D01*
X113864759Y-101309364D01*
X113919562Y-101177058D01*
X113947500Y-101036603D01*
X113947500Y-100893397D01*
X113919562Y-100752942D01*
X113864759Y-100620636D01*
X113785198Y-100501564D01*
X113683936Y-100400302D01*
X113564864Y-100320741D01*
X113432558Y-100265938D01*
X113292103Y-100238000D01*
X113148897Y-100238000D01*
X113008442Y-100265938D01*
X112876136Y-100320741D01*
X112757064Y-100400302D01*
X112655802Y-100501564D01*
X112648161Y-100513000D01*
X109203724Y-100513000D01*
X109042502Y-100351778D01*
X109042502Y-100265252D01*
X109201250Y-100424000D01*
X109365500Y-100427072D01*
X109489982Y-100414812D01*
X109609680Y-100378502D01*
X109719994Y-100319537D01*
X109816685Y-100240185D01*
X109896037Y-100143494D01*
X109955002Y-100033180D01*
X109991312Y-99913482D01*
X110003572Y-99789000D01*
X110000500Y-99599750D01*
X109841750Y-99441000D01*
X109042500Y-99441000D01*
X109042500Y-99461000D01*
X108788500Y-99461000D01*
X108788500Y-99441000D01*
X108768500Y-99441000D01*
X108768500Y-99187000D01*
X108788500Y-99187000D01*
X108788500Y-98664850D01*
X108813700Y-98639650D01*
X108813700Y-98362750D01*
X109042500Y-98362750D01*
X109042500Y-99187000D01*
X109841750Y-99187000D01*
X110000500Y-99028250D01*
X110003572Y-98839000D01*
X109991312Y-98714518D01*
X109955002Y-98594820D01*
X109911310Y-98513080D01*
X109967702Y-98407580D01*
X110004012Y-98287882D01*
X110016272Y-98163400D01*
X110013200Y-97974150D01*
X109854450Y-97815400D01*
X109067700Y-97815400D01*
X109067700Y-98337550D01*
X109042500Y-98362750D01*
X108813700Y-98362750D01*
X108813700Y-97815400D01*
X108793700Y-97815400D01*
X108793700Y-97561400D01*
X108813700Y-97561400D01*
X108813700Y-97541400D01*
X109067700Y-97541400D01*
X109067700Y-97561400D01*
X109854450Y-97561400D01*
X110013200Y-97402650D01*
X110016272Y-97213400D01*
X110004012Y-97088918D01*
X109967702Y-96969220D01*
X109908737Y-96858906D01*
X109829385Y-96762215D01*
X109732694Y-96682863D01*
X109622380Y-96623898D01*
X109606914Y-96619207D01*
X109617700Y-96606064D01*
X109666546Y-96514680D01*
X109674214Y-96489400D01*
X110010677Y-96489400D01*
X110083183Y-96561907D01*
X110080500Y-96575397D01*
X110080500Y-96718603D01*
X110108438Y-96859058D01*
X110163241Y-96991364D01*
X110242802Y-97110436D01*
X110344064Y-97211698D01*
X110463136Y-97291259D01*
X110595442Y-97346062D01*
X110735897Y-97374000D01*
X110879103Y-97374000D01*
X111019558Y-97346062D01*
X111151864Y-97291259D01*
X111270936Y-97211698D01*
X111372198Y-97110436D01*
X111451759Y-96991364D01*
X111506562Y-96859058D01*
X111534500Y-96718603D01*
X111534500Y-96575397D01*
X111506562Y-96434942D01*
X111451759Y-96302636D01*
X111372198Y-96183564D01*
X111270936Y-96082302D01*
X111151864Y-96002741D01*
X111019558Y-95947938D01*
X110879103Y-95920000D01*
X110735897Y-95920000D01*
X110722407Y-95922683D01*
X110533223Y-95733500D01*
X110519059Y-95716241D01*
X110450233Y-95659757D01*
X110371710Y-95617786D01*
X110286507Y-95591940D01*
X110220105Y-95585400D01*
X110197900Y-95583213D01*
X110175695Y-95585400D01*
X109674214Y-95585400D01*
X109666546Y-95560120D01*
X109617700Y-95468736D01*
X109551964Y-95388636D01*
X109471864Y-95322900D01*
X109380480Y-95274054D01*
X109281321Y-95243975D01*
X109277771Y-95243625D01*
X109280821Y-95243325D01*
X109379980Y-95213246D01*
X109471364Y-95164400D01*
X109551464Y-95098664D01*
X109617200Y-95018564D01*
X109666046Y-94927180D01*
X109673714Y-94901900D01*
X110264677Y-94901900D01*
X112440681Y-97077905D01*
X112454841Y-97095159D01*
X112523667Y-97151643D01*
X112584155Y-97183974D01*
X112602190Y-97193614D01*
X112687392Y-97219460D01*
X112776000Y-97228187D01*
X112798205Y-97226000D01*
X112921418Y-97226000D01*
X112921418Y-97824000D01*
X112927732Y-97888103D01*
X112946430Y-97949743D01*
X112976794Y-98006550D01*
X113017657Y-98056343D01*
X113067450Y-98097206D01*
X113124257Y-98127570D01*
X113185897Y-98146268D01*
X113250000Y-98152582D01*
X115350000Y-98152582D01*
X115414103Y-98146268D01*
X115475743Y-98127570D01*
X115532550Y-98097206D01*
X115582343Y-98056343D01*
X115623206Y-98006550D01*
X115653570Y-97949743D01*
X115672268Y-97888103D01*
X115678582Y-97824000D01*
X115678582Y-97514350D01*
X115770414Y-97651787D01*
X115962213Y-97843586D01*
X116187746Y-97994282D01*
X116438344Y-98098083D01*
X116704377Y-98151000D01*
X116975623Y-98151000D01*
X117156608Y-98115000D01*
X117243205Y-98115000D01*
X117309607Y-98108460D01*
X117394810Y-98082614D01*
X117473333Y-98040643D01*
X117542159Y-97984159D01*
X117574241Y-97945066D01*
X118388539Y-97945066D01*
X118490339Y-98214579D01*
X118788477Y-98360463D01*
X119109346Y-98445380D01*
X119440617Y-98466066D01*
X119769557Y-98421728D01*
X120083527Y-98314069D01*
X120269661Y-98214579D01*
X120371461Y-97945066D01*
X119380000Y-96953605D01*
X118388539Y-97945066D01*
X117574241Y-97945066D01*
X117584356Y-97932741D01*
X117717787Y-97843586D01*
X117909586Y-97651787D01*
X117922635Y-97632257D01*
X117939421Y-97663661D01*
X118208934Y-97765461D01*
X119200395Y-96774000D01*
X119559605Y-96774000D01*
X120551066Y-97765461D01*
X120820579Y-97663661D01*
X120966463Y-97365523D01*
X121051380Y-97044654D01*
X121072066Y-96713383D01*
X121027728Y-96384443D01*
X120920069Y-96070473D01*
X120820579Y-95884339D01*
X120551066Y-95782539D01*
X119559605Y-96774000D01*
X119200395Y-96774000D01*
X118208934Y-95782539D01*
X117939421Y-95884339D01*
X117923455Y-95916969D01*
X117909586Y-95896213D01*
X117717787Y-95704414D01*
X117565912Y-95602934D01*
X118388539Y-95602934D01*
X119380000Y-96594395D01*
X120371461Y-95602934D01*
X120269661Y-95333421D01*
X119971523Y-95187537D01*
X119650654Y-95102620D01*
X119319383Y-95081934D01*
X118990443Y-95126272D01*
X118676473Y-95233931D01*
X118490339Y-95333421D01*
X118388539Y-95602934D01*
X117565912Y-95602934D01*
X117492254Y-95553718D01*
X117241656Y-95449917D01*
X116975623Y-95397000D01*
X116704377Y-95397000D01*
X116438344Y-95449917D01*
X116187746Y-95553718D01*
X115962213Y-95704414D01*
X115770414Y-95896213D01*
X115678582Y-96033650D01*
X115678582Y-95724000D01*
X115672268Y-95659897D01*
X115653570Y-95598257D01*
X115623206Y-95541450D01*
X115582343Y-95491657D01*
X115532550Y-95450794D01*
X115475743Y-95420430D01*
X115414103Y-95401732D01*
X115350000Y-95395418D01*
X114877000Y-95395418D01*
X114877000Y-94409501D01*
X114983501Y-94303000D01*
X123375001Y-94303000D01*
X123375000Y-95395418D01*
X122902000Y-95395418D01*
X122837897Y-95401732D01*
X122776257Y-95420430D01*
X122719450Y-95450794D01*
X122669657Y-95491657D01*
X122628794Y-95541450D01*
X122598430Y-95598257D01*
X122579732Y-95659897D01*
X122573418Y-95724000D01*
X122573418Y-97824000D01*
X122579732Y-97888103D01*
X122598430Y-97949743D01*
X122628794Y-98006550D01*
X122669657Y-98056343D01*
X122719450Y-98097206D01*
X122776257Y-98127570D01*
X122837897Y-98146268D01*
X122902000Y-98152582D01*
X125002000Y-98152582D01*
X125066103Y-98146268D01*
X125127743Y-98127570D01*
X125184550Y-98097206D01*
X125234343Y-98056343D01*
X125275206Y-98006550D01*
X125305570Y-97949743D01*
X125324268Y-97888103D01*
X125330582Y-97824000D01*
X125330582Y-97514350D01*
X125422414Y-97651787D01*
X125614213Y-97843586D01*
X125839746Y-97994282D01*
X126090344Y-98098083D01*
X126356377Y-98151000D01*
X126627623Y-98151000D01*
X126893656Y-98098083D01*
X127144254Y-97994282D01*
X127217911Y-97945066D01*
X128040539Y-97945066D01*
X128142339Y-98214579D01*
X128440477Y-98360463D01*
X128761346Y-98445380D01*
X129092617Y-98466066D01*
X129421557Y-98421728D01*
X129735527Y-98314069D01*
X129921661Y-98214579D01*
X130023461Y-97945066D01*
X129032000Y-96953605D01*
X128040539Y-97945066D01*
X127217911Y-97945066D01*
X127369787Y-97843586D01*
X127561586Y-97651787D01*
X127574635Y-97632257D01*
X127591421Y-97663661D01*
X127860934Y-97765461D01*
X128852395Y-96774000D01*
X129211605Y-96774000D01*
X130203066Y-97765461D01*
X130472579Y-97663661D01*
X130618463Y-97365523D01*
X130703380Y-97044654D01*
X130724066Y-96713383D01*
X130679728Y-96384443D01*
X130572069Y-96070473D01*
X130472579Y-95884339D01*
X130203066Y-95782539D01*
X129211605Y-96774000D01*
X128852395Y-96774000D01*
X127860934Y-95782539D01*
X127591421Y-95884339D01*
X127575455Y-95916969D01*
X127561586Y-95896213D01*
X127369787Y-95704414D01*
X127217912Y-95602934D01*
X128040539Y-95602934D01*
X129032000Y-96594395D01*
X130023461Y-95602934D01*
X129921661Y-95333421D01*
X129623523Y-95187537D01*
X129302654Y-95102620D01*
X128971383Y-95081934D01*
X128642443Y-95126272D01*
X128328473Y-95233931D01*
X128142339Y-95333421D01*
X128040539Y-95602934D01*
X127217912Y-95602934D01*
X127144254Y-95553718D01*
X126893656Y-95449917D01*
X126627623Y-95397000D01*
X126356377Y-95397000D01*
X126090344Y-95449917D01*
X125839746Y-95553718D01*
X125614213Y-95704414D01*
X125422414Y-95896213D01*
X125330582Y-96033650D01*
X125330582Y-95724000D01*
X125324268Y-95659897D01*
X125305570Y-95598257D01*
X125275206Y-95541450D01*
X125234343Y-95491657D01*
X125184550Y-95450794D01*
X125127743Y-95420430D01*
X125066103Y-95401732D01*
X125002000Y-95395418D01*
X124529000Y-95395418D01*
X124529000Y-94303000D01*
X133027001Y-94303000D01*
X133027000Y-95395418D01*
X132554000Y-95395418D01*
X132489897Y-95401732D01*
X132428257Y-95420430D01*
X132371450Y-95450794D01*
X132321657Y-95491657D01*
X132280794Y-95541450D01*
X132250430Y-95598257D01*
X132231732Y-95659897D01*
X132225418Y-95724000D01*
X132225418Y-97824000D01*
X132231732Y-97888103D01*
X132250430Y-97949743D01*
X132280794Y-98006550D01*
X132321657Y-98056343D01*
X132371450Y-98097206D01*
X132428257Y-98127570D01*
X132489897Y-98146268D01*
X132554000Y-98152582D01*
X134654000Y-98152582D01*
X134718103Y-98146268D01*
X134779743Y-98127570D01*
X134836550Y-98097206D01*
X134886343Y-98056343D01*
X134927206Y-98006550D01*
X134957570Y-97949743D01*
X134976268Y-97888103D01*
X134982582Y-97824000D01*
X134982582Y-97514350D01*
X135074414Y-97651787D01*
X135266213Y-97843586D01*
X135491746Y-97994282D01*
X135742344Y-98098083D01*
X136008377Y-98151000D01*
X136279623Y-98151000D01*
X136545656Y-98098083D01*
X136796254Y-97994282D01*
X136869911Y-97945066D01*
X137692539Y-97945066D01*
X137794339Y-98214579D01*
X138092477Y-98360463D01*
X138413346Y-98445380D01*
X138744617Y-98466066D01*
X139073557Y-98421728D01*
X139387527Y-98314069D01*
X139573661Y-98214579D01*
X139675461Y-97945066D01*
X138684000Y-96953605D01*
X137692539Y-97945066D01*
X136869911Y-97945066D01*
X137021787Y-97843586D01*
X137213586Y-97651787D01*
X137226635Y-97632257D01*
X137243421Y-97663661D01*
X137512934Y-97765461D01*
X138504395Y-96774000D01*
X138863605Y-96774000D01*
X139855066Y-97765461D01*
X140124579Y-97663661D01*
X140270463Y-97365523D01*
X140355380Y-97044654D01*
X140376066Y-96713383D01*
X140331728Y-96384443D01*
X140224069Y-96070473D01*
X140124579Y-95884339D01*
X139855066Y-95782539D01*
X138863605Y-96774000D01*
X138504395Y-96774000D01*
X137512934Y-95782539D01*
X137243421Y-95884339D01*
X137227455Y-95916969D01*
X137213586Y-95896213D01*
X137021787Y-95704414D01*
X136869912Y-95602934D01*
X137692539Y-95602934D01*
X138684000Y-96594395D01*
X139554395Y-95724000D01*
X142639418Y-95724000D01*
X142639418Y-97824000D01*
X142645732Y-97888103D01*
X142664430Y-97949743D01*
X142694794Y-98006550D01*
X142735657Y-98056343D01*
X142785450Y-98097206D01*
X142842257Y-98127570D01*
X142903897Y-98146268D01*
X142968000Y-98152582D01*
X145068000Y-98152582D01*
X145132103Y-98146268D01*
X145193743Y-98127570D01*
X145250550Y-98097206D01*
X145300343Y-98056343D01*
X145341206Y-98006550D01*
X145371570Y-97949743D01*
X145372988Y-97945066D01*
X145566539Y-97945066D01*
X145668339Y-98214579D01*
X145966477Y-98360463D01*
X146287346Y-98445380D01*
X146618617Y-98466066D01*
X146947557Y-98421728D01*
X147261527Y-98314069D01*
X147447661Y-98214579D01*
X147549461Y-97945066D01*
X146558000Y-96953605D01*
X145566539Y-97945066D01*
X145372988Y-97945066D01*
X145390268Y-97888103D01*
X145396582Y-97824000D01*
X145396582Y-97755813D01*
X146378395Y-96774000D01*
X146737605Y-96774000D01*
X147729066Y-97765461D01*
X147998579Y-97663661D01*
X148144463Y-97365523D01*
X148229380Y-97044654D01*
X148250066Y-96713383D01*
X148205728Y-96384443D01*
X148098069Y-96070473D01*
X147998579Y-95884339D01*
X147729066Y-95782539D01*
X146737605Y-96774000D01*
X146378395Y-96774000D01*
X145396582Y-95792187D01*
X145396582Y-95724000D01*
X145390268Y-95659897D01*
X145372989Y-95602934D01*
X145566539Y-95602934D01*
X146558000Y-96594395D01*
X147549461Y-95602934D01*
X147447661Y-95333421D01*
X147149523Y-95187537D01*
X146828654Y-95102620D01*
X146497383Y-95081934D01*
X146168443Y-95126272D01*
X145854473Y-95233931D01*
X145668339Y-95333421D01*
X145566539Y-95602934D01*
X145372989Y-95602934D01*
X145371570Y-95598257D01*
X145341206Y-95541450D01*
X145300343Y-95491657D01*
X145250550Y-95450794D01*
X145193743Y-95420430D01*
X145132103Y-95401732D01*
X145068000Y-95395418D01*
X142968000Y-95395418D01*
X142903897Y-95401732D01*
X142842257Y-95420430D01*
X142785450Y-95450794D01*
X142735657Y-95491657D01*
X142694794Y-95541450D01*
X142664430Y-95598257D01*
X142645732Y-95659897D01*
X142639418Y-95724000D01*
X139554395Y-95724000D01*
X139675461Y-95602934D01*
X139573661Y-95333421D01*
X139275523Y-95187537D01*
X138954654Y-95102620D01*
X138623383Y-95081934D01*
X138294443Y-95126272D01*
X137980473Y-95233931D01*
X137794339Y-95333421D01*
X137692539Y-95602934D01*
X136869912Y-95602934D01*
X136796254Y-95553718D01*
X136545656Y-95449917D01*
X136279623Y-95397000D01*
X136008377Y-95397000D01*
X135742344Y-95449917D01*
X135491746Y-95553718D01*
X135266213Y-95704414D01*
X135074414Y-95896213D01*
X134982582Y-96033650D01*
X134982582Y-95724000D01*
X134976268Y-95659897D01*
X134957570Y-95598257D01*
X134927206Y-95541450D01*
X134886343Y-95491657D01*
X134836550Y-95450794D01*
X134779743Y-95420430D01*
X134718103Y-95401732D01*
X134654000Y-95395418D01*
X134181000Y-95395418D01*
X134181000Y-94303000D01*
X147233999Y-94303000D01*
X149319001Y-96388002D01*
X149319000Y-98208039D01*
X149336393Y-98384632D01*
X149405124Y-98611210D01*
X149516739Y-98820025D01*
X149666946Y-99003054D01*
X149849974Y-99153261D01*
X149854500Y-99155680D01*
X149854500Y-99567475D01*
X149787241Y-99668136D01*
X149732438Y-99800442D01*
X149704500Y-99940897D01*
X149704500Y-100084103D01*
X149732438Y-100224558D01*
X149787241Y-100356864D01*
X149866802Y-100475936D01*
X149968064Y-100577198D01*
X150087136Y-100656759D01*
X150219442Y-100711562D01*
X150359897Y-100739500D01*
X150503103Y-100739500D01*
X150643558Y-100711562D01*
X150775864Y-100656759D01*
X150894936Y-100577198D01*
X150996198Y-100475936D01*
X151075759Y-100356864D01*
X151130562Y-100224558D01*
X151158500Y-100084103D01*
X151158500Y-99940897D01*
X151130562Y-99800442D01*
X151075759Y-99668136D01*
X151008500Y-99567475D01*
X151008500Y-99251358D01*
X151192025Y-99153261D01*
X151375054Y-99003054D01*
X151525261Y-98820026D01*
X151636876Y-98611211D01*
X151705607Y-98384633D01*
X151723000Y-98208040D01*
X151723000Y-98208039D01*
X152569000Y-98208039D01*
X152586393Y-98384632D01*
X152655124Y-98611210D01*
X152766739Y-98820025D01*
X152916946Y-99003054D01*
X153099974Y-99153261D01*
X153220000Y-99217417D01*
X153220000Y-99567475D01*
X153152741Y-99668136D01*
X153097938Y-99800442D01*
X153070000Y-99940897D01*
X153070000Y-100084103D01*
X153097938Y-100224558D01*
X153152741Y-100356864D01*
X153232302Y-100475936D01*
X153333564Y-100577198D01*
X153452636Y-100656759D01*
X153584942Y-100711562D01*
X153725397Y-100739500D01*
X153868603Y-100739500D01*
X154009058Y-100711562D01*
X154141364Y-100656759D01*
X154260436Y-100577198D01*
X154361698Y-100475936D01*
X154441259Y-100356864D01*
X154496062Y-100224558D01*
X154524000Y-100084103D01*
X154524000Y-99940897D01*
X154496062Y-99800442D01*
X154441259Y-99668136D01*
X154374000Y-99567475D01*
X154374000Y-99523000D01*
X155327000Y-99523000D01*
X155327000Y-100073000D01*
X155373585Y-100291987D01*
X155461997Y-100497678D01*
X155588839Y-100682169D01*
X155749236Y-100838369D01*
X155937024Y-100960276D01*
X156160126Y-101040119D01*
X156335000Y-100913954D01*
X156335000Y-99523000D01*
X155327000Y-99523000D01*
X154374000Y-99523000D01*
X154374000Y-99189621D01*
X154442025Y-99153261D01*
X154625054Y-99003054D01*
X154775261Y-98820026D01*
X154829261Y-98719000D01*
X155327000Y-98719000D01*
X155327000Y-99269000D01*
X156335000Y-99269000D01*
X156335000Y-97878046D01*
X156589000Y-97878046D01*
X156589000Y-99269000D01*
X156609000Y-99269000D01*
X156609000Y-99452248D01*
X156606188Y-99461518D01*
X156600133Y-99523000D01*
X156589000Y-99523000D01*
X156589000Y-100913954D01*
X156594753Y-100918104D01*
X156593928Y-101036000D01*
X156606188Y-101160482D01*
X156642498Y-101280180D01*
X156701463Y-101390494D01*
X156780815Y-101487185D01*
X156877506Y-101566537D01*
X156987820Y-101625502D01*
X157107518Y-101661812D01*
X157232000Y-101674072D01*
X157246250Y-101671000D01*
X157405000Y-101512250D01*
X157405000Y-100580589D01*
X157462003Y-100497678D01*
X157550415Y-100291987D01*
X157577642Y-100164000D01*
X157659000Y-100164000D01*
X157659000Y-100184000D01*
X157679000Y-100184000D01*
X157679000Y-100438000D01*
X157659000Y-100438000D01*
X157659000Y-101512250D01*
X157817750Y-101671000D01*
X157832000Y-101674072D01*
X157891069Y-101668254D01*
X157903963Y-101683966D01*
X157903966Y-101683969D01*
X157922027Y-101705976D01*
X157944034Y-101724037D01*
X158093960Y-101873963D01*
X158112025Y-101895975D01*
X158199884Y-101968080D01*
X158300123Y-102021658D01*
X158408887Y-102054651D01*
X158493663Y-102063001D01*
X158493669Y-102063001D01*
X158521998Y-102065791D01*
X158550327Y-102063001D01*
X162614999Y-102063001D01*
X162615000Y-105188158D01*
X162612209Y-105216499D01*
X162623348Y-105329610D01*
X162656343Y-105438375D01*
X162709921Y-105538614D01*
X162740839Y-105576287D01*
X162763962Y-105604463D01*
X162763965Y-105604466D01*
X162782026Y-105626473D01*
X162804032Y-105644533D01*
X164186820Y-107027322D01*
X164210438Y-107146058D01*
X164265241Y-107278364D01*
X164344802Y-107397436D01*
X164446064Y-107498698D01*
X164565136Y-107578259D01*
X164697442Y-107633062D01*
X164837897Y-107661000D01*
X164981103Y-107661000D01*
X165121558Y-107633062D01*
X165253864Y-107578259D01*
X165372936Y-107498698D01*
X165474198Y-107397436D01*
X165553759Y-107278364D01*
X165608562Y-107146058D01*
X165636500Y-107005603D01*
X165636500Y-106862397D01*
X165608562Y-106721942D01*
X165553759Y-106589636D01*
X165474198Y-106470564D01*
X165372936Y-106369302D01*
X165253864Y-106289741D01*
X165121558Y-106234938D01*
X165002822Y-106211320D01*
X163768999Y-104977498D01*
X163768999Y-101663452D01*
X163775618Y-101641632D01*
X163905000Y-101512250D01*
X163905000Y-100438000D01*
X163885000Y-100438000D01*
X163885000Y-100184000D01*
X163905000Y-100184000D01*
X163905000Y-100164000D01*
X163986358Y-100164000D01*
X164013585Y-100291987D01*
X164101997Y-100497678D01*
X164159000Y-100580589D01*
X164159000Y-101512250D01*
X164317750Y-101671000D01*
X164332000Y-101674072D01*
X164456482Y-101661812D01*
X164576180Y-101625502D01*
X164686494Y-101566537D01*
X164783185Y-101487185D01*
X164862537Y-101390494D01*
X164921502Y-101280180D01*
X164957812Y-101160482D01*
X164970072Y-101036000D01*
X164969247Y-100918104D01*
X164975000Y-100913954D01*
X164975000Y-99523000D01*
X165229000Y-99523000D01*
X165229000Y-100913954D01*
X165403874Y-101040119D01*
X165626976Y-100960276D01*
X165814764Y-100838369D01*
X165975161Y-100682169D01*
X166102003Y-100497678D01*
X166190415Y-100291987D01*
X166237000Y-100073000D01*
X166237000Y-99523000D01*
X165229000Y-99523000D01*
X164975000Y-99523000D01*
X164963867Y-99523000D01*
X164957812Y-99461518D01*
X164955000Y-99452248D01*
X164955000Y-99269000D01*
X164975000Y-99269000D01*
X164975000Y-97878046D01*
X165229000Y-97878046D01*
X165229000Y-99269000D01*
X166237000Y-99269000D01*
X166237000Y-98719000D01*
X166190415Y-98500013D01*
X166102003Y-98294322D01*
X165975161Y-98109831D01*
X165814764Y-97953631D01*
X165626976Y-97831724D01*
X165403874Y-97751881D01*
X165229000Y-97878046D01*
X164975000Y-97878046D01*
X164800126Y-97751881D01*
X164577024Y-97831724D01*
X164389236Y-97953631D01*
X164228839Y-98109831D01*
X164101997Y-98294322D01*
X164077007Y-98352462D01*
X163980838Y-98288205D01*
X163862181Y-98239056D01*
X163736216Y-98214000D01*
X163727723Y-98214000D01*
X165148715Y-96793010D01*
X167256060Y-96793010D01*
X167211928Y-96829228D01*
X167143860Y-96912169D01*
X167093281Y-97006795D01*
X167062135Y-97109471D01*
X167051618Y-97216250D01*
X167051618Y-97728750D01*
X167062135Y-97835529D01*
X167093281Y-97938205D01*
X167143860Y-98032831D01*
X167211928Y-98115772D01*
X167294869Y-98183840D01*
X167315001Y-98194601D01*
X167315000Y-98297160D01*
X167303564Y-98304802D01*
X167202302Y-98406064D01*
X167122741Y-98525136D01*
X167067938Y-98657442D01*
X167040000Y-98797897D01*
X167040000Y-98941103D01*
X167067938Y-99081558D01*
X167122741Y-99213864D01*
X167202302Y-99332936D01*
X167303564Y-99434198D01*
X167422636Y-99513759D01*
X167554942Y-99568562D01*
X167695397Y-99596500D01*
X167838603Y-99596500D01*
X167979058Y-99568562D01*
X168111364Y-99513759D01*
X168230436Y-99434198D01*
X168331698Y-99332936D01*
X168411259Y-99213864D01*
X168466062Y-99081558D01*
X168494000Y-98941103D01*
X168494000Y-98797897D01*
X168466062Y-98657442D01*
X168411259Y-98525136D01*
X168331698Y-98406064D01*
X168230436Y-98304802D01*
X168219000Y-98297161D01*
X168219000Y-98242580D01*
X168245905Y-98234419D01*
X168340531Y-98183840D01*
X168423472Y-98115772D01*
X168491540Y-98032831D01*
X168542119Y-97938205D01*
X168573265Y-97835529D01*
X168583782Y-97728750D01*
X168583782Y-97216250D01*
X168626618Y-97216250D01*
X168626618Y-97728750D01*
X168637135Y-97835529D01*
X168668281Y-97938205D01*
X168718860Y-98032831D01*
X168786928Y-98115772D01*
X168869869Y-98183840D01*
X168964495Y-98234419D01*
X169067171Y-98265565D01*
X169173950Y-98276082D01*
X169611450Y-98276082D01*
X169718229Y-98265565D01*
X169820905Y-98234419D01*
X169915531Y-98183840D01*
X169998472Y-98115772D01*
X170066540Y-98032831D01*
X170117119Y-97938205D01*
X170148265Y-97835529D01*
X170158782Y-97728750D01*
X170158782Y-97216250D01*
X170148265Y-97109471D01*
X170117119Y-97006795D01*
X170066540Y-96912169D01*
X169998472Y-96829228D01*
X169915531Y-96761160D01*
X169844700Y-96723300D01*
X169844700Y-96641814D01*
X169923864Y-96599500D01*
X170003964Y-96533764D01*
X170069700Y-96453664D01*
X170118546Y-96362280D01*
X170148625Y-96263121D01*
X170158782Y-96160000D01*
X170158782Y-95610000D01*
X170148625Y-95506879D01*
X170118546Y-95407720D01*
X170069700Y-95316336D01*
X170003964Y-95236236D01*
X169923864Y-95170500D01*
X169832480Y-95121654D01*
X169733321Y-95091575D01*
X169630200Y-95081418D01*
X169230200Y-95081418D01*
X169127079Y-95091575D01*
X169027920Y-95121654D01*
X168936536Y-95170500D01*
X168856436Y-95236236D01*
X168790700Y-95316336D01*
X168741854Y-95407720D01*
X168711775Y-95506879D01*
X168701618Y-95610000D01*
X168701618Y-96160000D01*
X168711775Y-96263121D01*
X168741854Y-96362280D01*
X168790700Y-96453664D01*
X168856436Y-96533764D01*
X168936536Y-96599500D01*
X168940701Y-96601726D01*
X168940700Y-96723300D01*
X168869869Y-96761160D01*
X168786928Y-96829228D01*
X168718860Y-96912169D01*
X168668281Y-97006795D01*
X168637135Y-97109471D01*
X168626618Y-97216250D01*
X168583782Y-97216250D01*
X168573265Y-97109471D01*
X168542119Y-97006795D01*
X168491540Y-96912169D01*
X168423472Y-96829228D01*
X168340531Y-96761160D01*
X168245905Y-96710581D01*
X168143229Y-96679435D01*
X168095492Y-96674733D01*
X168182480Y-96648346D01*
X168273864Y-96599500D01*
X168353964Y-96533764D01*
X168419700Y-96453664D01*
X168468546Y-96362280D01*
X168498625Y-96263121D01*
X168508782Y-96160000D01*
X168508782Y-95610000D01*
X168498625Y-95506879D01*
X168468546Y-95407720D01*
X168419700Y-95316336D01*
X168353964Y-95236236D01*
X168273864Y-95170500D01*
X168182480Y-95121654D01*
X168083321Y-95091575D01*
X167980200Y-95081418D01*
X167580200Y-95081418D01*
X167477079Y-95091575D01*
X167377920Y-95121654D01*
X167286536Y-95170500D01*
X167206436Y-95236236D01*
X167140700Y-95316336D01*
X167091854Y-95407720D01*
X167061775Y-95506879D01*
X167051618Y-95610000D01*
X167051618Y-95889010D01*
X166178800Y-95889010D01*
X166190415Y-95861987D01*
X166237000Y-95643000D01*
X166237000Y-95343000D01*
X165229000Y-95343000D01*
X165229000Y-95363000D01*
X164975000Y-95363000D01*
X164975000Y-95343000D01*
X163967000Y-95343000D01*
X163967000Y-95643000D01*
X164013585Y-95861987D01*
X164101997Y-96067678D01*
X164228839Y-96252169D01*
X164321181Y-96342095D01*
X162718095Y-97945182D01*
X162700841Y-97959342D01*
X162659630Y-98009558D01*
X162644357Y-98028168D01*
X162602385Y-98106692D01*
X162576539Y-98191894D01*
X162567812Y-98280501D01*
X162570000Y-98302716D01*
X162569999Y-99257418D01*
X162382000Y-99257418D01*
X162317897Y-99263732D01*
X162282000Y-99274621D01*
X162246103Y-99263732D01*
X162182000Y-99257418D01*
X161882000Y-99257418D01*
X161817897Y-99263732D01*
X161782000Y-99274621D01*
X161746103Y-99263732D01*
X161682000Y-99257418D01*
X161382000Y-99257418D01*
X161317897Y-99263732D01*
X161282000Y-99274621D01*
X161246103Y-99263732D01*
X161182000Y-99257418D01*
X160882000Y-99257418D01*
X160817897Y-99263732D01*
X160782000Y-99274621D01*
X160746103Y-99263732D01*
X160682000Y-99257418D01*
X160382000Y-99257418D01*
X160317897Y-99263732D01*
X160282000Y-99274621D01*
X160246103Y-99263732D01*
X160182000Y-99257418D01*
X159882000Y-99257418D01*
X159817897Y-99263732D01*
X159782000Y-99274621D01*
X159746103Y-99263732D01*
X159682000Y-99257418D01*
X159382000Y-99257418D01*
X159317897Y-99263732D01*
X159282000Y-99274621D01*
X159246103Y-99263732D01*
X159182000Y-99257418D01*
X158882000Y-99257418D01*
X158817897Y-99263732D01*
X158757000Y-99282205D01*
X158696103Y-99263732D01*
X158632000Y-99257418D01*
X158414617Y-99257418D01*
X158469795Y-99174838D01*
X158518944Y-99056181D01*
X158544000Y-98930216D01*
X158544000Y-98801784D01*
X158518944Y-98675819D01*
X158469795Y-98557162D01*
X158398442Y-98450374D01*
X158307626Y-98359558D01*
X158200838Y-98288205D01*
X158082181Y-98239056D01*
X157956216Y-98214000D01*
X157827784Y-98214000D01*
X157701819Y-98239056D01*
X157583162Y-98288205D01*
X157486993Y-98352462D01*
X157462003Y-98294322D01*
X157335161Y-98109831D01*
X157174764Y-97953631D01*
X156986976Y-97831724D01*
X156763874Y-97751881D01*
X156589000Y-97878046D01*
X156335000Y-97878046D01*
X156160126Y-97751881D01*
X155937024Y-97831724D01*
X155749236Y-97953631D01*
X155588839Y-98109831D01*
X155461997Y-98294322D01*
X155373585Y-98500013D01*
X155327000Y-98719000D01*
X154829261Y-98719000D01*
X154886876Y-98611211D01*
X154955607Y-98384633D01*
X154973000Y-98208040D01*
X154973000Y-95343000D01*
X155327000Y-95343000D01*
X155327000Y-95643000D01*
X155373585Y-95861987D01*
X155461997Y-96067678D01*
X155588839Y-96252169D01*
X155749236Y-96408369D01*
X155937024Y-96530276D01*
X156160126Y-96610119D01*
X156335000Y-96483954D01*
X156335000Y-95343000D01*
X156589000Y-95343000D01*
X156589000Y-96483954D01*
X156763874Y-96610119D01*
X156986976Y-96530276D01*
X157174764Y-96408369D01*
X157335161Y-96252169D01*
X157462003Y-96067678D01*
X157550415Y-95861987D01*
X157597000Y-95643000D01*
X157597000Y-95343000D01*
X156589000Y-95343000D01*
X156335000Y-95343000D01*
X155327000Y-95343000D01*
X154973000Y-95343000D01*
X154973000Y-95339960D01*
X154955607Y-95163367D01*
X154886876Y-94936789D01*
X154807881Y-94789000D01*
X155327000Y-94789000D01*
X155327000Y-95089000D01*
X156335000Y-95089000D01*
X156335000Y-93948046D01*
X156589000Y-93948046D01*
X156589000Y-95089000D01*
X157597000Y-95089000D01*
X157597000Y-94789000D01*
X163967000Y-94789000D01*
X163967000Y-95089000D01*
X164975000Y-95089000D01*
X164975000Y-93948046D01*
X165229000Y-93948046D01*
X165229000Y-95089000D01*
X166237000Y-95089000D01*
X166237000Y-94789000D01*
X166220977Y-94713679D01*
X172032000Y-94713679D01*
X172032000Y-95024321D01*
X172092604Y-95328994D01*
X172211481Y-95615989D01*
X172384064Y-95874279D01*
X172603721Y-96093936D01*
X172862011Y-96266519D01*
X173149006Y-96385396D01*
X173453679Y-96446000D01*
X173764321Y-96446000D01*
X174068994Y-96385396D01*
X174355989Y-96266519D01*
X174614279Y-96093936D01*
X174833936Y-95874279D01*
X175006519Y-95615989D01*
X175125396Y-95328994D01*
X175186000Y-95024321D01*
X175186000Y-94713679D01*
X175125396Y-94409006D01*
X175006519Y-94122011D01*
X174833936Y-93863721D01*
X174614279Y-93644064D01*
X174355989Y-93471481D01*
X174068994Y-93352604D01*
X173764321Y-93292000D01*
X173453679Y-93292000D01*
X173149006Y-93352604D01*
X172862011Y-93471481D01*
X172603721Y-93644064D01*
X172384064Y-93863721D01*
X172211481Y-94122011D01*
X172092604Y-94409006D01*
X172032000Y-94713679D01*
X166220977Y-94713679D01*
X166190415Y-94570013D01*
X166102003Y-94364322D01*
X165975161Y-94179831D01*
X165814764Y-94023631D01*
X165626976Y-93901724D01*
X165403874Y-93821881D01*
X165229000Y-93948046D01*
X164975000Y-93948046D01*
X164800126Y-93821881D01*
X164577024Y-93901724D01*
X164389236Y-94023631D01*
X164228839Y-94179831D01*
X164101997Y-94364322D01*
X164013585Y-94570013D01*
X163967000Y-94789000D01*
X157597000Y-94789000D01*
X157550415Y-94570013D01*
X157462003Y-94364322D01*
X157335161Y-94179831D01*
X157174764Y-94023631D01*
X156986976Y-93901724D01*
X156763874Y-93821881D01*
X156589000Y-93948046D01*
X156335000Y-93948046D01*
X156160126Y-93821881D01*
X155937024Y-93901724D01*
X155749236Y-94023631D01*
X155588839Y-94179831D01*
X155461997Y-94364322D01*
X155373585Y-94570013D01*
X155327000Y-94789000D01*
X154807881Y-94789000D01*
X154775261Y-94727974D01*
X154625054Y-94544946D01*
X154442026Y-94394739D01*
X154233211Y-94283124D01*
X154006633Y-94214393D01*
X153771000Y-94191185D01*
X153535368Y-94214393D01*
X153308790Y-94283124D01*
X153099975Y-94394739D01*
X152916947Y-94544946D01*
X152766740Y-94727974D01*
X152655125Y-94936789D01*
X152586394Y-95163367D01*
X152569001Y-95339960D01*
X152569000Y-98208039D01*
X151723000Y-98208039D01*
X151723000Y-95339960D01*
X151705607Y-95163367D01*
X151636876Y-94936789D01*
X151525261Y-94727974D01*
X151375054Y-94544946D01*
X151192026Y-94394739D01*
X150983211Y-94283124D01*
X150756633Y-94214393D01*
X150521000Y-94191185D01*
X150285368Y-94214393D01*
X150058790Y-94283124D01*
X149849975Y-94394739D01*
X149666947Y-94544946D01*
X149516740Y-94727974D01*
X149438100Y-94875099D01*
X147901039Y-93338038D01*
X147882974Y-93316026D01*
X147795115Y-93243921D01*
X147694876Y-93190343D01*
X147630770Y-93170897D01*
X147586111Y-93157349D01*
X147531045Y-93151926D01*
X147501336Y-93149000D01*
X147501331Y-93149000D01*
X147473000Y-93146210D01*
X147444669Y-93149000D01*
X133886328Y-93149000D01*
X133857999Y-93146210D01*
X133829670Y-93149000D01*
X123853331Y-93149000D01*
X123825000Y-93146210D01*
X123796669Y-93149000D01*
X114772831Y-93149000D01*
X114744500Y-93146210D01*
X114716169Y-93149000D01*
X114716164Y-93149000D01*
X114689386Y-93151637D01*
X114631388Y-93157349D01*
X114567282Y-93176796D01*
X114522624Y-93190343D01*
X114422385Y-93243921D01*
X114334526Y-93316026D01*
X114316461Y-93338038D01*
X113912034Y-93742465D01*
X113890027Y-93760526D01*
X113871966Y-93782533D01*
X113871963Y-93782536D01*
X113856699Y-93801136D01*
X113817922Y-93848385D01*
X113808032Y-93866889D01*
X113764344Y-93948624D01*
X113731349Y-94057389D01*
X113720210Y-94170500D01*
X113723001Y-94198841D01*
X113723001Y-95395418D01*
X113250000Y-95395418D01*
X113185897Y-95401732D01*
X113124257Y-95420430D01*
X113067450Y-95450794D01*
X113017657Y-95491657D01*
X112976794Y-95541450D01*
X112946430Y-95598257D01*
X112927732Y-95659897D01*
X112921418Y-95724000D01*
X112921418Y-96280194D01*
X110787223Y-94146000D01*
X110773059Y-94128741D01*
X110704233Y-94072257D01*
X110625710Y-94030286D01*
X110540507Y-94004440D01*
X110474105Y-93997900D01*
X110451900Y-93995713D01*
X110429695Y-93997900D01*
X109673714Y-93997900D01*
X109666046Y-93972620D01*
X109617200Y-93881236D01*
X109551464Y-93801136D01*
X109471364Y-93735400D01*
X109379980Y-93686554D01*
X109280821Y-93656475D01*
X109177700Y-93646318D01*
X108777700Y-93646318D01*
X108674579Y-93656475D01*
X108575420Y-93686554D01*
X108484036Y-93735400D01*
X108403936Y-93801136D01*
X108338200Y-93881236D01*
X108289354Y-93972620D01*
X108259275Y-94071779D01*
X108249118Y-94174900D01*
X108249118Y-94724900D01*
X108259275Y-94828021D01*
X108289354Y-94927180D01*
X108338200Y-95018564D01*
X108403936Y-95098664D01*
X108484036Y-95164400D01*
X108575420Y-95213246D01*
X108674579Y-95243325D01*
X108678129Y-95243675D01*
X108675079Y-95243975D01*
X108575920Y-95274054D01*
X108484536Y-95322900D01*
X108404436Y-95388636D01*
X108338700Y-95468736D01*
X108289854Y-95560120D01*
X108259775Y-95659279D01*
X108249618Y-95762400D01*
X108249618Y-96312400D01*
X108259775Y-96415521D01*
X108289854Y-96514680D01*
X108335786Y-96600611D01*
X108259020Y-96623898D01*
X108148706Y-96682863D01*
X108052015Y-96762215D01*
X107972663Y-96858906D01*
X107913698Y-96969220D01*
X107906777Y-96992034D01*
X107888531Y-96977060D01*
X107793905Y-96926481D01*
X107780200Y-96922324D01*
X107780200Y-96774170D01*
X107821864Y-96751900D01*
X107901964Y-96686164D01*
X107967700Y-96606064D01*
X108016546Y-96514680D01*
X108046625Y-96415521D01*
X108056782Y-96312400D01*
X108056782Y-95762400D01*
X108046625Y-95659279D01*
X108016546Y-95560120D01*
X107967700Y-95468736D01*
X107901964Y-95388636D01*
X107821864Y-95322900D01*
X107730480Y-95274054D01*
X107631321Y-95243975D01*
X107627771Y-95243625D01*
X107630821Y-95243325D01*
X107729980Y-95213246D01*
X107821364Y-95164400D01*
X107901464Y-95098664D01*
X107967200Y-95018564D01*
X108016046Y-94927180D01*
X108046125Y-94828021D01*
X108056282Y-94724900D01*
X108056282Y-94174900D01*
X108046125Y-94071779D01*
X108016046Y-93972620D01*
X107967200Y-93881236D01*
X107901464Y-93801136D01*
X107821364Y-93735400D01*
X107729980Y-93686554D01*
X107630821Y-93656475D01*
X107527700Y-93646318D01*
X107127700Y-93646318D01*
X107024579Y-93656475D01*
X106925420Y-93686554D01*
X106834036Y-93735400D01*
X106753936Y-93801136D01*
X106688200Y-93881236D01*
X106639354Y-93972620D01*
X106609275Y-94071779D01*
X106599118Y-94174900D01*
X106599118Y-94422000D01*
X104658582Y-94422000D01*
X104658582Y-94374000D01*
X104652268Y-94309897D01*
X104633570Y-94248257D01*
X104603206Y-94191450D01*
X104562343Y-94141657D01*
X104512550Y-94100794D01*
X104455743Y-94070430D01*
X104394103Y-94051732D01*
X104330000Y-94045418D01*
X102630000Y-94045418D01*
X102565897Y-94051732D01*
X102504257Y-94070430D01*
X102447450Y-94100794D01*
X102397657Y-94141657D01*
X102356794Y-94191450D01*
X102326430Y-94248257D01*
X102307732Y-94309897D01*
X102301418Y-94374000D01*
X102301418Y-94422000D01*
X98358582Y-94422000D01*
X98358582Y-94374000D01*
X98352268Y-94309897D01*
X98333570Y-94248257D01*
X98303206Y-94191450D01*
X98262343Y-94141657D01*
X98212550Y-94100794D01*
X98155743Y-94070430D01*
X98094103Y-94051732D01*
X98030000Y-94045418D01*
X96330000Y-94045418D01*
X96265897Y-94051732D01*
X96204257Y-94070430D01*
X96147450Y-94100794D01*
X96097657Y-94141657D01*
X96056794Y-94191450D01*
X96026430Y-94248257D01*
X96007732Y-94309897D01*
X96001418Y-94374000D01*
X93322897Y-94374000D01*
X93218519Y-94122011D01*
X93045936Y-93863721D01*
X92826279Y-93644064D01*
X92567989Y-93471481D01*
X92280994Y-93352604D01*
X91976321Y-93292000D01*
X91665679Y-93292000D01*
X91361006Y-93352604D01*
X91074011Y-93471481D01*
X90815721Y-93644064D01*
X90596064Y-93863721D01*
X90423481Y-94122011D01*
X90304604Y-94409006D01*
X90244000Y-94713679D01*
X89277000Y-94713679D01*
X89277000Y-92325000D01*
X176153000Y-92325000D01*
X176153000Y-108951419D01*
G04 #@! TA.AperFunction,Conductor*
D26*
G36*
X176153000Y-108951419D02*
G01*
X168878001Y-108951419D01*
X168813898Y-108957733D01*
X168752258Y-108976431D01*
X168695451Y-109006795D01*
X168645658Y-109047658D01*
X168604795Y-109097451D01*
X168574431Y-109154258D01*
X168555733Y-109215898D01*
X168549419Y-109280001D01*
X168549419Y-112453000D01*
X168339025Y-112453000D01*
X168238364Y-112385741D01*
X168106058Y-112330938D01*
X167965603Y-112303000D01*
X167822397Y-112303000D01*
X167681942Y-112330938D01*
X167549636Y-112385741D01*
X167430564Y-112465302D01*
X167329302Y-112566564D01*
X167321661Y-112578000D01*
X159318224Y-112578000D01*
X157823317Y-111083093D01*
X157826000Y-111069603D01*
X157826000Y-110926397D01*
X157798062Y-110785942D01*
X157743259Y-110653636D01*
X157663698Y-110534564D01*
X157562436Y-110433302D01*
X157443364Y-110353741D01*
X157311058Y-110298938D01*
X157170603Y-110271000D01*
X157027397Y-110271000D01*
X156886942Y-110298938D01*
X156754636Y-110353741D01*
X156635564Y-110433302D01*
X156534302Y-110534564D01*
X156454741Y-110653636D01*
X156399938Y-110785942D01*
X156372000Y-110926397D01*
X156372000Y-111069603D01*
X156399938Y-111210058D01*
X156454741Y-111342364D01*
X156534302Y-111461436D01*
X156635564Y-111562698D01*
X156754636Y-111642259D01*
X156886942Y-111697062D01*
X157027397Y-111725000D01*
X157170603Y-111725000D01*
X157184093Y-111722317D01*
X158795681Y-113333905D01*
X158809841Y-113351159D01*
X158878667Y-113407643D01*
X158939155Y-113439974D01*
X158957190Y-113449614D01*
X159042392Y-113475460D01*
X159131000Y-113484187D01*
X159153205Y-113482000D01*
X167321661Y-113482000D01*
X167329302Y-113493436D01*
X167430564Y-113594698D01*
X167549636Y-113674259D01*
X167681942Y-113729062D01*
X167822397Y-113757000D01*
X167965603Y-113757000D01*
X168106058Y-113729062D01*
X168238364Y-113674259D01*
X168339025Y-113607000D01*
X168549419Y-113607000D01*
X168549419Y-115630001D01*
X168555733Y-115694104D01*
X168574431Y-115755744D01*
X168604795Y-115812551D01*
X168645658Y-115862344D01*
X168695451Y-115903207D01*
X168752258Y-115933571D01*
X168813898Y-115952269D01*
X168878001Y-115958583D01*
X176153001Y-115958583D01*
X176153001Y-127131000D01*
X89277000Y-127131000D01*
X89277000Y-126453000D01*
X114081928Y-126453000D01*
X114094188Y-126577482D01*
X114130498Y-126697180D01*
X114189463Y-126807494D01*
X114268815Y-126904185D01*
X114365506Y-126983537D01*
X114475820Y-127042502D01*
X114595518Y-127078812D01*
X114720000Y-127091072D01*
X115284250Y-127088000D01*
X115443000Y-126929250D01*
X115443000Y-125730000D01*
X114243750Y-125730000D01*
X114085000Y-125888750D01*
X114081928Y-126453000D01*
X89277000Y-126453000D01*
X89277000Y-124431679D01*
X90244000Y-124431679D01*
X90244000Y-124742321D01*
X90304604Y-125046994D01*
X90423481Y-125333989D01*
X90596064Y-125592279D01*
X90815721Y-125811936D01*
X91074011Y-125984519D01*
X91361006Y-126103396D01*
X91665679Y-126164000D01*
X91976321Y-126164000D01*
X92280994Y-126103396D01*
X92567989Y-125984519D01*
X92826279Y-125811936D01*
X93045936Y-125592279D01*
X93218519Y-125333989D01*
X93337396Y-125046994D01*
X93395875Y-124753000D01*
X114081928Y-124753000D01*
X114085000Y-125317250D01*
X114243750Y-125476000D01*
X115443000Y-125476000D01*
X115443000Y-124276750D01*
X115697000Y-124276750D01*
X115697000Y-125476000D01*
X115717000Y-125476000D01*
X115717000Y-125730000D01*
X115697000Y-125730000D01*
X115697000Y-126929250D01*
X115855750Y-127088000D01*
X116420000Y-127091072D01*
X116544482Y-127078812D01*
X116664180Y-127042502D01*
X116774494Y-126983537D01*
X116871185Y-126904185D01*
X116950537Y-126807494D01*
X117009502Y-126697180D01*
X117045812Y-126577482D01*
X117058072Y-126453000D01*
X117056340Y-126134890D01*
X117066956Y-126160519D01*
X117195764Y-126353294D01*
X117359706Y-126517236D01*
X117552481Y-126646044D01*
X117766682Y-126734769D01*
X117994076Y-126780000D01*
X118225924Y-126780000D01*
X118453318Y-126734769D01*
X118667519Y-126646044D01*
X118860294Y-126517236D01*
X119024236Y-126353294D01*
X119153044Y-126160519D01*
X119241769Y-125946318D01*
X119287000Y-125718924D01*
X119287000Y-125487076D01*
X119473000Y-125487076D01*
X119473000Y-125718924D01*
X119518231Y-125946318D01*
X119606956Y-126160519D01*
X119735764Y-126353294D01*
X119899706Y-126517236D01*
X120092481Y-126646044D01*
X120306682Y-126734769D01*
X120534076Y-126780000D01*
X120765924Y-126780000D01*
X120993318Y-126734769D01*
X121207519Y-126646044D01*
X121400294Y-126517236D01*
X121564236Y-126353294D01*
X121693044Y-126160519D01*
X121781769Y-125946318D01*
X121827000Y-125718924D01*
X121827000Y-125487076D01*
X122013000Y-125487076D01*
X122013000Y-125718924D01*
X122058231Y-125946318D01*
X122146956Y-126160519D01*
X122275764Y-126353294D01*
X122439706Y-126517236D01*
X122632481Y-126646044D01*
X122846682Y-126734769D01*
X123074076Y-126780000D01*
X123305924Y-126780000D01*
X123533318Y-126734769D01*
X123747519Y-126646044D01*
X123940294Y-126517236D01*
X124104236Y-126353294D01*
X124233044Y-126160519D01*
X124321769Y-125946318D01*
X124367000Y-125718924D01*
X124367000Y-125487076D01*
X124321769Y-125259682D01*
X124233044Y-125045481D01*
X124104236Y-124852706D01*
X123940294Y-124688764D01*
X123747519Y-124559956D01*
X123533318Y-124471231D01*
X123305924Y-124426000D01*
X123074076Y-124426000D01*
X122846682Y-124471231D01*
X122632481Y-124559956D01*
X122439706Y-124688764D01*
X122275764Y-124852706D01*
X122146956Y-125045481D01*
X122058231Y-125259682D01*
X122013000Y-125487076D01*
X121827000Y-125487076D01*
X121781769Y-125259682D01*
X121693044Y-125045481D01*
X121564236Y-124852706D01*
X121400294Y-124688764D01*
X121207519Y-124559956D01*
X120993318Y-124471231D01*
X120765924Y-124426000D01*
X120534076Y-124426000D01*
X120306682Y-124471231D01*
X120092481Y-124559956D01*
X119899706Y-124688764D01*
X119735764Y-124852706D01*
X119606956Y-125045481D01*
X119518231Y-125259682D01*
X119473000Y-125487076D01*
X119287000Y-125487076D01*
X119241769Y-125259682D01*
X119153044Y-125045481D01*
X119024236Y-124852706D01*
X118860294Y-124688764D01*
X118667519Y-124559956D01*
X118453318Y-124471231D01*
X118225924Y-124426000D01*
X117994076Y-124426000D01*
X117766682Y-124471231D01*
X117552481Y-124559956D01*
X117359706Y-124688764D01*
X117195764Y-124852706D01*
X117066956Y-125045481D01*
X117056340Y-125071110D01*
X117058072Y-124753000D01*
X117045812Y-124628518D01*
X117009502Y-124508820D01*
X116950537Y-124398506D01*
X116871185Y-124301815D01*
X116774494Y-124222463D01*
X116664180Y-124163498D01*
X116544482Y-124127188D01*
X116420000Y-124114928D01*
X115855750Y-124118000D01*
X115697000Y-124276750D01*
X115443000Y-124276750D01*
X115284250Y-124118000D01*
X114720000Y-124114928D01*
X114595518Y-124127188D01*
X114475820Y-124163498D01*
X114365506Y-124222463D01*
X114268815Y-124301815D01*
X114189463Y-124398506D01*
X114130498Y-124508820D01*
X114094188Y-124628518D01*
X114081928Y-124753000D01*
X93395875Y-124753000D01*
X93398000Y-124742321D01*
X93398000Y-124431679D01*
X93337396Y-124127006D01*
X93218519Y-123840011D01*
X93045936Y-123581721D01*
X92826279Y-123362064D01*
X92567989Y-123189481D01*
X92280994Y-123070604D01*
X91976321Y-123010000D01*
X91665679Y-123010000D01*
X91361006Y-123070604D01*
X91074011Y-123189481D01*
X90815721Y-123362064D01*
X90596064Y-123581721D01*
X90423481Y-123840011D01*
X90304604Y-124127006D01*
X90244000Y-124431679D01*
X89277000Y-124431679D01*
X89277000Y-122737397D01*
X110207500Y-122737397D01*
X110207500Y-122880603D01*
X110235438Y-123021058D01*
X110290241Y-123153364D01*
X110369802Y-123272436D01*
X110471064Y-123373698D01*
X110590136Y-123453259D01*
X110722442Y-123508062D01*
X110862897Y-123536000D01*
X111006103Y-123536000D01*
X111146558Y-123508062D01*
X111278864Y-123453259D01*
X111397936Y-123373698D01*
X111499198Y-123272436D01*
X111506839Y-123261000D01*
X111864795Y-123261000D01*
X111887000Y-123263187D01*
X111909205Y-123261000D01*
X111975607Y-123254460D01*
X112005483Y-123245397D01*
X118145000Y-123245397D01*
X118145000Y-123388603D01*
X118172938Y-123529058D01*
X118227741Y-123661364D01*
X118307302Y-123780436D01*
X118408564Y-123881698D01*
X118527636Y-123961259D01*
X118659942Y-124016062D01*
X118800397Y-124044000D01*
X118943603Y-124044000D01*
X119084058Y-124016062D01*
X119216364Y-123961259D01*
X119317025Y-123894000D01*
X123204999Y-123894000D01*
X124593660Y-125282662D01*
X124553000Y-125487076D01*
X124553000Y-125718924D01*
X124598231Y-125946318D01*
X124686956Y-126160519D01*
X124815764Y-126353294D01*
X124979706Y-126517236D01*
X125172481Y-126646044D01*
X125386682Y-126734769D01*
X125614076Y-126780000D01*
X125845924Y-126780000D01*
X126073318Y-126734769D01*
X126287519Y-126646044D01*
X126480294Y-126517236D01*
X126644236Y-126353294D01*
X126760027Y-126180000D01*
X126971669Y-126180000D01*
X127000000Y-126182790D01*
X127028331Y-126180000D01*
X127028336Y-126180000D01*
X127058045Y-126177074D01*
X127113111Y-126171651D01*
X127157770Y-126158103D01*
X127221876Y-126138657D01*
X127322115Y-126085079D01*
X127409974Y-126012974D01*
X127428039Y-125990962D01*
X128666001Y-124753000D01*
X133187418Y-124753000D01*
X133187418Y-126453000D01*
X133193732Y-126517103D01*
X133212430Y-126578743D01*
X133242794Y-126635550D01*
X133283657Y-126685343D01*
X133333450Y-126726206D01*
X133390257Y-126756570D01*
X133451897Y-126775268D01*
X133516000Y-126781582D01*
X135216000Y-126781582D01*
X135280103Y-126775268D01*
X135341743Y-126756570D01*
X135398550Y-126726206D01*
X135448343Y-126685343D01*
X135489206Y-126635550D01*
X135519570Y-126578743D01*
X135538268Y-126517103D01*
X135544582Y-126453000D01*
X135544582Y-125487076D01*
X135729000Y-125487076D01*
X135729000Y-125718924D01*
X135774231Y-125946318D01*
X135862956Y-126160519D01*
X135991764Y-126353294D01*
X136155706Y-126517236D01*
X136348481Y-126646044D01*
X136562682Y-126734769D01*
X136790076Y-126780000D01*
X137021924Y-126780000D01*
X137249318Y-126734769D01*
X137463519Y-126646044D01*
X137656294Y-126517236D01*
X137820236Y-126353294D01*
X137949044Y-126160519D01*
X138037769Y-125946318D01*
X138083000Y-125718924D01*
X138083000Y-125487076D01*
X138269000Y-125487076D01*
X138269000Y-125718924D01*
X138314231Y-125946318D01*
X138402956Y-126160519D01*
X138531764Y-126353294D01*
X138695706Y-126517236D01*
X138888481Y-126646044D01*
X139102682Y-126734769D01*
X139330076Y-126780000D01*
X139561924Y-126780000D01*
X139789318Y-126734769D01*
X140003519Y-126646044D01*
X140196294Y-126517236D01*
X140360236Y-126353294D01*
X140489044Y-126160519D01*
X140577769Y-125946318D01*
X140623000Y-125718924D01*
X140623000Y-125487076D01*
X140809000Y-125487076D01*
X140809000Y-125718924D01*
X140854231Y-125946318D01*
X140942956Y-126160519D01*
X141071764Y-126353294D01*
X141235706Y-126517236D01*
X141428481Y-126646044D01*
X141642682Y-126734769D01*
X141870076Y-126780000D01*
X142101924Y-126780000D01*
X142329318Y-126734769D01*
X142543519Y-126646044D01*
X142736294Y-126517236D01*
X142900236Y-126353294D01*
X143029044Y-126160519D01*
X143117769Y-125946318D01*
X143163000Y-125718924D01*
X143163000Y-125487076D01*
X143349000Y-125487076D01*
X143349000Y-125718924D01*
X143394231Y-125946318D01*
X143482956Y-126160519D01*
X143611764Y-126353294D01*
X143775706Y-126517236D01*
X143968481Y-126646044D01*
X144182682Y-126734769D01*
X144410076Y-126780000D01*
X144641924Y-126780000D01*
X144869318Y-126734769D01*
X145083519Y-126646044D01*
X145276294Y-126517236D01*
X145440236Y-126353294D01*
X145569044Y-126160519D01*
X145657769Y-125946318D01*
X145703000Y-125718924D01*
X145703000Y-125487076D01*
X145889000Y-125487076D01*
X145889000Y-125718924D01*
X145934231Y-125946318D01*
X146022956Y-126160519D01*
X146151764Y-126353294D01*
X146315706Y-126517236D01*
X146508481Y-126646044D01*
X146722682Y-126734769D01*
X146950076Y-126780000D01*
X147181924Y-126780000D01*
X147409318Y-126734769D01*
X147623519Y-126646044D01*
X147816294Y-126517236D01*
X147980236Y-126353294D01*
X148109044Y-126160519D01*
X148197769Y-125946318D01*
X148243000Y-125718924D01*
X148243000Y-125487076D01*
X148429000Y-125487076D01*
X148429000Y-125718924D01*
X148474231Y-125946318D01*
X148562956Y-126160519D01*
X148691764Y-126353294D01*
X148855706Y-126517236D01*
X149048481Y-126646044D01*
X149262682Y-126734769D01*
X149490076Y-126780000D01*
X149721924Y-126780000D01*
X149949318Y-126734769D01*
X150163519Y-126646044D01*
X150356294Y-126517236D01*
X150520236Y-126353294D01*
X150649044Y-126160519D01*
X150737769Y-125946318D01*
X150783000Y-125718924D01*
X150783000Y-125487076D01*
X150969000Y-125487076D01*
X150969000Y-125718924D01*
X151014231Y-125946318D01*
X151102956Y-126160519D01*
X151231764Y-126353294D01*
X151395706Y-126517236D01*
X151588481Y-126646044D01*
X151802682Y-126734769D01*
X152030076Y-126780000D01*
X152261924Y-126780000D01*
X152489318Y-126734769D01*
X152703519Y-126646044D01*
X152896294Y-126517236D01*
X153060236Y-126353294D01*
X153189044Y-126160519D01*
X153277769Y-125946318D01*
X153323000Y-125718924D01*
X153323000Y-125487076D01*
X153509000Y-125487076D01*
X153509000Y-125718924D01*
X153554231Y-125946318D01*
X153642956Y-126160519D01*
X153771764Y-126353294D01*
X153935706Y-126517236D01*
X154128481Y-126646044D01*
X154342682Y-126734769D01*
X154570076Y-126780000D01*
X154801924Y-126780000D01*
X155029318Y-126734769D01*
X155243519Y-126646044D01*
X155436294Y-126517236D01*
X155600236Y-126353294D01*
X155729044Y-126160519D01*
X155817769Y-125946318D01*
X155863000Y-125718924D01*
X155863000Y-125487076D01*
X155817769Y-125259682D01*
X155729044Y-125045481D01*
X155600236Y-124852706D01*
X155436294Y-124688764D01*
X155243519Y-124559956D01*
X155029318Y-124471231D01*
X154830475Y-124431679D01*
X172032000Y-124431679D01*
X172032000Y-124742321D01*
X172092604Y-125046994D01*
X172211481Y-125333989D01*
X172384064Y-125592279D01*
X172603721Y-125811936D01*
X172862011Y-125984519D01*
X173149006Y-126103396D01*
X173453679Y-126164000D01*
X173764321Y-126164000D01*
X174068994Y-126103396D01*
X174355989Y-125984519D01*
X174614279Y-125811936D01*
X174833936Y-125592279D01*
X175006519Y-125333989D01*
X175125396Y-125046994D01*
X175186000Y-124742321D01*
X175186000Y-124431679D01*
X175125396Y-124127006D01*
X175006519Y-123840011D01*
X174833936Y-123581721D01*
X174614279Y-123362064D01*
X174355989Y-123189481D01*
X174068994Y-123070604D01*
X173764321Y-123010000D01*
X173453679Y-123010000D01*
X173149006Y-123070604D01*
X172862011Y-123189481D01*
X172603721Y-123362064D01*
X172384064Y-123581721D01*
X172211481Y-123840011D01*
X172092604Y-124127006D01*
X172032000Y-124431679D01*
X154830475Y-124431679D01*
X154801924Y-124426000D01*
X154570076Y-124426000D01*
X154342682Y-124471231D01*
X154128481Y-124559956D01*
X153935706Y-124688764D01*
X153771764Y-124852706D01*
X153642956Y-125045481D01*
X153554231Y-125259682D01*
X153509000Y-125487076D01*
X153323000Y-125487076D01*
X153277769Y-125259682D01*
X153189044Y-125045481D01*
X153060236Y-124852706D01*
X152896294Y-124688764D01*
X152703519Y-124559956D01*
X152489318Y-124471231D01*
X152261924Y-124426000D01*
X152030076Y-124426000D01*
X151802682Y-124471231D01*
X151588481Y-124559956D01*
X151395706Y-124688764D01*
X151231764Y-124852706D01*
X151102956Y-125045481D01*
X151014231Y-125259682D01*
X150969000Y-125487076D01*
X150783000Y-125487076D01*
X150737769Y-125259682D01*
X150649044Y-125045481D01*
X150520236Y-124852706D01*
X150356294Y-124688764D01*
X150163519Y-124559956D01*
X149949318Y-124471231D01*
X149721924Y-124426000D01*
X149490076Y-124426000D01*
X149262682Y-124471231D01*
X149048481Y-124559956D01*
X148855706Y-124688764D01*
X148691764Y-124852706D01*
X148562956Y-125045481D01*
X148474231Y-125259682D01*
X148429000Y-125487076D01*
X148243000Y-125487076D01*
X148197769Y-125259682D01*
X148109044Y-125045481D01*
X147980236Y-124852706D01*
X147816294Y-124688764D01*
X147623519Y-124559956D01*
X147409318Y-124471231D01*
X147181924Y-124426000D01*
X146950076Y-124426000D01*
X146722682Y-124471231D01*
X146508481Y-124559956D01*
X146315706Y-124688764D01*
X146151764Y-124852706D01*
X146022956Y-125045481D01*
X145934231Y-125259682D01*
X145889000Y-125487076D01*
X145703000Y-125487076D01*
X145657769Y-125259682D01*
X145569044Y-125045481D01*
X145440236Y-124852706D01*
X145276294Y-124688764D01*
X145083519Y-124559956D01*
X144869318Y-124471231D01*
X144641924Y-124426000D01*
X144410076Y-124426000D01*
X144182682Y-124471231D01*
X143968481Y-124559956D01*
X143775706Y-124688764D01*
X143611764Y-124852706D01*
X143482956Y-125045481D01*
X143394231Y-125259682D01*
X143349000Y-125487076D01*
X143163000Y-125487076D01*
X143117769Y-125259682D01*
X143029044Y-125045481D01*
X142900236Y-124852706D01*
X142736294Y-124688764D01*
X142543519Y-124559956D01*
X142329318Y-124471231D01*
X142101924Y-124426000D01*
X141870076Y-124426000D01*
X141642682Y-124471231D01*
X141428481Y-124559956D01*
X141235706Y-124688764D01*
X141071764Y-124852706D01*
X140942956Y-125045481D01*
X140854231Y-125259682D01*
X140809000Y-125487076D01*
X140623000Y-125487076D01*
X140577769Y-125259682D01*
X140489044Y-125045481D01*
X140360236Y-124852706D01*
X140196294Y-124688764D01*
X140003519Y-124559956D01*
X139789318Y-124471231D01*
X139561924Y-124426000D01*
X139330076Y-124426000D01*
X139102682Y-124471231D01*
X138888481Y-124559956D01*
X138695706Y-124688764D01*
X138531764Y-124852706D01*
X138402956Y-125045481D01*
X138314231Y-125259682D01*
X138269000Y-125487076D01*
X138083000Y-125487076D01*
X138037769Y-125259682D01*
X137949044Y-125045481D01*
X137820236Y-124852706D01*
X137656294Y-124688764D01*
X137463519Y-124559956D01*
X137249318Y-124471231D01*
X137021924Y-124426000D01*
X136790076Y-124426000D01*
X136562682Y-124471231D01*
X136348481Y-124559956D01*
X136155706Y-124688764D01*
X135991764Y-124852706D01*
X135862956Y-125045481D01*
X135774231Y-125259682D01*
X135729000Y-125487076D01*
X135544582Y-125487076D01*
X135544582Y-124753000D01*
X135538268Y-124688897D01*
X135519570Y-124627257D01*
X135489206Y-124570450D01*
X135448343Y-124520657D01*
X135398550Y-124479794D01*
X135341743Y-124449430D01*
X135280103Y-124430732D01*
X135216000Y-124424418D01*
X133516000Y-124424418D01*
X133451897Y-124430732D01*
X133390257Y-124449430D01*
X133333450Y-124479794D01*
X133283657Y-124520657D01*
X133242794Y-124570450D01*
X133212430Y-124627257D01*
X133193732Y-124688897D01*
X133187418Y-124753000D01*
X128666001Y-124753000D01*
X131959963Y-121459038D01*
X131981974Y-121440974D01*
X132054079Y-121353115D01*
X132107657Y-121252876D01*
X132140650Y-121144112D01*
X132149000Y-121059336D01*
X132149000Y-121059330D01*
X132151790Y-121031001D01*
X132149000Y-121002672D01*
X132149000Y-105966501D01*
X133144501Y-104971000D01*
X149351475Y-104971000D01*
X149452136Y-105038259D01*
X149584442Y-105093062D01*
X149724897Y-105121000D01*
X149868103Y-105121000D01*
X150008558Y-105093062D01*
X150140864Y-105038259D01*
X150259936Y-104958698D01*
X150361198Y-104857436D01*
X150440759Y-104738364D01*
X150495562Y-104606058D01*
X150523500Y-104465603D01*
X150523500Y-104322397D01*
X150495562Y-104181942D01*
X150440759Y-104049636D01*
X150361198Y-103930564D01*
X150259936Y-103829302D01*
X150140864Y-103749741D01*
X150008558Y-103694938D01*
X149868103Y-103667000D01*
X149724897Y-103667000D01*
X149584442Y-103694938D01*
X149452136Y-103749741D01*
X149351475Y-103817000D01*
X132933831Y-103817000D01*
X132905500Y-103814210D01*
X132877169Y-103817000D01*
X132877164Y-103817000D01*
X132850386Y-103819637D01*
X132792388Y-103825349D01*
X132728282Y-103844796D01*
X132683624Y-103858343D01*
X132583385Y-103911921D01*
X132495526Y-103984026D01*
X132477461Y-104006038D01*
X131184034Y-105299465D01*
X131162027Y-105317526D01*
X131143966Y-105339533D01*
X131143963Y-105339536D01*
X131120840Y-105367712D01*
X131089922Y-105405385D01*
X131072289Y-105438375D01*
X131036344Y-105505624D01*
X131003349Y-105614389D01*
X130992210Y-105727500D01*
X130995001Y-105755841D01*
X130995000Y-120791999D01*
X126760999Y-125026000D01*
X126760027Y-125026000D01*
X126644236Y-124852706D01*
X126480294Y-124688764D01*
X126287519Y-124559956D01*
X126073318Y-124471231D01*
X125845924Y-124426000D01*
X125614076Y-124426000D01*
X125409662Y-124466660D01*
X123872039Y-122929038D01*
X123853974Y-122907026D01*
X123766115Y-122834921D01*
X123665876Y-122781343D01*
X123601770Y-122761897D01*
X123557111Y-122748349D01*
X123502045Y-122742926D01*
X123472336Y-122740000D01*
X123472331Y-122740000D01*
X123444000Y-122737210D01*
X123415669Y-122740000D01*
X119317025Y-122740000D01*
X119216364Y-122672741D01*
X119084058Y-122617938D01*
X118943603Y-122590000D01*
X118800397Y-122590000D01*
X118659942Y-122617938D01*
X118527636Y-122672741D01*
X118408564Y-122752302D01*
X118307302Y-122853564D01*
X118227741Y-122972636D01*
X118172938Y-123104942D01*
X118145000Y-123245397D01*
X112005483Y-123245397D01*
X112060810Y-123228614D01*
X112139333Y-123186643D01*
X112208159Y-123130159D01*
X112222323Y-123112900D01*
X115365911Y-119969314D01*
X115383159Y-119955159D01*
X115439643Y-119886333D01*
X115481614Y-119807810D01*
X115507460Y-119722607D01*
X115514000Y-119656205D01*
X115516187Y-119634001D01*
X115514000Y-119611796D01*
X115514000Y-109280223D01*
X117199407Y-107594817D01*
X117212897Y-107597500D01*
X117356103Y-107597500D01*
X117496558Y-107569562D01*
X117628864Y-107514759D01*
X117747936Y-107435198D01*
X117849198Y-107333936D01*
X117928759Y-107214864D01*
X117983562Y-107082558D01*
X118011500Y-106942103D01*
X118011500Y-106798897D01*
X117983562Y-106658442D01*
X117928759Y-106526136D01*
X117849198Y-106407064D01*
X117747936Y-106305802D01*
X117628864Y-106226241D01*
X117496558Y-106171438D01*
X117356103Y-106143500D01*
X117212897Y-106143500D01*
X117072442Y-106171438D01*
X116940136Y-106226241D01*
X116821064Y-106305802D01*
X116719802Y-106407064D01*
X116640241Y-106526136D01*
X116585438Y-106658442D01*
X116557500Y-106798897D01*
X116557500Y-106942103D01*
X116560183Y-106955593D01*
X114758100Y-108757677D01*
X114740841Y-108771841D01*
X114684358Y-108840667D01*
X114642386Y-108919191D01*
X114616540Y-109004393D01*
X114607813Y-109093000D01*
X114610000Y-109115205D01*
X114610001Y-119230786D01*
X114610000Y-119230796D01*
X114610000Y-119446775D01*
X111699777Y-122357000D01*
X111506839Y-122357000D01*
X111499198Y-122345564D01*
X111397936Y-122244302D01*
X111278864Y-122164741D01*
X111146558Y-122109938D01*
X111006103Y-122082000D01*
X110862897Y-122082000D01*
X110722442Y-122109938D01*
X110590136Y-122164741D01*
X110471064Y-122244302D01*
X110369802Y-122345564D01*
X110290241Y-122464636D01*
X110235438Y-122596942D01*
X110207500Y-122737397D01*
X89277000Y-122737397D01*
X89277000Y-120305097D01*
X95766001Y-120305097D01*
X95766001Y-120604905D01*
X95824491Y-120898952D01*
X95939222Y-121175938D01*
X96105787Y-121425219D01*
X96317783Y-121637215D01*
X96567064Y-121803780D01*
X96844050Y-121918511D01*
X97138097Y-121977001D01*
X97437905Y-121977001D01*
X97731952Y-121918511D01*
X98008938Y-121803780D01*
X98258219Y-121637215D01*
X98470215Y-121425219D01*
X98636780Y-121175938D01*
X98751511Y-120898952D01*
X98810001Y-120604905D01*
X98810001Y-120305097D01*
X98751511Y-120011050D01*
X98636780Y-119734064D01*
X98470215Y-119484783D01*
X98258219Y-119272787D01*
X98008938Y-119106222D01*
X97731952Y-118991491D01*
X97437905Y-118933001D01*
X97138097Y-118933001D01*
X96844050Y-118991491D01*
X96567064Y-119106222D01*
X96317783Y-119272787D01*
X96105787Y-119484783D01*
X95939222Y-119734064D01*
X95824491Y-120011050D01*
X95766001Y-120305097D01*
X89277000Y-120305097D01*
X89277000Y-109280001D01*
X89889419Y-109280001D01*
X89889419Y-115630001D01*
X89895733Y-115694104D01*
X89914431Y-115755744D01*
X89944795Y-115812551D01*
X89985658Y-115862344D01*
X90035451Y-115903207D01*
X90092258Y-115933571D01*
X90153898Y-115952269D01*
X90218001Y-115958583D01*
X92260000Y-115958583D01*
X92260000Y-116966475D01*
X92192741Y-117067136D01*
X92137938Y-117199442D01*
X92110000Y-117339897D01*
X92110000Y-117483103D01*
X92137938Y-117623558D01*
X92192741Y-117755864D01*
X92272302Y-117874936D01*
X92373564Y-117976198D01*
X92492636Y-118055759D01*
X92624942Y-118110562D01*
X92765397Y-118138500D01*
X92908603Y-118138500D01*
X93049058Y-118110562D01*
X93181364Y-118055759D01*
X93300436Y-117976198D01*
X93401698Y-117874936D01*
X93481259Y-117755864D01*
X93536062Y-117623558D01*
X93564000Y-117483103D01*
X93564000Y-117339897D01*
X93536062Y-117199442D01*
X93481259Y-117067136D01*
X93414000Y-116966475D01*
X93414000Y-115958583D01*
X97558001Y-115958583D01*
X97622104Y-115952269D01*
X97683744Y-115933571D01*
X97740551Y-115903207D01*
X97790344Y-115862344D01*
X97831207Y-115812551D01*
X97861571Y-115755744D01*
X97880269Y-115694104D01*
X97886583Y-115630001D01*
X97886583Y-109280001D01*
X97880269Y-109215898D01*
X97861571Y-109154258D01*
X97831207Y-109097451D01*
X97790344Y-109047658D01*
X97740551Y-109006795D01*
X97683744Y-108976431D01*
X97622104Y-108957733D01*
X97558001Y-108951419D01*
X96208000Y-108951419D01*
X96208000Y-108395025D01*
X96275259Y-108294364D01*
X96330062Y-108162058D01*
X96358000Y-108021603D01*
X96358000Y-107878397D01*
X96330062Y-107737942D01*
X96275259Y-107605636D01*
X96195698Y-107486564D01*
X96094436Y-107385302D01*
X95975364Y-107305741D01*
X95843058Y-107250938D01*
X95702603Y-107223000D01*
X95559397Y-107223000D01*
X95418942Y-107250938D01*
X95286636Y-107305741D01*
X95167564Y-107385302D01*
X95066302Y-107486564D01*
X94986741Y-107605636D01*
X94931938Y-107737942D01*
X94904000Y-107878397D01*
X94904000Y-108021603D01*
X94931938Y-108162058D01*
X94986741Y-108294364D01*
X95054001Y-108395026D01*
X95054001Y-108951419D01*
X94207001Y-108951419D01*
X94207001Y-107622554D01*
X97816555Y-104013000D01*
X104777176Y-104013000D01*
X104779001Y-104031530D01*
X104779000Y-120631481D01*
X104777176Y-120650000D01*
X104784455Y-120723905D01*
X104806012Y-120794970D01*
X104841019Y-120860463D01*
X104872606Y-120898952D01*
X104888131Y-120917869D01*
X104945537Y-120964981D01*
X105011030Y-120999988D01*
X105082095Y-121021545D01*
X105156000Y-121028824D01*
X105174519Y-121027000D01*
X111487481Y-121027000D01*
X111506000Y-121028824D01*
X111524519Y-121027000D01*
X111579905Y-121021545D01*
X111650970Y-120999988D01*
X111716463Y-120964981D01*
X111773869Y-120917869D01*
X111820981Y-120860463D01*
X111855988Y-120794970D01*
X111877545Y-120723905D01*
X111884824Y-120650000D01*
X111883000Y-120631481D01*
X111883000Y-104031519D01*
X111884824Y-104013000D01*
X111877545Y-103939095D01*
X111855988Y-103868030D01*
X111820981Y-103802537D01*
X111773869Y-103745131D01*
X111716463Y-103698019D01*
X111650970Y-103663012D01*
X111579905Y-103641455D01*
X111524519Y-103636000D01*
X111506000Y-103634176D01*
X111487481Y-103636000D01*
X105174519Y-103636000D01*
X105156000Y-103634176D01*
X105137481Y-103636000D01*
X105082095Y-103641455D01*
X105011030Y-103663012D01*
X104945537Y-103698019D01*
X104888131Y-103745131D01*
X104841019Y-103802537D01*
X104806012Y-103868030D01*
X104784455Y-103939095D01*
X104777176Y-104013000D01*
X97816555Y-104013000D01*
X98239566Y-103589990D01*
X130408790Y-103589990D01*
X130356241Y-103668636D01*
X130301438Y-103800942D01*
X130273500Y-103941397D01*
X130273500Y-104084603D01*
X130276183Y-104098092D01*
X127923277Y-106451000D01*
X120810339Y-106451000D01*
X120802698Y-106439564D01*
X120701436Y-106338302D01*
X120582364Y-106258741D01*
X120450058Y-106203938D01*
X120309603Y-106176000D01*
X120166397Y-106176000D01*
X120025942Y-106203938D01*
X119893636Y-106258741D01*
X119774564Y-106338302D01*
X119673302Y-106439564D01*
X119593741Y-106558636D01*
X119538938Y-106690942D01*
X119511000Y-106831397D01*
X119511000Y-106974603D01*
X119538938Y-107115058D01*
X119593741Y-107247364D01*
X119673302Y-107366436D01*
X119774564Y-107467698D01*
X119893636Y-107547259D01*
X120025942Y-107602062D01*
X120166397Y-107630000D01*
X120309603Y-107630000D01*
X120450058Y-107602062D01*
X120582364Y-107547259D01*
X120701436Y-107467698D01*
X120802698Y-107366436D01*
X120810339Y-107355000D01*
X128088295Y-107355000D01*
X128110500Y-107357187D01*
X128132705Y-107355000D01*
X128199107Y-107348460D01*
X128284310Y-107322614D01*
X128362833Y-107280643D01*
X128431659Y-107224159D01*
X128445823Y-107206900D01*
X130915408Y-104737317D01*
X130928897Y-104740000D01*
X131072103Y-104740000D01*
X131212558Y-104712062D01*
X131344864Y-104657259D01*
X131463936Y-104577698D01*
X131565198Y-104476436D01*
X131644759Y-104357364D01*
X131699562Y-104225058D01*
X131727500Y-104084603D01*
X131727500Y-103941397D01*
X131699562Y-103800942D01*
X131644759Y-103668636D01*
X131592210Y-103589990D01*
X153474436Y-103589990D01*
X154193447Y-104309002D01*
X154287819Y-104386452D01*
X154431489Y-104463244D01*
X154587379Y-104510532D01*
X154749499Y-104526500D01*
X154911620Y-104510532D01*
X155067510Y-104463244D01*
X155211179Y-104386452D01*
X155337106Y-104283106D01*
X155440452Y-104157179D01*
X155517244Y-104013510D01*
X155564532Y-103857620D01*
X155580500Y-103695499D01*
X155564532Y-103533379D01*
X155517244Y-103377489D01*
X155440452Y-103233819D01*
X155363002Y-103139447D01*
X154430495Y-102206942D01*
X154404596Y-102175384D01*
X154278669Y-102072038D01*
X154135000Y-101995245D01*
X153979110Y-101947956D01*
X153857614Y-101935990D01*
X153857604Y-101935990D01*
X153816990Y-101931990D01*
X153776376Y-101935990D01*
X121270510Y-101935990D01*
X121270510Y-101644035D01*
X121337769Y-101543374D01*
X121392572Y-101411068D01*
X121420510Y-101270613D01*
X121420510Y-101127407D01*
X121392572Y-100986952D01*
X121337769Y-100854646D01*
X121258208Y-100735574D01*
X121156946Y-100634312D01*
X121037874Y-100554751D01*
X120905568Y-100499948D01*
X120765113Y-100472010D01*
X120621907Y-100472010D01*
X120481452Y-100499948D01*
X120349146Y-100554751D01*
X120230074Y-100634312D01*
X120128812Y-100735574D01*
X120049251Y-100854646D01*
X119994448Y-100986952D01*
X119966510Y-101127407D01*
X119966510Y-101270613D01*
X119994448Y-101411068D01*
X120049251Y-101543374D01*
X120116511Y-101644036D01*
X120116511Y-101935990D01*
X97937625Y-101935990D01*
X97897011Y-101931990D01*
X97856397Y-101935990D01*
X97856388Y-101935990D01*
X97734892Y-101947956D01*
X97579002Y-101995245D01*
X97542698Y-102014650D01*
X97435331Y-102072038D01*
X97340960Y-102149488D01*
X97309406Y-102175384D01*
X97283511Y-102206937D01*
X92823949Y-106666500D01*
X92792396Y-106692395D01*
X92766501Y-106723948D01*
X92766499Y-106723950D01*
X92689049Y-106818322D01*
X92612257Y-106961991D01*
X92564968Y-107117881D01*
X92549001Y-107280001D01*
X92553002Y-107320625D01*
X92553002Y-108951419D01*
X90218001Y-108951419D01*
X90153898Y-108957733D01*
X90092258Y-108976431D01*
X90035451Y-109006795D01*
X89985658Y-109047658D01*
X89944795Y-109097451D01*
X89914431Y-109154258D01*
X89895733Y-109215898D01*
X89889419Y-109280001D01*
X89277000Y-109280001D01*
X89277000Y-94713679D01*
X90244000Y-94713679D01*
X90244000Y-95024321D01*
X90304604Y-95328994D01*
X90423481Y-95615989D01*
X90596064Y-95874279D01*
X90815721Y-96093936D01*
X91074011Y-96266519D01*
X91361006Y-96385396D01*
X91665679Y-96446000D01*
X91976321Y-96446000D01*
X92280994Y-96385396D01*
X92567989Y-96266519D01*
X92826279Y-96093936D01*
X93045936Y-95874279D01*
X93218519Y-95615989D01*
X93337396Y-95328994D01*
X93398000Y-95024321D01*
X93398000Y-94713679D01*
X93337396Y-94409006D01*
X93322897Y-94374000D01*
X96001418Y-94374000D01*
X96001418Y-95374000D01*
X96007732Y-95438103D01*
X96026430Y-95499743D01*
X96056794Y-95556550D01*
X96097657Y-95606343D01*
X96147450Y-95647206D01*
X96204257Y-95677570D01*
X96265897Y-95696268D01*
X96330000Y-95702582D01*
X98030000Y-95702582D01*
X98094103Y-95696268D01*
X98155743Y-95677570D01*
X98212550Y-95647206D01*
X98262343Y-95606343D01*
X98303206Y-95556550D01*
X98333570Y-95499743D01*
X98352268Y-95438103D01*
X98358582Y-95374000D01*
X98358582Y-95326000D01*
X102301418Y-95326000D01*
X102301418Y-95374000D01*
X102307732Y-95438103D01*
X102326430Y-95499743D01*
X102356794Y-95556550D01*
X102397657Y-95606343D01*
X102447450Y-95647206D01*
X102504257Y-95677570D01*
X102565897Y-95696268D01*
X102630000Y-95702582D01*
X104330000Y-95702582D01*
X104394103Y-95696268D01*
X104455743Y-95677570D01*
X104512550Y-95647206D01*
X104562343Y-95606343D01*
X104603206Y-95556550D01*
X104633570Y-95499743D01*
X104652268Y-95438103D01*
X104658582Y-95374000D01*
X104658582Y-95326000D01*
X106830759Y-95326000D01*
X106754436Y-95388636D01*
X106688700Y-95468736D01*
X106639854Y-95560120D01*
X106609775Y-95659279D01*
X106599618Y-95762400D01*
X106599618Y-96312400D01*
X106609775Y-96415521D01*
X106639854Y-96514680D01*
X106688700Y-96606064D01*
X106754436Y-96686164D01*
X106834536Y-96751900D01*
X106876200Y-96774170D01*
X106876201Y-96959244D01*
X106842869Y-96977060D01*
X106759928Y-97045128D01*
X106691860Y-97128069D01*
X106641281Y-97222695D01*
X106610135Y-97325371D01*
X106599618Y-97432150D01*
X106599618Y-97944650D01*
X106610135Y-98051429D01*
X106641281Y-98154105D01*
X106677572Y-98222000D01*
X104658582Y-98222000D01*
X104658582Y-98174000D01*
X104652268Y-98109897D01*
X104633570Y-98048257D01*
X104603206Y-97991450D01*
X104562343Y-97941657D01*
X104512550Y-97900794D01*
X104455743Y-97870430D01*
X104394103Y-97851732D01*
X104330000Y-97845418D01*
X102630000Y-97845418D01*
X102565897Y-97851732D01*
X102504257Y-97870430D01*
X102447450Y-97900794D01*
X102397657Y-97941657D01*
X102356794Y-97991450D01*
X102326430Y-98048257D01*
X102307732Y-98109897D01*
X102301418Y-98174000D01*
X102301418Y-98222000D01*
X98358582Y-98222000D01*
X98358582Y-98174000D01*
X98352268Y-98109897D01*
X98333570Y-98048257D01*
X98303206Y-97991450D01*
X98262343Y-97941657D01*
X98212550Y-97900794D01*
X98155743Y-97870430D01*
X98094103Y-97851732D01*
X98030000Y-97845418D01*
X96330000Y-97845418D01*
X96265897Y-97851732D01*
X96204257Y-97870430D01*
X96147450Y-97900794D01*
X96097657Y-97941657D01*
X96056794Y-97991450D01*
X96026430Y-98048257D01*
X96007732Y-98109897D01*
X96001418Y-98174000D01*
X96001418Y-99174000D01*
X96007732Y-99238103D01*
X96026430Y-99299743D01*
X96056794Y-99356550D01*
X96097657Y-99406343D01*
X96147450Y-99447206D01*
X96204257Y-99477570D01*
X96265897Y-99496268D01*
X96330000Y-99502582D01*
X98030000Y-99502582D01*
X98094103Y-99496268D01*
X98155743Y-99477570D01*
X98212550Y-99447206D01*
X98262343Y-99406343D01*
X98303206Y-99356550D01*
X98333570Y-99299743D01*
X98352268Y-99238103D01*
X98358582Y-99174000D01*
X98358582Y-99126000D01*
X102301418Y-99126000D01*
X102301418Y-99174000D01*
X102307732Y-99238103D01*
X102326430Y-99299743D01*
X102356794Y-99356550D01*
X102397657Y-99406343D01*
X102447450Y-99447206D01*
X102504257Y-99477570D01*
X102565897Y-99496268D01*
X102630000Y-99502582D01*
X104330000Y-99502582D01*
X104394103Y-99496268D01*
X104455743Y-99477570D01*
X104512550Y-99447206D01*
X104562343Y-99406343D01*
X104603206Y-99356550D01*
X104633570Y-99299743D01*
X104652268Y-99238103D01*
X104658582Y-99174000D01*
X104658582Y-99126000D01*
X106538277Y-99126000D01*
X106586918Y-99174641D01*
X106586918Y-99564000D01*
X106597555Y-99671998D01*
X106629057Y-99775847D01*
X106680213Y-99871554D01*
X106749058Y-99955442D01*
X106832946Y-100024287D01*
X106928653Y-100075443D01*
X107032502Y-100106945D01*
X107140500Y-100117582D01*
X107529859Y-100117582D01*
X108681181Y-101268905D01*
X108695341Y-101286159D01*
X108764167Y-101342643D01*
X108820754Y-101372889D01*
X108842690Y-101384614D01*
X108927892Y-101410460D01*
X109016500Y-101419187D01*
X109038705Y-101417000D01*
X112648161Y-101417000D01*
X112655802Y-101428436D01*
X112757064Y-101529698D01*
X112876136Y-101609259D01*
X113008442Y-101664062D01*
X113148897Y-101692000D01*
X113292103Y-101692000D01*
X113432558Y-101664062D01*
X113564864Y-101609259D01*
X113683936Y-101529698D01*
X113785198Y-101428436D01*
X113864759Y-101309364D01*
X113919562Y-101177058D01*
X113947500Y-101036603D01*
X113947500Y-100893397D01*
X113919562Y-100752942D01*
X113864759Y-100620636D01*
X113785198Y-100501564D01*
X113683936Y-100400302D01*
X113564864Y-100320741D01*
X113432558Y-100265938D01*
X113292103Y-100238000D01*
X113148897Y-100238000D01*
X113008442Y-100265938D01*
X112876136Y-100320741D01*
X112757064Y-100400302D01*
X112655802Y-100501564D01*
X112648161Y-100513000D01*
X109203724Y-100513000D01*
X109042502Y-100351778D01*
X109042502Y-100265252D01*
X109201250Y-100424000D01*
X109365500Y-100427072D01*
X109489982Y-100414812D01*
X109609680Y-100378502D01*
X109719994Y-100319537D01*
X109816685Y-100240185D01*
X109896037Y-100143494D01*
X109955002Y-100033180D01*
X109991312Y-99913482D01*
X110003572Y-99789000D01*
X110000500Y-99599750D01*
X109841750Y-99441000D01*
X109042500Y-99441000D01*
X109042500Y-99461000D01*
X108788500Y-99461000D01*
X108788500Y-99441000D01*
X108768500Y-99441000D01*
X108768500Y-99187000D01*
X108788500Y-99187000D01*
X108788500Y-98664850D01*
X108813700Y-98639650D01*
X108813700Y-98362750D01*
X109042500Y-98362750D01*
X109042500Y-99187000D01*
X109841750Y-99187000D01*
X110000500Y-99028250D01*
X110003572Y-98839000D01*
X109991312Y-98714518D01*
X109955002Y-98594820D01*
X109911310Y-98513080D01*
X109967702Y-98407580D01*
X110004012Y-98287882D01*
X110016272Y-98163400D01*
X110013200Y-97974150D01*
X109854450Y-97815400D01*
X109067700Y-97815400D01*
X109067700Y-98337550D01*
X109042500Y-98362750D01*
X108813700Y-98362750D01*
X108813700Y-97815400D01*
X108793700Y-97815400D01*
X108793700Y-97561400D01*
X108813700Y-97561400D01*
X108813700Y-97541400D01*
X109067700Y-97541400D01*
X109067700Y-97561400D01*
X109854450Y-97561400D01*
X110013200Y-97402650D01*
X110016272Y-97213400D01*
X110004012Y-97088918D01*
X109967702Y-96969220D01*
X109908737Y-96858906D01*
X109829385Y-96762215D01*
X109732694Y-96682863D01*
X109622380Y-96623898D01*
X109606914Y-96619207D01*
X109617700Y-96606064D01*
X109666546Y-96514680D01*
X109674214Y-96489400D01*
X110010677Y-96489400D01*
X110083183Y-96561907D01*
X110080500Y-96575397D01*
X110080500Y-96718603D01*
X110108438Y-96859058D01*
X110163241Y-96991364D01*
X110242802Y-97110436D01*
X110344064Y-97211698D01*
X110463136Y-97291259D01*
X110595442Y-97346062D01*
X110735897Y-97374000D01*
X110879103Y-97374000D01*
X111019558Y-97346062D01*
X111151864Y-97291259D01*
X111270936Y-97211698D01*
X111372198Y-97110436D01*
X111451759Y-96991364D01*
X111506562Y-96859058D01*
X111534500Y-96718603D01*
X111534500Y-96575397D01*
X111506562Y-96434942D01*
X111451759Y-96302636D01*
X111372198Y-96183564D01*
X111270936Y-96082302D01*
X111151864Y-96002741D01*
X111019558Y-95947938D01*
X110879103Y-95920000D01*
X110735897Y-95920000D01*
X110722407Y-95922683D01*
X110533223Y-95733500D01*
X110519059Y-95716241D01*
X110450233Y-95659757D01*
X110371710Y-95617786D01*
X110286507Y-95591940D01*
X110220105Y-95585400D01*
X110197900Y-95583213D01*
X110175695Y-95585400D01*
X109674214Y-95585400D01*
X109666546Y-95560120D01*
X109617700Y-95468736D01*
X109551964Y-95388636D01*
X109471864Y-95322900D01*
X109380480Y-95274054D01*
X109281321Y-95243975D01*
X109277771Y-95243625D01*
X109280821Y-95243325D01*
X109379980Y-95213246D01*
X109471364Y-95164400D01*
X109551464Y-95098664D01*
X109617200Y-95018564D01*
X109666046Y-94927180D01*
X109673714Y-94901900D01*
X110264677Y-94901900D01*
X112440681Y-97077905D01*
X112454841Y-97095159D01*
X112523667Y-97151643D01*
X112584155Y-97183974D01*
X112602190Y-97193614D01*
X112687392Y-97219460D01*
X112776000Y-97228187D01*
X112798205Y-97226000D01*
X112921418Y-97226000D01*
X112921418Y-97824000D01*
X112927732Y-97888103D01*
X112946430Y-97949743D01*
X112976794Y-98006550D01*
X113017657Y-98056343D01*
X113067450Y-98097206D01*
X113124257Y-98127570D01*
X113185897Y-98146268D01*
X113250000Y-98152582D01*
X115350000Y-98152582D01*
X115414103Y-98146268D01*
X115475743Y-98127570D01*
X115532550Y-98097206D01*
X115582343Y-98056343D01*
X115623206Y-98006550D01*
X115653570Y-97949743D01*
X115672268Y-97888103D01*
X115678582Y-97824000D01*
X115678582Y-97514350D01*
X115770414Y-97651787D01*
X115962213Y-97843586D01*
X116187746Y-97994282D01*
X116438344Y-98098083D01*
X116704377Y-98151000D01*
X116975623Y-98151000D01*
X117156608Y-98115000D01*
X117243205Y-98115000D01*
X117309607Y-98108460D01*
X117394810Y-98082614D01*
X117473333Y-98040643D01*
X117542159Y-97984159D01*
X117574241Y-97945066D01*
X118388539Y-97945066D01*
X118490339Y-98214579D01*
X118788477Y-98360463D01*
X119109346Y-98445380D01*
X119440617Y-98466066D01*
X119769557Y-98421728D01*
X120083527Y-98314069D01*
X120269661Y-98214579D01*
X120371461Y-97945066D01*
X119380000Y-96953605D01*
X118388539Y-97945066D01*
X117574241Y-97945066D01*
X117584356Y-97932741D01*
X117717787Y-97843586D01*
X117909586Y-97651787D01*
X117922635Y-97632257D01*
X117939421Y-97663661D01*
X118208934Y-97765461D01*
X119200395Y-96774000D01*
X119559605Y-96774000D01*
X120551066Y-97765461D01*
X120820579Y-97663661D01*
X120966463Y-97365523D01*
X121051380Y-97044654D01*
X121072066Y-96713383D01*
X121027728Y-96384443D01*
X120920069Y-96070473D01*
X120820579Y-95884339D01*
X120551066Y-95782539D01*
X119559605Y-96774000D01*
X119200395Y-96774000D01*
X118208934Y-95782539D01*
X117939421Y-95884339D01*
X117923455Y-95916969D01*
X117909586Y-95896213D01*
X117717787Y-95704414D01*
X117565912Y-95602934D01*
X118388539Y-95602934D01*
X119380000Y-96594395D01*
X120371461Y-95602934D01*
X120269661Y-95333421D01*
X119971523Y-95187537D01*
X119650654Y-95102620D01*
X119319383Y-95081934D01*
X118990443Y-95126272D01*
X118676473Y-95233931D01*
X118490339Y-95333421D01*
X118388539Y-95602934D01*
X117565912Y-95602934D01*
X117492254Y-95553718D01*
X117241656Y-95449917D01*
X116975623Y-95397000D01*
X116704377Y-95397000D01*
X116438344Y-95449917D01*
X116187746Y-95553718D01*
X115962213Y-95704414D01*
X115770414Y-95896213D01*
X115678582Y-96033650D01*
X115678582Y-95724000D01*
X115672268Y-95659897D01*
X115653570Y-95598257D01*
X115623206Y-95541450D01*
X115582343Y-95491657D01*
X115532550Y-95450794D01*
X115475743Y-95420430D01*
X115414103Y-95401732D01*
X115350000Y-95395418D01*
X114877000Y-95395418D01*
X114877000Y-94409501D01*
X114983501Y-94303000D01*
X123375001Y-94303000D01*
X123375000Y-95395418D01*
X122902000Y-95395418D01*
X122837897Y-95401732D01*
X122776257Y-95420430D01*
X122719450Y-95450794D01*
X122669657Y-95491657D01*
X122628794Y-95541450D01*
X122598430Y-95598257D01*
X122579732Y-95659897D01*
X122573418Y-95724000D01*
X122573418Y-97824000D01*
X122579732Y-97888103D01*
X122598430Y-97949743D01*
X122628794Y-98006550D01*
X122669657Y-98056343D01*
X122719450Y-98097206D01*
X122776257Y-98127570D01*
X122837897Y-98146268D01*
X122902000Y-98152582D01*
X125002000Y-98152582D01*
X125066103Y-98146268D01*
X125127743Y-98127570D01*
X125184550Y-98097206D01*
X125234343Y-98056343D01*
X125275206Y-98006550D01*
X125305570Y-97949743D01*
X125324268Y-97888103D01*
X125330582Y-97824000D01*
X125330582Y-97514350D01*
X125422414Y-97651787D01*
X125614213Y-97843586D01*
X125839746Y-97994282D01*
X126090344Y-98098083D01*
X126356377Y-98151000D01*
X126627623Y-98151000D01*
X126893656Y-98098083D01*
X127144254Y-97994282D01*
X127217911Y-97945066D01*
X128040539Y-97945066D01*
X128142339Y-98214579D01*
X128440477Y-98360463D01*
X128761346Y-98445380D01*
X129092617Y-98466066D01*
X129421557Y-98421728D01*
X129735527Y-98314069D01*
X129921661Y-98214579D01*
X130023461Y-97945066D01*
X129032000Y-96953605D01*
X128040539Y-97945066D01*
X127217911Y-97945066D01*
X127369787Y-97843586D01*
X127561586Y-97651787D01*
X127574635Y-97632257D01*
X127591421Y-97663661D01*
X127860934Y-97765461D01*
X128852395Y-96774000D01*
X129211605Y-96774000D01*
X130203066Y-97765461D01*
X130472579Y-97663661D01*
X130618463Y-97365523D01*
X130703380Y-97044654D01*
X130724066Y-96713383D01*
X130679728Y-96384443D01*
X130572069Y-96070473D01*
X130472579Y-95884339D01*
X130203066Y-95782539D01*
X129211605Y-96774000D01*
X128852395Y-96774000D01*
X127860934Y-95782539D01*
X127591421Y-95884339D01*
X127575455Y-95916969D01*
X127561586Y-95896213D01*
X127369787Y-95704414D01*
X127217912Y-95602934D01*
X128040539Y-95602934D01*
X129032000Y-96594395D01*
X130023461Y-95602934D01*
X129921661Y-95333421D01*
X129623523Y-95187537D01*
X129302654Y-95102620D01*
X128971383Y-95081934D01*
X128642443Y-95126272D01*
X128328473Y-95233931D01*
X128142339Y-95333421D01*
X128040539Y-95602934D01*
X127217912Y-95602934D01*
X127144254Y-95553718D01*
X126893656Y-95449917D01*
X126627623Y-95397000D01*
X126356377Y-95397000D01*
X126090344Y-95449917D01*
X125839746Y-95553718D01*
X125614213Y-95704414D01*
X125422414Y-95896213D01*
X125330582Y-96033650D01*
X125330582Y-95724000D01*
X125324268Y-95659897D01*
X125305570Y-95598257D01*
X125275206Y-95541450D01*
X125234343Y-95491657D01*
X125184550Y-95450794D01*
X125127743Y-95420430D01*
X125066103Y-95401732D01*
X125002000Y-95395418D01*
X124529000Y-95395418D01*
X124529000Y-94303000D01*
X133027001Y-94303000D01*
X133027000Y-95395418D01*
X132554000Y-95395418D01*
X132489897Y-95401732D01*
X132428257Y-95420430D01*
X132371450Y-95450794D01*
X132321657Y-95491657D01*
X132280794Y-95541450D01*
X132250430Y-95598257D01*
X132231732Y-95659897D01*
X132225418Y-95724000D01*
X132225418Y-97824000D01*
X132231732Y-97888103D01*
X132250430Y-97949743D01*
X132280794Y-98006550D01*
X132321657Y-98056343D01*
X132371450Y-98097206D01*
X132428257Y-98127570D01*
X132489897Y-98146268D01*
X132554000Y-98152582D01*
X134654000Y-98152582D01*
X134718103Y-98146268D01*
X134779743Y-98127570D01*
X134836550Y-98097206D01*
X134886343Y-98056343D01*
X134927206Y-98006550D01*
X134957570Y-97949743D01*
X134976268Y-97888103D01*
X134982582Y-97824000D01*
X134982582Y-97514350D01*
X135074414Y-97651787D01*
X135266213Y-97843586D01*
X135491746Y-97994282D01*
X135742344Y-98098083D01*
X136008377Y-98151000D01*
X136279623Y-98151000D01*
X136545656Y-98098083D01*
X136796254Y-97994282D01*
X136869911Y-97945066D01*
X137692539Y-97945066D01*
X137794339Y-98214579D01*
X138092477Y-98360463D01*
X138413346Y-98445380D01*
X138744617Y-98466066D01*
X139073557Y-98421728D01*
X139387527Y-98314069D01*
X139573661Y-98214579D01*
X139675461Y-97945066D01*
X138684000Y-96953605D01*
X137692539Y-97945066D01*
X136869911Y-97945066D01*
X137021787Y-97843586D01*
X137213586Y-97651787D01*
X137226635Y-97632257D01*
X137243421Y-97663661D01*
X137512934Y-97765461D01*
X138504395Y-96774000D01*
X138863605Y-96774000D01*
X139855066Y-97765461D01*
X140124579Y-97663661D01*
X140270463Y-97365523D01*
X140355380Y-97044654D01*
X140376066Y-96713383D01*
X140331728Y-96384443D01*
X140224069Y-96070473D01*
X140124579Y-95884339D01*
X139855066Y-95782539D01*
X138863605Y-96774000D01*
X138504395Y-96774000D01*
X137512934Y-95782539D01*
X137243421Y-95884339D01*
X137227455Y-95916969D01*
X137213586Y-95896213D01*
X137021787Y-95704414D01*
X136869912Y-95602934D01*
X137692539Y-95602934D01*
X138684000Y-96594395D01*
X139554395Y-95724000D01*
X142639418Y-95724000D01*
X142639418Y-97824000D01*
X142645732Y-97888103D01*
X142664430Y-97949743D01*
X142694794Y-98006550D01*
X142735657Y-98056343D01*
X142785450Y-98097206D01*
X142842257Y-98127570D01*
X142903897Y-98146268D01*
X142968000Y-98152582D01*
X145068000Y-98152582D01*
X145132103Y-98146268D01*
X145193743Y-98127570D01*
X145250550Y-98097206D01*
X145300343Y-98056343D01*
X145341206Y-98006550D01*
X145371570Y-97949743D01*
X145372988Y-97945066D01*
X145566539Y-97945066D01*
X145668339Y-98214579D01*
X145966477Y-98360463D01*
X146287346Y-98445380D01*
X146618617Y-98466066D01*
X146947557Y-98421728D01*
X147261527Y-98314069D01*
X147447661Y-98214579D01*
X147549461Y-97945066D01*
X146558000Y-96953605D01*
X145566539Y-97945066D01*
X145372988Y-97945066D01*
X145390268Y-97888103D01*
X145396582Y-97824000D01*
X145396582Y-97755813D01*
X146378395Y-96774000D01*
X146737605Y-96774000D01*
X147729066Y-97765461D01*
X147998579Y-97663661D01*
X148144463Y-97365523D01*
X148229380Y-97044654D01*
X148250066Y-96713383D01*
X148205728Y-96384443D01*
X148098069Y-96070473D01*
X147998579Y-95884339D01*
X147729066Y-95782539D01*
X146737605Y-96774000D01*
X146378395Y-96774000D01*
X145396582Y-95792187D01*
X145396582Y-95724000D01*
X145390268Y-95659897D01*
X145372989Y-95602934D01*
X145566539Y-95602934D01*
X146558000Y-96594395D01*
X147549461Y-95602934D01*
X147447661Y-95333421D01*
X147149523Y-95187537D01*
X146828654Y-95102620D01*
X146497383Y-95081934D01*
X146168443Y-95126272D01*
X145854473Y-95233931D01*
X145668339Y-95333421D01*
X145566539Y-95602934D01*
X145372989Y-95602934D01*
X145371570Y-95598257D01*
X145341206Y-95541450D01*
X145300343Y-95491657D01*
X145250550Y-95450794D01*
X145193743Y-95420430D01*
X145132103Y-95401732D01*
X145068000Y-95395418D01*
X142968000Y-95395418D01*
X142903897Y-95401732D01*
X142842257Y-95420430D01*
X142785450Y-95450794D01*
X142735657Y-95491657D01*
X142694794Y-95541450D01*
X142664430Y-95598257D01*
X142645732Y-95659897D01*
X142639418Y-95724000D01*
X139554395Y-95724000D01*
X139675461Y-95602934D01*
X139573661Y-95333421D01*
X139275523Y-95187537D01*
X138954654Y-95102620D01*
X138623383Y-95081934D01*
X138294443Y-95126272D01*
X137980473Y-95233931D01*
X137794339Y-95333421D01*
X137692539Y-95602934D01*
X136869912Y-95602934D01*
X136796254Y-95553718D01*
X136545656Y-95449917D01*
X136279623Y-95397000D01*
X136008377Y-95397000D01*
X135742344Y-95449917D01*
X135491746Y-95553718D01*
X135266213Y-95704414D01*
X135074414Y-95896213D01*
X134982582Y-96033650D01*
X134982582Y-95724000D01*
X134976268Y-95659897D01*
X134957570Y-95598257D01*
X134927206Y-95541450D01*
X134886343Y-95491657D01*
X134836550Y-95450794D01*
X134779743Y-95420430D01*
X134718103Y-95401732D01*
X134654000Y-95395418D01*
X134181000Y-95395418D01*
X134181000Y-94303000D01*
X147233999Y-94303000D01*
X149319001Y-96388002D01*
X149319000Y-98208039D01*
X149336393Y-98384632D01*
X149405124Y-98611210D01*
X149516739Y-98820025D01*
X149666946Y-99003054D01*
X149849974Y-99153261D01*
X149854500Y-99155680D01*
X149854500Y-99567475D01*
X149787241Y-99668136D01*
X149732438Y-99800442D01*
X149704500Y-99940897D01*
X149704500Y-100084103D01*
X149732438Y-100224558D01*
X149787241Y-100356864D01*
X149866802Y-100475936D01*
X149968064Y-100577198D01*
X150087136Y-100656759D01*
X150219442Y-100711562D01*
X150359897Y-100739500D01*
X150503103Y-100739500D01*
X150643558Y-100711562D01*
X150775864Y-100656759D01*
X150894936Y-100577198D01*
X150996198Y-100475936D01*
X151075759Y-100356864D01*
X151130562Y-100224558D01*
X151158500Y-100084103D01*
X151158500Y-99940897D01*
X151130562Y-99800442D01*
X151075759Y-99668136D01*
X151008500Y-99567475D01*
X151008500Y-99251358D01*
X151192025Y-99153261D01*
X151375054Y-99003054D01*
X151525261Y-98820026D01*
X151636876Y-98611211D01*
X151705607Y-98384633D01*
X151723000Y-98208040D01*
X151723000Y-98208039D01*
X152569000Y-98208039D01*
X152586393Y-98384632D01*
X152655124Y-98611210D01*
X152766739Y-98820025D01*
X152916946Y-99003054D01*
X153099974Y-99153261D01*
X153220000Y-99217417D01*
X153220000Y-99567475D01*
X153152741Y-99668136D01*
X153097938Y-99800442D01*
X153070000Y-99940897D01*
X153070000Y-100084103D01*
X153097938Y-100224558D01*
X153152741Y-100356864D01*
X153232302Y-100475936D01*
X153333564Y-100577198D01*
X153452636Y-100656759D01*
X153584942Y-100711562D01*
X153725397Y-100739500D01*
X153868603Y-100739500D01*
X154009058Y-100711562D01*
X154141364Y-100656759D01*
X154260436Y-100577198D01*
X154361698Y-100475936D01*
X154441259Y-100356864D01*
X154496062Y-100224558D01*
X154524000Y-100084103D01*
X154524000Y-99940897D01*
X154496062Y-99800442D01*
X154441259Y-99668136D01*
X154374000Y-99567475D01*
X154374000Y-99523000D01*
X155327000Y-99523000D01*
X155327000Y-100073000D01*
X155373585Y-100291987D01*
X155461997Y-100497678D01*
X155588839Y-100682169D01*
X155749236Y-100838369D01*
X155937024Y-100960276D01*
X156160126Y-101040119D01*
X156335000Y-100913954D01*
X156335000Y-99523000D01*
X155327000Y-99523000D01*
X154374000Y-99523000D01*
X154374000Y-99189621D01*
X154442025Y-99153261D01*
X154625054Y-99003054D01*
X154775261Y-98820026D01*
X154829261Y-98719000D01*
X155327000Y-98719000D01*
X155327000Y-99269000D01*
X156335000Y-99269000D01*
X156335000Y-97878046D01*
X156589000Y-97878046D01*
X156589000Y-99269000D01*
X156609000Y-99269000D01*
X156609000Y-99452248D01*
X156606188Y-99461518D01*
X156600133Y-99523000D01*
X156589000Y-99523000D01*
X156589000Y-100913954D01*
X156594753Y-100918104D01*
X156593928Y-101036000D01*
X156606188Y-101160482D01*
X156642498Y-101280180D01*
X156701463Y-101390494D01*
X156780815Y-101487185D01*
X156877506Y-101566537D01*
X156987820Y-101625502D01*
X157107518Y-101661812D01*
X157232000Y-101674072D01*
X157246250Y-101671000D01*
X157405000Y-101512250D01*
X157405000Y-100580589D01*
X157462003Y-100497678D01*
X157550415Y-100291987D01*
X157577642Y-100164000D01*
X157659000Y-100164000D01*
X157659000Y-100184000D01*
X157679000Y-100184000D01*
X157679000Y-100438000D01*
X157659000Y-100438000D01*
X157659000Y-101512250D01*
X157817750Y-101671000D01*
X157832000Y-101674072D01*
X157891069Y-101668254D01*
X157903963Y-101683966D01*
X157903966Y-101683969D01*
X157922027Y-101705976D01*
X157944034Y-101724037D01*
X158093960Y-101873963D01*
X158112025Y-101895975D01*
X158199884Y-101968080D01*
X158300123Y-102021658D01*
X158408887Y-102054651D01*
X158493663Y-102063001D01*
X158493669Y-102063001D01*
X158521998Y-102065791D01*
X158550327Y-102063001D01*
X162614999Y-102063001D01*
X162615000Y-105188158D01*
X162612209Y-105216499D01*
X162623348Y-105329610D01*
X162656343Y-105438375D01*
X162709921Y-105538614D01*
X162740839Y-105576287D01*
X162763962Y-105604463D01*
X162763965Y-105604466D01*
X162782026Y-105626473D01*
X162804032Y-105644533D01*
X164186820Y-107027322D01*
X164210438Y-107146058D01*
X164265241Y-107278364D01*
X164344802Y-107397436D01*
X164446064Y-107498698D01*
X164565136Y-107578259D01*
X164697442Y-107633062D01*
X164837897Y-107661000D01*
X164981103Y-107661000D01*
X165121558Y-107633062D01*
X165253864Y-107578259D01*
X165372936Y-107498698D01*
X165474198Y-107397436D01*
X165553759Y-107278364D01*
X165608562Y-107146058D01*
X165636500Y-107005603D01*
X165636500Y-106862397D01*
X165608562Y-106721942D01*
X165553759Y-106589636D01*
X165474198Y-106470564D01*
X165372936Y-106369302D01*
X165253864Y-106289741D01*
X165121558Y-106234938D01*
X165002822Y-106211320D01*
X163768999Y-104977498D01*
X163768999Y-101663452D01*
X163775618Y-101641632D01*
X163905000Y-101512250D01*
X163905000Y-100438000D01*
X163885000Y-100438000D01*
X163885000Y-100184000D01*
X163905000Y-100184000D01*
X163905000Y-100164000D01*
X163986358Y-100164000D01*
X164013585Y-100291987D01*
X164101997Y-100497678D01*
X164159000Y-100580589D01*
X164159000Y-101512250D01*
X164317750Y-101671000D01*
X164332000Y-101674072D01*
X164456482Y-101661812D01*
X164576180Y-101625502D01*
X164686494Y-101566537D01*
X164783185Y-101487185D01*
X164862537Y-101390494D01*
X164921502Y-101280180D01*
X164957812Y-101160482D01*
X164970072Y-101036000D01*
X164969247Y-100918104D01*
X164975000Y-100913954D01*
X164975000Y-99523000D01*
X165229000Y-99523000D01*
X165229000Y-100913954D01*
X165403874Y-101040119D01*
X165626976Y-100960276D01*
X165814764Y-100838369D01*
X165975161Y-100682169D01*
X166102003Y-100497678D01*
X166190415Y-100291987D01*
X166237000Y-100073000D01*
X166237000Y-99523000D01*
X165229000Y-99523000D01*
X164975000Y-99523000D01*
X164963867Y-99523000D01*
X164957812Y-99461518D01*
X164955000Y-99452248D01*
X164955000Y-99269000D01*
X164975000Y-99269000D01*
X164975000Y-97878046D01*
X165229000Y-97878046D01*
X165229000Y-99269000D01*
X166237000Y-99269000D01*
X166237000Y-98719000D01*
X166190415Y-98500013D01*
X166102003Y-98294322D01*
X165975161Y-98109831D01*
X165814764Y-97953631D01*
X165626976Y-97831724D01*
X165403874Y-97751881D01*
X165229000Y-97878046D01*
X164975000Y-97878046D01*
X164800126Y-97751881D01*
X164577024Y-97831724D01*
X164389236Y-97953631D01*
X164228839Y-98109831D01*
X164101997Y-98294322D01*
X164077007Y-98352462D01*
X163980838Y-98288205D01*
X163862181Y-98239056D01*
X163736216Y-98214000D01*
X163727723Y-98214000D01*
X165148715Y-96793010D01*
X167256060Y-96793010D01*
X167211928Y-96829228D01*
X167143860Y-96912169D01*
X167093281Y-97006795D01*
X167062135Y-97109471D01*
X167051618Y-97216250D01*
X167051618Y-97728750D01*
X167062135Y-97835529D01*
X167093281Y-97938205D01*
X167143860Y-98032831D01*
X167211928Y-98115772D01*
X167294869Y-98183840D01*
X167315001Y-98194601D01*
X167315000Y-98297160D01*
X167303564Y-98304802D01*
X167202302Y-98406064D01*
X167122741Y-98525136D01*
X167067938Y-98657442D01*
X167040000Y-98797897D01*
X167040000Y-98941103D01*
X167067938Y-99081558D01*
X167122741Y-99213864D01*
X167202302Y-99332936D01*
X167303564Y-99434198D01*
X167422636Y-99513759D01*
X167554942Y-99568562D01*
X167695397Y-99596500D01*
X167838603Y-99596500D01*
X167979058Y-99568562D01*
X168111364Y-99513759D01*
X168230436Y-99434198D01*
X168331698Y-99332936D01*
X168411259Y-99213864D01*
X168466062Y-99081558D01*
X168494000Y-98941103D01*
X168494000Y-98797897D01*
X168466062Y-98657442D01*
X168411259Y-98525136D01*
X168331698Y-98406064D01*
X168230436Y-98304802D01*
X168219000Y-98297161D01*
X168219000Y-98242580D01*
X168245905Y-98234419D01*
X168340531Y-98183840D01*
X168423472Y-98115772D01*
X168491540Y-98032831D01*
X168542119Y-97938205D01*
X168573265Y-97835529D01*
X168583782Y-97728750D01*
X168583782Y-97216250D01*
X168626618Y-97216250D01*
X168626618Y-97728750D01*
X168637135Y-97835529D01*
X168668281Y-97938205D01*
X168718860Y-98032831D01*
X168786928Y-98115772D01*
X168869869Y-98183840D01*
X168964495Y-98234419D01*
X169067171Y-98265565D01*
X169173950Y-98276082D01*
X169611450Y-98276082D01*
X169718229Y-98265565D01*
X169820905Y-98234419D01*
X169915531Y-98183840D01*
X169998472Y-98115772D01*
X170066540Y-98032831D01*
X170117119Y-97938205D01*
X170148265Y-97835529D01*
X170158782Y-97728750D01*
X170158782Y-97216250D01*
X170148265Y-97109471D01*
X170117119Y-97006795D01*
X170066540Y-96912169D01*
X169998472Y-96829228D01*
X169915531Y-96761160D01*
X169844700Y-96723300D01*
X169844700Y-96641814D01*
X169923864Y-96599500D01*
X170003964Y-96533764D01*
X170069700Y-96453664D01*
X170118546Y-96362280D01*
X170148625Y-96263121D01*
X170158782Y-96160000D01*
X170158782Y-95610000D01*
X170148625Y-95506879D01*
X170118546Y-95407720D01*
X170069700Y-95316336D01*
X170003964Y-95236236D01*
X169923864Y-95170500D01*
X169832480Y-95121654D01*
X169733321Y-95091575D01*
X169630200Y-95081418D01*
X169230200Y-95081418D01*
X169127079Y-95091575D01*
X169027920Y-95121654D01*
X168936536Y-95170500D01*
X168856436Y-95236236D01*
X168790700Y-95316336D01*
X168741854Y-95407720D01*
X168711775Y-95506879D01*
X168701618Y-95610000D01*
X168701618Y-96160000D01*
X168711775Y-96263121D01*
X168741854Y-96362280D01*
X168790700Y-96453664D01*
X168856436Y-96533764D01*
X168936536Y-96599500D01*
X168940701Y-96601726D01*
X168940700Y-96723300D01*
X168869869Y-96761160D01*
X168786928Y-96829228D01*
X168718860Y-96912169D01*
X168668281Y-97006795D01*
X168637135Y-97109471D01*
X168626618Y-97216250D01*
X168583782Y-97216250D01*
X168573265Y-97109471D01*
X168542119Y-97006795D01*
X168491540Y-96912169D01*
X168423472Y-96829228D01*
X168340531Y-96761160D01*
X168245905Y-96710581D01*
X168143229Y-96679435D01*
X168095492Y-96674733D01*
X168182480Y-96648346D01*
X168273864Y-96599500D01*
X168353964Y-96533764D01*
X168419700Y-96453664D01*
X168468546Y-96362280D01*
X168498625Y-96263121D01*
X168508782Y-96160000D01*
X168508782Y-95610000D01*
X168498625Y-95506879D01*
X168468546Y-95407720D01*
X168419700Y-95316336D01*
X168353964Y-95236236D01*
X168273864Y-95170500D01*
X168182480Y-95121654D01*
X168083321Y-95091575D01*
X167980200Y-95081418D01*
X167580200Y-95081418D01*
X167477079Y-95091575D01*
X167377920Y-95121654D01*
X167286536Y-95170500D01*
X167206436Y-95236236D01*
X167140700Y-95316336D01*
X167091854Y-95407720D01*
X167061775Y-95506879D01*
X167051618Y-95610000D01*
X167051618Y-95889010D01*
X166178800Y-95889010D01*
X166190415Y-95861987D01*
X166237000Y-95643000D01*
X166237000Y-95343000D01*
X165229000Y-95343000D01*
X165229000Y-95363000D01*
X164975000Y-95363000D01*
X164975000Y-95343000D01*
X163967000Y-95343000D01*
X163967000Y-95643000D01*
X164013585Y-95861987D01*
X164101997Y-96067678D01*
X164228839Y-96252169D01*
X164321181Y-96342095D01*
X162718095Y-97945182D01*
X162700841Y-97959342D01*
X162659630Y-98009558D01*
X162644357Y-98028168D01*
X162602385Y-98106692D01*
X162576539Y-98191894D01*
X162567812Y-98280501D01*
X162570000Y-98302716D01*
X162569999Y-99257418D01*
X162382000Y-99257418D01*
X162317897Y-99263732D01*
X162282000Y-99274621D01*
X162246103Y-99263732D01*
X162182000Y-99257418D01*
X161882000Y-99257418D01*
X161817897Y-99263732D01*
X161782000Y-99274621D01*
X161746103Y-99263732D01*
X161682000Y-99257418D01*
X161382000Y-99257418D01*
X161317897Y-99263732D01*
X161282000Y-99274621D01*
X161246103Y-99263732D01*
X161182000Y-99257418D01*
X160882000Y-99257418D01*
X160817897Y-99263732D01*
X160782000Y-99274621D01*
X160746103Y-99263732D01*
X160682000Y-99257418D01*
X160382000Y-99257418D01*
X160317897Y-99263732D01*
X160282000Y-99274621D01*
X160246103Y-99263732D01*
X160182000Y-99257418D01*
X159882000Y-99257418D01*
X159817897Y-99263732D01*
X159782000Y-99274621D01*
X159746103Y-99263732D01*
X159682000Y-99257418D01*
X159382000Y-99257418D01*
X159317897Y-99263732D01*
X159282000Y-99274621D01*
X159246103Y-99263732D01*
X159182000Y-99257418D01*
X158882000Y-99257418D01*
X158817897Y-99263732D01*
X158757000Y-99282205D01*
X158696103Y-99263732D01*
X158632000Y-99257418D01*
X158414617Y-99257418D01*
X158469795Y-99174838D01*
X158518944Y-99056181D01*
X158544000Y-98930216D01*
X158544000Y-98801784D01*
X158518944Y-98675819D01*
X158469795Y-98557162D01*
X158398442Y-98450374D01*
X158307626Y-98359558D01*
X158200838Y-98288205D01*
X158082181Y-98239056D01*
X157956216Y-98214000D01*
X157827784Y-98214000D01*
X157701819Y-98239056D01*
X157583162Y-98288205D01*
X157486993Y-98352462D01*
X157462003Y-98294322D01*
X157335161Y-98109831D01*
X157174764Y-97953631D01*
X156986976Y-97831724D01*
X156763874Y-97751881D01*
X156589000Y-97878046D01*
X156335000Y-97878046D01*
X156160126Y-97751881D01*
X155937024Y-97831724D01*
X155749236Y-97953631D01*
X155588839Y-98109831D01*
X155461997Y-98294322D01*
X155373585Y-98500013D01*
X155327000Y-98719000D01*
X154829261Y-98719000D01*
X154886876Y-98611211D01*
X154955607Y-98384633D01*
X154973000Y-98208040D01*
X154973000Y-95343000D01*
X155327000Y-95343000D01*
X155327000Y-95643000D01*
X155373585Y-95861987D01*
X155461997Y-96067678D01*
X155588839Y-96252169D01*
X155749236Y-96408369D01*
X155937024Y-96530276D01*
X156160126Y-96610119D01*
X156335000Y-96483954D01*
X156335000Y-95343000D01*
X156589000Y-95343000D01*
X156589000Y-96483954D01*
X156763874Y-96610119D01*
X156986976Y-96530276D01*
X157174764Y-96408369D01*
X157335161Y-96252169D01*
X157462003Y-96067678D01*
X157550415Y-95861987D01*
X157597000Y-95643000D01*
X157597000Y-95343000D01*
X156589000Y-95343000D01*
X156335000Y-95343000D01*
X155327000Y-95343000D01*
X154973000Y-95343000D01*
X154973000Y-95339960D01*
X154955607Y-95163367D01*
X154886876Y-94936789D01*
X154807881Y-94789000D01*
X155327000Y-94789000D01*
X155327000Y-95089000D01*
X156335000Y-95089000D01*
X156335000Y-93948046D01*
X156589000Y-93948046D01*
X156589000Y-95089000D01*
X157597000Y-95089000D01*
X157597000Y-94789000D01*
X163967000Y-94789000D01*
X163967000Y-95089000D01*
X164975000Y-95089000D01*
X164975000Y-93948046D01*
X165229000Y-93948046D01*
X165229000Y-95089000D01*
X166237000Y-95089000D01*
X166237000Y-94789000D01*
X166220977Y-94713679D01*
X172032000Y-94713679D01*
X172032000Y-95024321D01*
X172092604Y-95328994D01*
X172211481Y-95615989D01*
X172384064Y-95874279D01*
X172603721Y-96093936D01*
X172862011Y-96266519D01*
X173149006Y-96385396D01*
X173453679Y-96446000D01*
X173764321Y-96446000D01*
X174068994Y-96385396D01*
X174355989Y-96266519D01*
X174614279Y-96093936D01*
X174833936Y-95874279D01*
X175006519Y-95615989D01*
X175125396Y-95328994D01*
X175186000Y-95024321D01*
X175186000Y-94713679D01*
X175125396Y-94409006D01*
X175006519Y-94122011D01*
X174833936Y-93863721D01*
X174614279Y-93644064D01*
X174355989Y-93471481D01*
X174068994Y-93352604D01*
X173764321Y-93292000D01*
X173453679Y-93292000D01*
X173149006Y-93352604D01*
X172862011Y-93471481D01*
X172603721Y-93644064D01*
X172384064Y-93863721D01*
X172211481Y-94122011D01*
X172092604Y-94409006D01*
X172032000Y-94713679D01*
X166220977Y-94713679D01*
X166190415Y-94570013D01*
X166102003Y-94364322D01*
X165975161Y-94179831D01*
X165814764Y-94023631D01*
X165626976Y-93901724D01*
X165403874Y-93821881D01*
X165229000Y-93948046D01*
X164975000Y-93948046D01*
X164800126Y-93821881D01*
X164577024Y-93901724D01*
X164389236Y-94023631D01*
X164228839Y-94179831D01*
X164101997Y-94364322D01*
X164013585Y-94570013D01*
X163967000Y-94789000D01*
X157597000Y-94789000D01*
X157550415Y-94570013D01*
X157462003Y-94364322D01*
X157335161Y-94179831D01*
X157174764Y-94023631D01*
X156986976Y-93901724D01*
X156763874Y-93821881D01*
X156589000Y-93948046D01*
X156335000Y-93948046D01*
X156160126Y-93821881D01*
X155937024Y-93901724D01*
X155749236Y-94023631D01*
X155588839Y-94179831D01*
X155461997Y-94364322D01*
X155373585Y-94570013D01*
X155327000Y-94789000D01*
X154807881Y-94789000D01*
X154775261Y-94727974D01*
X154625054Y-94544946D01*
X154442026Y-94394739D01*
X154233211Y-94283124D01*
X154006633Y-94214393D01*
X153771000Y-94191185D01*
X153535368Y-94214393D01*
X153308790Y-94283124D01*
X153099975Y-94394739D01*
X152916947Y-94544946D01*
X152766740Y-94727974D01*
X152655125Y-94936789D01*
X152586394Y-95163367D01*
X152569001Y-95339960D01*
X152569000Y-98208039D01*
X151723000Y-98208039D01*
X151723000Y-95339960D01*
X151705607Y-95163367D01*
X151636876Y-94936789D01*
X151525261Y-94727974D01*
X151375054Y-94544946D01*
X151192026Y-94394739D01*
X150983211Y-94283124D01*
X150756633Y-94214393D01*
X150521000Y-94191185D01*
X150285368Y-94214393D01*
X150058790Y-94283124D01*
X149849975Y-94394739D01*
X149666947Y-94544946D01*
X149516740Y-94727974D01*
X149438100Y-94875099D01*
X147901039Y-93338038D01*
X147882974Y-93316026D01*
X147795115Y-93243921D01*
X147694876Y-93190343D01*
X147630770Y-93170897D01*
X147586111Y-93157349D01*
X147531045Y-93151926D01*
X147501336Y-93149000D01*
X147501331Y-93149000D01*
X147473000Y-93146210D01*
X147444669Y-93149000D01*
X133886328Y-93149000D01*
X133857999Y-93146210D01*
X133829670Y-93149000D01*
X123853331Y-93149000D01*
X123825000Y-93146210D01*
X123796669Y-93149000D01*
X114772831Y-93149000D01*
X114744500Y-93146210D01*
X114716169Y-93149000D01*
X114716164Y-93149000D01*
X114689386Y-93151637D01*
X114631388Y-93157349D01*
X114567282Y-93176796D01*
X114522624Y-93190343D01*
X114422385Y-93243921D01*
X114334526Y-93316026D01*
X114316461Y-93338038D01*
X113912034Y-93742465D01*
X113890027Y-93760526D01*
X113871966Y-93782533D01*
X113871963Y-93782536D01*
X113856699Y-93801136D01*
X113817922Y-93848385D01*
X113808032Y-93866889D01*
X113764344Y-93948624D01*
X113731349Y-94057389D01*
X113720210Y-94170500D01*
X113723001Y-94198841D01*
X113723001Y-95395418D01*
X113250000Y-95395418D01*
X113185897Y-95401732D01*
X113124257Y-95420430D01*
X113067450Y-95450794D01*
X113017657Y-95491657D01*
X112976794Y-95541450D01*
X112946430Y-95598257D01*
X112927732Y-95659897D01*
X112921418Y-95724000D01*
X112921418Y-96280194D01*
X110787223Y-94146000D01*
X110773059Y-94128741D01*
X110704233Y-94072257D01*
X110625710Y-94030286D01*
X110540507Y-94004440D01*
X110474105Y-93997900D01*
X110451900Y-93995713D01*
X110429695Y-93997900D01*
X109673714Y-93997900D01*
X109666046Y-93972620D01*
X109617200Y-93881236D01*
X109551464Y-93801136D01*
X109471364Y-93735400D01*
X109379980Y-93686554D01*
X109280821Y-93656475D01*
X109177700Y-93646318D01*
X108777700Y-93646318D01*
X108674579Y-93656475D01*
X108575420Y-93686554D01*
X108484036Y-93735400D01*
X108403936Y-93801136D01*
X108338200Y-93881236D01*
X108289354Y-93972620D01*
X108259275Y-94071779D01*
X108249118Y-94174900D01*
X108249118Y-94724900D01*
X108259275Y-94828021D01*
X108289354Y-94927180D01*
X108338200Y-95018564D01*
X108403936Y-95098664D01*
X108484036Y-95164400D01*
X108575420Y-95213246D01*
X108674579Y-95243325D01*
X108678129Y-95243675D01*
X108675079Y-95243975D01*
X108575920Y-95274054D01*
X108484536Y-95322900D01*
X108404436Y-95388636D01*
X108338700Y-95468736D01*
X108289854Y-95560120D01*
X108259775Y-95659279D01*
X108249618Y-95762400D01*
X108249618Y-96312400D01*
X108259775Y-96415521D01*
X108289854Y-96514680D01*
X108335786Y-96600611D01*
X108259020Y-96623898D01*
X108148706Y-96682863D01*
X108052015Y-96762215D01*
X107972663Y-96858906D01*
X107913698Y-96969220D01*
X107906777Y-96992034D01*
X107888531Y-96977060D01*
X107793905Y-96926481D01*
X107780200Y-96922324D01*
X107780200Y-96774170D01*
X107821864Y-96751900D01*
X107901964Y-96686164D01*
X107967700Y-96606064D01*
X108016546Y-96514680D01*
X108046625Y-96415521D01*
X108056782Y-96312400D01*
X108056782Y-95762400D01*
X108046625Y-95659279D01*
X108016546Y-95560120D01*
X107967700Y-95468736D01*
X107901964Y-95388636D01*
X107821864Y-95322900D01*
X107730480Y-95274054D01*
X107631321Y-95243975D01*
X107627771Y-95243625D01*
X107630821Y-95243325D01*
X107729980Y-95213246D01*
X107821364Y-95164400D01*
X107901464Y-95098664D01*
X107967200Y-95018564D01*
X108016046Y-94927180D01*
X108046125Y-94828021D01*
X108056282Y-94724900D01*
X108056282Y-94174900D01*
X108046125Y-94071779D01*
X108016046Y-93972620D01*
X107967200Y-93881236D01*
X107901464Y-93801136D01*
X107821364Y-93735400D01*
X107729980Y-93686554D01*
X107630821Y-93656475D01*
X107527700Y-93646318D01*
X107127700Y-93646318D01*
X107024579Y-93656475D01*
X106925420Y-93686554D01*
X106834036Y-93735400D01*
X106753936Y-93801136D01*
X106688200Y-93881236D01*
X106639354Y-93972620D01*
X106609275Y-94071779D01*
X106599118Y-94174900D01*
X106599118Y-94422000D01*
X104658582Y-94422000D01*
X104658582Y-94374000D01*
X104652268Y-94309897D01*
X104633570Y-94248257D01*
X104603206Y-94191450D01*
X104562343Y-94141657D01*
X104512550Y-94100794D01*
X104455743Y-94070430D01*
X104394103Y-94051732D01*
X104330000Y-94045418D01*
X102630000Y-94045418D01*
X102565897Y-94051732D01*
X102504257Y-94070430D01*
X102447450Y-94100794D01*
X102397657Y-94141657D01*
X102356794Y-94191450D01*
X102326430Y-94248257D01*
X102307732Y-94309897D01*
X102301418Y-94374000D01*
X102301418Y-94422000D01*
X98358582Y-94422000D01*
X98358582Y-94374000D01*
X98352268Y-94309897D01*
X98333570Y-94248257D01*
X98303206Y-94191450D01*
X98262343Y-94141657D01*
X98212550Y-94100794D01*
X98155743Y-94070430D01*
X98094103Y-94051732D01*
X98030000Y-94045418D01*
X96330000Y-94045418D01*
X96265897Y-94051732D01*
X96204257Y-94070430D01*
X96147450Y-94100794D01*
X96097657Y-94141657D01*
X96056794Y-94191450D01*
X96026430Y-94248257D01*
X96007732Y-94309897D01*
X96001418Y-94374000D01*
X93322897Y-94374000D01*
X93218519Y-94122011D01*
X93045936Y-93863721D01*
X92826279Y-93644064D01*
X92567989Y-93471481D01*
X92280994Y-93352604D01*
X91976321Y-93292000D01*
X91665679Y-93292000D01*
X91361006Y-93352604D01*
X91074011Y-93471481D01*
X90815721Y-93644064D01*
X90596064Y-93863721D01*
X90423481Y-94122011D01*
X90304604Y-94409006D01*
X90244000Y-94713679D01*
X89277000Y-94713679D01*
X89277000Y-92325000D01*
X176153000Y-92325000D01*
X176153000Y-108951419D01*
G37*
G04 #@! TD.AperFunction*
M02*
