G04 #@! TF.GenerationSoftware,KiCad,Pcbnew,(5.1.12)-1*
G04 #@! TF.CreationDate,2022-06-29T22:30:09+05:00*
G04 #@! TF.ProjectId,YNXT-WM01,594e5854-2d57-44d3-9031-2e6b69636164,rev?*
G04 #@! TF.SameCoordinates,Original*
G04 #@! TF.FileFunction,Legend,Bot*
G04 #@! TF.FilePolarity,Positive*
%FSLAX46Y46*%
G04 Gerber Fmt 4.6, Leading zero omitted, Abs format (unit mm)*
G04 Created by KiCad (PCBNEW (5.1.12)-1) date 2022-06-29 22:30:09*
%MOMM*%
%LPD*%
G01*
G04 APERTURE LIST*
%ADD10C,0.120000*%
%ADD11C,0.150000*%
%ADD12R,7.340000X6.350000*%
%ADD13C,2.390000*%
%ADD14R,1.700000X1.700000*%
%ADD15O,1.700000X1.700000*%
%ADD16O,1.750000X4.500000*%
%ADD17C,2.100000*%
%ADD18R,2.100000X2.100000*%
%ADD19R,1.700000X1.000000*%
%ADD20O,1.000000X1.600000*%
%ADD21C,0.650000*%
%ADD22O,1.000000X2.100000*%
%ADD23R,0.300000X1.450000*%
%ADD24R,0.600000X1.450000*%
%ADD25C,2.500000*%
G04 APERTURE END LIST*
D10*
X90718001Y-117205001D02*
X90718001Y-119705001D01*
X89468001Y-118455001D02*
X91968001Y-118455001D01*
X176968001Y-118455001D02*
X174468001Y-118455001D01*
X171858001Y-115895001D02*
X171858001Y-122875001D01*
X171858001Y-122895001D02*
X94578001Y-122895001D01*
X94578001Y-122895001D02*
X94578001Y-115895001D01*
X171858001Y-109015001D02*
X171858001Y-102015001D01*
X171858001Y-102015001D02*
X94578001Y-102015001D01*
X94578001Y-102015001D02*
X94578001Y-109015001D01*
X94578001Y-115895001D02*
X90218001Y-115895001D01*
X142398000Y-93924000D02*
X148178000Y-93924000D01*
X142398000Y-99024000D02*
X148178000Y-99024000D01*
X142398000Y-100144000D02*
X148178000Y-100144000D01*
X142398000Y-93404000D02*
X148178000Y-93404000D01*
X142398000Y-100144000D02*
X142398000Y-93404000D01*
X148178000Y-100144000D02*
X148178000Y-93404000D01*
X142158000Y-93804000D02*
X142158000Y-93164000D01*
X142158000Y-93164000D02*
X142558000Y-93164000D01*
X107999920Y-99824000D02*
X108281080Y-99824000D01*
X107999920Y-98804000D02*
X108281080Y-98804000D01*
X167120200Y-96737500D02*
X169405200Y-96737500D01*
X167120200Y-98207500D02*
X167120200Y-96737500D01*
X169405200Y-98207500D02*
X167120200Y-98207500D01*
X112440000Y-93164000D02*
X112840000Y-93164000D01*
X112440000Y-93804000D02*
X112440000Y-93164000D01*
X121000000Y-100144000D02*
X121000000Y-93404000D01*
X112680000Y-100144000D02*
X112680000Y-93404000D01*
X112680000Y-93404000D02*
X121000000Y-93404000D01*
X112680000Y-100144000D02*
X121000000Y-100144000D01*
X112680000Y-99024000D02*
X121000000Y-99024000D01*
X112680000Y-93924000D02*
X121000000Y-93924000D01*
X122332000Y-93924000D02*
X130652000Y-93924000D01*
X122332000Y-99024000D02*
X130652000Y-99024000D01*
X122332000Y-100144000D02*
X130652000Y-100144000D01*
X122332000Y-93404000D02*
X130652000Y-93404000D01*
X122332000Y-100144000D02*
X122332000Y-93404000D01*
X130652000Y-100144000D02*
X130652000Y-93404000D01*
X122092000Y-93804000D02*
X122092000Y-93164000D01*
X122092000Y-93164000D02*
X122492000Y-93164000D01*
X131744000Y-93164000D02*
X132144000Y-93164000D01*
X131744000Y-93804000D02*
X131744000Y-93164000D01*
X140304000Y-100144000D02*
X140304000Y-93404000D01*
X131984000Y-100144000D02*
X131984000Y-93404000D01*
X131984000Y-93404000D02*
X140304000Y-93404000D01*
X131984000Y-100144000D02*
X140304000Y-100144000D01*
X131984000Y-99024000D02*
X140304000Y-99024000D01*
X131984000Y-93924000D02*
X140304000Y-93924000D01*
X108389958Y-93927400D02*
X107915442Y-93927400D01*
X108389958Y-94972400D02*
X107915442Y-94972400D01*
X168367942Y-95362500D02*
X168842458Y-95362500D01*
X168367942Y-96407500D02*
X168842458Y-96407500D01*
X101580000Y-94024000D02*
X99080000Y-94024000D01*
X103080000Y-95774000D02*
X103080000Y-97774000D01*
X101580000Y-99524000D02*
X99080000Y-99524000D01*
X97580000Y-95774000D02*
X97580000Y-97774000D01*
X102030000Y-94474000D02*
X101580000Y-94024000D01*
X98630000Y-94474000D02*
X99080000Y-94024000D01*
X98630000Y-99074000D02*
X99080000Y-99524000D01*
X102030000Y-99074000D02*
X101580000Y-99524000D01*
X107353200Y-96953400D02*
X109638200Y-96953400D01*
X109638200Y-96953400D02*
X109638200Y-98423400D01*
X109638200Y-98423400D02*
X107353200Y-98423400D01*
X107915942Y-96559900D02*
X108390458Y-96559900D01*
X107915942Y-95514900D02*
X108390458Y-95514900D01*
X156082000Y-94266000D02*
X156082000Y-92366000D01*
X156082000Y-98166000D02*
X156082000Y-96166000D01*
X165482000Y-94266000D02*
X165482000Y-92366000D01*
X165482000Y-98166000D02*
X165482000Y-96166000D01*
X156082000Y-92366000D02*
X165482000Y-92366000D01*
D11*
X134003715Y-123883572D02*
X133860858Y-123931191D01*
X133813239Y-123978810D01*
X133765620Y-124074048D01*
X133765620Y-124216905D01*
X133813239Y-124312143D01*
X133860858Y-124359762D01*
X133956096Y-124407381D01*
X134337048Y-124407381D01*
X134337048Y-123407381D01*
X134003715Y-123407381D01*
X133908477Y-123455001D01*
X133860858Y-123502620D01*
X133813239Y-123597858D01*
X133813239Y-123693096D01*
X133860858Y-123788334D01*
X133908477Y-123835953D01*
X134003715Y-123883572D01*
X134337048Y-123883572D01*
X133479905Y-123407381D02*
X132908477Y-123407381D01*
X133194191Y-124407381D02*
X133194191Y-123407381D01*
X132051334Y-124407381D02*
X132622762Y-124407381D01*
X132337048Y-124407381D02*
X132337048Y-123407381D01*
X132432286Y-123550239D01*
X132527524Y-123645477D01*
X132622762Y-123693096D01*
X152312666Y-94178380D02*
X152788857Y-94178380D01*
X152788857Y-93178380D01*
X151455523Y-94178380D02*
X152026952Y-94178380D01*
X151741238Y-94178380D02*
X151741238Y-93178380D01*
X151836476Y-93321238D01*
X151931714Y-93416476D01*
X152026952Y-93464095D01*
X110720166Y-99671142D02*
X110767785Y-99718761D01*
X110910642Y-99766380D01*
X111005880Y-99766380D01*
X111148738Y-99718761D01*
X111243976Y-99623523D01*
X111291595Y-99528285D01*
X111339214Y-99337809D01*
X111339214Y-99194952D01*
X111291595Y-99004476D01*
X111243976Y-98909238D01*
X111148738Y-98814000D01*
X111005880Y-98766380D01*
X110910642Y-98766380D01*
X110767785Y-98814000D01*
X110720166Y-98861619D01*
X110339214Y-98861619D02*
X110291595Y-98814000D01*
X110196357Y-98766380D01*
X109958261Y-98766380D01*
X109863023Y-98814000D01*
X109815404Y-98861619D01*
X109767785Y-98956857D01*
X109767785Y-99052095D01*
X109815404Y-99194952D01*
X110386833Y-99766380D01*
X109767785Y-99766380D01*
X169406795Y-99385380D02*
X169406795Y-98385380D01*
X169168700Y-98385380D01*
X169025842Y-98433000D01*
X168930604Y-98528238D01*
X168882985Y-98623476D01*
X168835366Y-98813952D01*
X168835366Y-98956809D01*
X168882985Y-99147285D01*
X168930604Y-99242523D01*
X169025842Y-99337761D01*
X169168700Y-99385380D01*
X169406795Y-99385380D01*
X167882985Y-99385380D02*
X168454414Y-99385380D01*
X168168700Y-99385380D02*
X168168700Y-98385380D01*
X168263938Y-98528238D01*
X168359176Y-98623476D01*
X168454414Y-98671095D01*
X110732866Y-94902280D02*
X111066200Y-94426090D01*
X111304295Y-94902280D02*
X111304295Y-93902280D01*
X110923342Y-93902280D01*
X110828104Y-93949900D01*
X110780485Y-93997519D01*
X110732866Y-94092757D01*
X110732866Y-94235614D01*
X110780485Y-94330852D01*
X110828104Y-94378471D01*
X110923342Y-94426090D01*
X111304295Y-94426090D01*
X109780485Y-94902280D02*
X110351914Y-94902280D01*
X110066200Y-94902280D02*
X110066200Y-93902280D01*
X110161438Y-94045138D01*
X110256676Y-94140376D01*
X110351914Y-94187995D01*
X168835366Y-95067380D02*
X169168700Y-94591190D01*
X169406795Y-95067380D02*
X169406795Y-94067380D01*
X169025842Y-94067380D01*
X168930604Y-94115000D01*
X168882985Y-94162619D01*
X168835366Y-94257857D01*
X168835366Y-94400714D01*
X168882985Y-94495952D01*
X168930604Y-94543571D01*
X169025842Y-94591190D01*
X169406795Y-94591190D01*
X168502033Y-94067380D02*
X167882985Y-94067380D01*
X168216319Y-94448333D01*
X168073461Y-94448333D01*
X167978223Y-94495952D01*
X167930604Y-94543571D01*
X167882985Y-94638809D01*
X167882985Y-94876904D01*
X167930604Y-94972142D01*
X167978223Y-95019761D01*
X168073461Y-95067380D01*
X168359176Y-95067380D01*
X168454414Y-95019761D01*
X168502033Y-94972142D01*
X101663333Y-97178761D02*
X101520476Y-97226380D01*
X101282380Y-97226380D01*
X101187142Y-97178761D01*
X101139523Y-97131142D01*
X101091904Y-97035904D01*
X101091904Y-96940666D01*
X101139523Y-96845428D01*
X101187142Y-96797809D01*
X101282380Y-96750190D01*
X101472857Y-96702571D01*
X101568095Y-96654952D01*
X101615714Y-96607333D01*
X101663333Y-96512095D01*
X101663333Y-96416857D01*
X101615714Y-96321619D01*
X101568095Y-96274000D01*
X101472857Y-96226380D01*
X101234761Y-96226380D01*
X101091904Y-96274000D01*
X100758571Y-96226380D02*
X100520476Y-97226380D01*
X100330000Y-96512095D01*
X100139523Y-97226380D01*
X99901428Y-96226380D01*
X98996666Y-97226380D02*
X99568095Y-97226380D01*
X99282380Y-97226380D02*
X99282380Y-96226380D01*
X99377619Y-96369238D01*
X99472857Y-96464476D01*
X99568095Y-96512095D01*
X111367795Y-98204280D02*
X111367795Y-97204280D01*
X111129700Y-97204280D01*
X110986842Y-97251900D01*
X110891604Y-97347138D01*
X110843985Y-97442376D01*
X110796366Y-97632852D01*
X110796366Y-97775709D01*
X110843985Y-97966185D01*
X110891604Y-98061423D01*
X110986842Y-98156661D01*
X111129700Y-98204280D01*
X111367795Y-98204280D01*
X110415414Y-97299519D02*
X110367795Y-97251900D01*
X110272557Y-97204280D01*
X110034461Y-97204280D01*
X109939223Y-97251900D01*
X109891604Y-97299519D01*
X109843985Y-97394757D01*
X109843985Y-97489995D01*
X109891604Y-97632852D01*
X110463033Y-98204280D01*
X109843985Y-98204280D01*
X110859866Y-96489780D02*
X111193200Y-96013590D01*
X111431295Y-96489780D02*
X111431295Y-95489780D01*
X111050342Y-95489780D01*
X110955104Y-95537400D01*
X110907485Y-95585019D01*
X110859866Y-95680257D01*
X110859866Y-95823114D01*
X110907485Y-95918352D01*
X110955104Y-95965971D01*
X111050342Y-96013590D01*
X111431295Y-96013590D01*
X110002723Y-95823114D02*
X110002723Y-96489780D01*
X110240819Y-95442161D02*
X110478914Y-96156447D01*
X109859866Y-96156447D01*
X161520095Y-96718380D02*
X161520095Y-95718380D01*
X161139142Y-95718380D01*
X161043904Y-95766000D01*
X160996285Y-95813619D01*
X160948666Y-95908857D01*
X160948666Y-96051714D01*
X160996285Y-96146952D01*
X161043904Y-96194571D01*
X161139142Y-96242190D01*
X161520095Y-96242190D01*
X159996285Y-96718380D02*
X160567714Y-96718380D01*
X160282000Y-96718380D02*
X160282000Y-95718380D01*
X160377238Y-95861238D01*
X160472476Y-95956476D01*
X160567714Y-96004095D01*
%LPC*%
D12*
X93888001Y-112455001D03*
X172548001Y-112455001D03*
D13*
X97288001Y-120455001D03*
D14*
X115570000Y-125603000D03*
D15*
X118110000Y-125603000D03*
X120650000Y-125603000D03*
X123190000Y-125603000D03*
X125730000Y-125603000D03*
D16*
X153771000Y-96774000D03*
X150521000Y-96774000D03*
D17*
X146558000Y-96774000D03*
D18*
X144018000Y-96774000D03*
G36*
G01*
X108465500Y-99564000D02*
X108465500Y-99064000D01*
G75*
G02*
X108690500Y-98839000I225000J0D01*
G01*
X109140500Y-98839000D01*
G75*
G02*
X109365500Y-99064000I0J-225000D01*
G01*
X109365500Y-99564000D01*
G75*
G02*
X109140500Y-99789000I-225000J0D01*
G01*
X108690500Y-99789000D01*
G75*
G02*
X108465500Y-99564000I0J225000D01*
G01*
G37*
G36*
G01*
X106915500Y-99564000D02*
X106915500Y-99064000D01*
G75*
G02*
X107140500Y-98839000I225000J0D01*
G01*
X107590500Y-98839000D01*
G75*
G02*
X107815500Y-99064000I0J-225000D01*
G01*
X107815500Y-99564000D01*
G75*
G02*
X107590500Y-99789000I-225000J0D01*
G01*
X107140500Y-99789000D01*
G75*
G02*
X106915500Y-99564000I0J225000D01*
G01*
G37*
G36*
G01*
X167380200Y-97728750D02*
X167380200Y-97216250D01*
G75*
G02*
X167598950Y-96997500I218750J0D01*
G01*
X168036450Y-96997500D01*
G75*
G02*
X168255200Y-97216250I0J-218750D01*
G01*
X168255200Y-97728750D01*
G75*
G02*
X168036450Y-97947500I-218750J0D01*
G01*
X167598950Y-97947500D01*
G75*
G02*
X167380200Y-97728750I0J218750D01*
G01*
G37*
G36*
G01*
X168955200Y-97728750D02*
X168955200Y-97216250D01*
G75*
G02*
X169173950Y-96997500I218750J0D01*
G01*
X169611450Y-96997500D01*
G75*
G02*
X169830200Y-97216250I0J-218750D01*
G01*
X169830200Y-97728750D01*
G75*
G02*
X169611450Y-97947500I-218750J0D01*
G01*
X169173950Y-97947500D01*
G75*
G02*
X168955200Y-97728750I0J218750D01*
G01*
G37*
X114300000Y-96774000D03*
D17*
X116840000Y-96774000D03*
X119380000Y-96774000D03*
X129032000Y-96774000D03*
X126492000Y-96774000D03*
D18*
X123952000Y-96774000D03*
X133604000Y-96774000D03*
D17*
X136144000Y-96774000D03*
X138684000Y-96774000D03*
G36*
G01*
X107727700Y-94174900D02*
X107727700Y-94724900D01*
G75*
G02*
X107527700Y-94924900I-200000J0D01*
G01*
X107127700Y-94924900D01*
G75*
G02*
X106927700Y-94724900I0J200000D01*
G01*
X106927700Y-94174900D01*
G75*
G02*
X107127700Y-93974900I200000J0D01*
G01*
X107527700Y-93974900D01*
G75*
G02*
X107727700Y-94174900I0J-200000D01*
G01*
G37*
G36*
G01*
X109377700Y-94174900D02*
X109377700Y-94724900D01*
G75*
G02*
X109177700Y-94924900I-200000J0D01*
G01*
X108777700Y-94924900D01*
G75*
G02*
X108577700Y-94724900I0J200000D01*
G01*
X108577700Y-94174900D01*
G75*
G02*
X108777700Y-93974900I200000J0D01*
G01*
X109177700Y-93974900D01*
G75*
G02*
X109377700Y-94174900I0J-200000D01*
G01*
G37*
G36*
G01*
X167380200Y-96160000D02*
X167380200Y-95610000D01*
G75*
G02*
X167580200Y-95410000I200000J0D01*
G01*
X167980200Y-95410000D01*
G75*
G02*
X168180200Y-95610000I0J-200000D01*
G01*
X168180200Y-96160000D01*
G75*
G02*
X167980200Y-96360000I-200000J0D01*
G01*
X167580200Y-96360000D01*
G75*
G02*
X167380200Y-96160000I0J200000D01*
G01*
G37*
G36*
G01*
X169030200Y-96160000D02*
X169030200Y-95610000D01*
G75*
G02*
X169230200Y-95410000I200000J0D01*
G01*
X169630200Y-95410000D01*
G75*
G02*
X169830200Y-95610000I0J-200000D01*
G01*
X169830200Y-96160000D01*
G75*
G02*
X169630200Y-96360000I-200000J0D01*
G01*
X169230200Y-96360000D01*
G75*
G02*
X169030200Y-96160000I0J200000D01*
G01*
G37*
D19*
X103480000Y-94874000D03*
X97180000Y-94874000D03*
X103480000Y-98674000D03*
X97180000Y-98674000D03*
G36*
G01*
X109378200Y-97432150D02*
X109378200Y-97944650D01*
G75*
G02*
X109159450Y-98163400I-218750J0D01*
G01*
X108721950Y-98163400D01*
G75*
G02*
X108503200Y-97944650I0J218750D01*
G01*
X108503200Y-97432150D01*
G75*
G02*
X108721950Y-97213400I218750J0D01*
G01*
X109159450Y-97213400D01*
G75*
G02*
X109378200Y-97432150I0J-218750D01*
G01*
G37*
G36*
G01*
X107803200Y-97432150D02*
X107803200Y-97944650D01*
G75*
G02*
X107584450Y-98163400I-218750J0D01*
G01*
X107146950Y-98163400D01*
G75*
G02*
X106928200Y-97944650I0J218750D01*
G01*
X106928200Y-97432150D01*
G75*
G02*
X107146950Y-97213400I218750J0D01*
G01*
X107584450Y-97213400D01*
G75*
G02*
X107803200Y-97432150I0J-218750D01*
G01*
G37*
G36*
G01*
X106928200Y-96312400D02*
X106928200Y-95762400D01*
G75*
G02*
X107128200Y-95562400I200000J0D01*
G01*
X107528200Y-95562400D01*
G75*
G02*
X107728200Y-95762400I0J-200000D01*
G01*
X107728200Y-96312400D01*
G75*
G02*
X107528200Y-96512400I-200000J0D01*
G01*
X107128200Y-96512400D01*
G75*
G02*
X106928200Y-96312400I0J200000D01*
G01*
G37*
G36*
G01*
X108578200Y-96312400D02*
X108578200Y-95762400D01*
G75*
G02*
X108778200Y-95562400I200000J0D01*
G01*
X109178200Y-95562400D01*
G75*
G02*
X109378200Y-95762400I0J-200000D01*
G01*
X109378200Y-96312400D01*
G75*
G02*
X109178200Y-96512400I-200000J0D01*
G01*
X108778200Y-96512400D01*
G75*
G02*
X108578200Y-96312400I0J200000D01*
G01*
G37*
D20*
X165102000Y-95216000D03*
D21*
X163672000Y-98866000D03*
D20*
X156462000Y-95216000D03*
D21*
X157892000Y-98866000D03*
D22*
X156462000Y-99396000D03*
X165102000Y-99396000D03*
D23*
X160532000Y-100311000D03*
X162532000Y-100311000D03*
X162032000Y-100311000D03*
X161532000Y-100311000D03*
X161032000Y-100311000D03*
X160032000Y-100311000D03*
X159532000Y-100311000D03*
X159032000Y-100311000D03*
D24*
X164032000Y-100311000D03*
X163232000Y-100311000D03*
X158332000Y-100311000D03*
X157532000Y-100311000D03*
X157532000Y-100311000D03*
X158332000Y-100311000D03*
X163232000Y-100311000D03*
X164032000Y-100311000D03*
D25*
X173609000Y-94869000D03*
X173609000Y-124587000D03*
X91821000Y-124587000D03*
X91821000Y-94869000D03*
D14*
X134366000Y-125603000D03*
D15*
X136906000Y-125603000D03*
X139446000Y-125603000D03*
X141986000Y-125603000D03*
X144526000Y-125603000D03*
X147066000Y-125603000D03*
X149606000Y-125603000D03*
X152146000Y-125603000D03*
X154686000Y-125603000D03*
M02*
